<svg xmlns="http://www.w3.org/2000/svg" id="mySvg" width="230" height="130" class="roots-wrapper">
      <g transform="rotate(0 70.673 63.392)">
        <svg viewboxsize="575" data-root-id="5714610502758" xmlns="http://www.w3.org/2000/svg" xmlns:xlink="http://www.w3.org/1999/xlink" version="1.2" baseProfile="tiny" id="Layer_1" x="0" y="0" viewBox="19.81269073486328 38.52458190917969 334.9874267578125 300.47540283203125" xml:space="preserve" height="126.78362484965025" width="141.34579108804837" preserveAspectRatio="xMinYMin" zoom="1" editortype="buyer" data-layer-role="icon" style="&#10;            position: absolute;&#10;            height: 126.784px;&#10;            width: 141.346px;&#10;            top: 0px;&#10;            left: 0px;&#10;            transform: rotate(0deg);&#10;          ">
          <path fill="#FBD0E1" d="M286.3,87.1c-1.1-0.4-2-0.4-2.5,0.1c-1.7,1.5-4.8,3.1-6.3,3.8c0.8,1.1,1.8,3.2,1.1,5.6   c-0.7,2.4-1.2,5.4-0.6,7.9c0.7,0.4,1.4,0.8,1.8,1.3c0.1,0.1,0.3,0.3,0.4,0.5c0-0.2,0-0.3,0-0.5c-0.1-3.2,1.2-6.1,3.7-8.5   c0.7-0.6,1.3-1.2,1.8-1.8c2.4-2.5,3.8-4,5.9-4C289.9,89.4,288,87.8,286.3,87.1z" name="Layer %{number}" zoom="1" data-layer-id="2452168202758" style="fill: rgb(206, 208, 248); fill-opacity: 0.4"/>
          <path fill="#FBD0E1" d="M298.2,118.9c-2,2-4,4.2-5.6,5.8c0,0.4,0,0.8,0,1.3c0-0.1,0.1-0.1,0.1-0.1c0.3-0.1,2.7-1.4,6,2.5   c2.9,3.4,4.3,3.8,6.9,3.8c0.3,0,0.5,0.3,0.5,0.6c0,0.2,0,0.3,0,0.5c0,0.2,0,0.3-0.1,0.4c0,0-0.1,0.1-0.1,0.1   c-0.1,0.1-0.1,0.1-0.2,0.1c-3-0.1-4.7-0.7-7.8-4.4c-2.7-3.1-4.5-2.2-4.5-2.2c-0.2,0.1-0.5,0-0.6-0.3c-0.1-0.1-0.1-0.2-0.2-0.4   c0,1.3,0.1,2.4,0.3,2.7c0.2,0.4,0.4,0.8,0.5,1.2c0.2,0.7,0.5,1.5,1.5,2.2c0.3,0.2,0.7,0.4,1,0.6c0,0,0,0,0,0   c2.7,1.4,5.7,4.6,6.5,5.6c0.9,0,4.2,0,6.1-0.6c1.4-0.5,1.9-2.8,2.5-5.8c0.2-1,0.4-2,0.6-3.1c0.7-3.2,0.1-4.1-1-5.6   c-0.3-0.4-0.6-0.9-1-1.4c-0.1-0.2-0.2-0.3-0.3-0.5c-1.7-2.6-1.7-3.3-0.4-7.3c0.3-0.9,0.3-1.6,0.1-1.9c-0.5-0.7-2.4-0.7-4.2,0.1   c-0.4,0.2-1.1,0.7-2,1.5C301.9,115.2,299.5,117.6,298.2,118.9z M303.9,117.6c0-0.2,0.2-0.4,0.4-0.4c0,0,0,0,0,0   c0.1,0,0.1-0.1,0.2-0.1c0.1-0.1,0.2-0.1,0.4,0c0.1,0.1,0.2,0.2,0.3,0.3c0.1,0.2,0.2,0.5,0.1,0.8c-0.1,0.5-0.4,1.1-1.1,1.7   c-0.7,0.6-1.7,1.4-3,2.2c-4.1,2.5-5.4,2.3-5.7,2.1c-0.2-0.1-0.4-0.4-0.3-0.7c0-0.2,0.1-0.3,0.1-0.5c0.1-0.3,0.3-0.4,0.5-0.3   c0,0,1,0.2,4.7-2.1C303.4,118.6,303.9,117.7,303.9,117.6z" name="Layer %{number}" zoom="1" data-layer-id="5296522702758" style="fill: rgb(206, 208, 248); fill-opacity: 0.4"/>
          <path fill="#FBD0E1" d="M287.9,117.8C287.9,117.8,287.9,117.8,287.9,117.8c0.2,0.2,0.4,0.4,0.5,0.7c0.3,0.4,0.4,0.7,0.5,0.8   c0.4,0.6,0.7,0.9,1.1,1.6c0.3-0.3,0.8-0.7,1.6-1.3c0.6-0.5,1.4-0.7,2.4-0.9c1-0.2,2.3-0.6,3.6-1.3c1.5-1.6,3-3.1,4.3-4.3   c1.4-2.5,1.2-5,0.9-8.1c-0.1-0.9-0.2-1.9-0.3-2.8c-0.3-4-3.7-5.9-7.6-7.8c-0.3-0.1-0.4-0.2-0.7-0.4c-3.2-1.6-4.2-0.5-7.5,2.9   c-0.5,0.5-1.1,1.1-1.8,1.8c-2.2,2.1-3.3,4.7-3.3,7.4c0,2.4,1,4.8,2.7,6.9C286.1,115.2,287.2,116.8,287.9,117.8z M291.8,114.6   c0,0,1.9-0.4,2.1-6.2c0.2-7,2.6-8.7,2.8-8.8c0.2-0.1,0.5,0,0.7,0.3c0.1,0.2,0.1,0.3,0.2,0.5c0.1,0.1,0.1,0.3,0.1,0.5   c0,0.1-0.1,0.3-0.2,0.3c0,0-2,1.5-2.2,7.6c-0.1,4.2-1.2,6.1-2,6.9c-0.6,0.6-1.1,0.7-1.2,0.7c-0.3,0-0.5-0.2-0.6-0.5   c0-0.2-0.1-0.3-0.1-0.5C291.4,114.9,291.6,114.6,291.8,114.6z M285.7,106c0.1-0.3,0.3-0.4,0.6-0.3c0.2,0.1,0.2,0.1,0.4,0.2   c0.1,0.1,0.2,0.2,0.3,0.3c0.1,0.1,0.1,0.3,0,0.4c-0.9,3.6,2.6,10.7,2.6,10.8c0.1,0.1,0.1,0.3,0.1,0.4c0,0.1-0.1,0.2-0.1,0.3   c0,0,0,0-0.1,0.1c-0.1,0.1-0.2,0.1-0.3,0.2c-0.2,0.1-0.5,0-0.6-0.3C288.3,117.8,284.7,110.4,285.7,106z" name="Layer %{number}" zoom="1" data-layer-id="9317216702758" style="fill: rgb(206, 208, 248); fill-opacity: 0.4"/>
          <path fill="#FBD0E1" d="M282,123.8c0.4-0.4,0.6-0.6,1.1-1c0,0,0.9-1.3,0.9-4.1c-0.1-3-3.8-10.5-5-11.8c-1.1-1.2-4.4-2.6-6.2-1.3   c-1.2,0.9-2.2,0.9-3.1,0.9c-0.8,0-1.5,0-2.6,0.5c-0.7,0.3-1.3,0.8-1.9,1.4c-0.6,0.7-1.1,1.4-1.6,2.1c-0.4,0.6-0.8,1.1-1.2,1.5   c-0.1,0.1-0.2,0.2-0.2,0.4c0,0.7,0.8,1.6,1.1,2.1c0,0,0.1,0.1,0.1,0.1c0.2,0.2,0.2,0.4,0.1,0.6c0,0.1,0,0.1-0.1,0.1   c-0.1,0.2-2.1,4.1,0.4,6.8c2.6,2.9,4.5,4.1,9.5,4.1C278,126,282,123.8,282,123.8z M273.6,109.1c0.1-0.1,0.2-0.1,0.3-0.2   c0.2-0.1,0.5,0,0.6,0.2c0,0.1,2.9,5.7,5.6,7.1c0.1,0.1,0.2,0.2,0.3,0.3c0.1,0.1,0.1,0.3,0,0.4c-0.1,0.2-0.1,0.2-0.1,0.4   c0,0.1-0.1,0.1-0.1,0.2c-0.1,0.1-0.3,0.1-0.5,0.1c-3.2-1.6-6.1-7.6-6.3-7.8C273.4,109.6,273.4,109.3,273.6,109.1z M264.9,118.9   c-0.2-0.4-0.2-0.7-0.1-1c0.1-0.2,0.4-0.4,0.6-0.3c0.1,0.1,0.2,0.1,0.3,0.1c0.2,0.1,0.3,0.2,0.3,0.4c0.1,0.1,0.8,0.7,4,1   c1.8,0.2,3.1,0.2,4.1,0.2c1.8,0,3.2,0,5.4,1.3c0.2,0.1,0.3,0.5,0.2,0.7c-0.1,0.2-0.1,0.2-0.2,0.4c0,0.1-0.1,0.1-0.1,0.2   c0,0-0.1,0.1-0.1,0.1c-0.1,0-0.2,0-0.4,0c-2-1.2-3-1.2-4.8-1.2c-1.1,0-2.4,0-4.2-0.2C266.1,120.2,265.2,119.4,264.9,118.9z" name="Layer %{number}" zoom="1" data-layer-id="6192213602758" style="fill: rgb(206, 208, 248); fill-opacity: 0.4"/>
          <path fill="#FBD0E1" d="M309.8,139.6c-0.3,0.2-0.6,0.4-0.9,0.5c-2,0.6-5.2,0.6-6.3,0.6c0.4,1.1,0.7,2.3,0.6,3.5   c-0.1,1.1-0.2,1.9-0.5,2.6c0.5,0.2,0.9,0.3,1.4,0.5c2.5,1.1,3,0.4,4.1-0.9c0.3-0.3,0.6-0.7,0.9-1.1c0.1-0.2,0.2-0.2,0.3-0.4   c1.7-2,2.3-2,5.5,0.4c0.7,0.5,1.2,0.7,1.4,0.5c0.5-0.6,0.3-3.1-0.5-5.7c-0.2-0.6-0.7-1.6-1.4-2.9c-0.4-0.7-1.3-2-2.2-3.4   C311.7,136.4,311.2,138.6,309.8,139.6z" name="Layer %{number}" zoom="1" data-layer-id="6644514402758" style="fill: rgb(206, 208, 248); fill-opacity: 0.4"/>
          <path fill="#FBD0E1" d="M301.9,143.9c0.2-4.2-4-7.3-6.5-9.1c-0.4-0.2-0.7-0.4-1.1-0.7c-1.4-0.8-2.8-1.2-3.8-1.5c-0.2,0-0.4,0-0.7,0   c0,0,0,0,0,0c1.7,2.8,2.4,4.1,4.9,4.7c2.6,0.7,3.2,1.7,4.3,3.5c0.2,0.4,0.5,0.8,0.7,1.2c0.1,0.1,0.1,0.3,0.1,0.4   c0,0.2-0.1,0.3-0.2,0.4c-0.1,0.1-0.2,0.2-0.3,0.3c0,0,0,0,0,0c-0.1,0.1-0.2,0.1-0.3,0.1c-0.1,0-0.2-0.1-0.3-0.2   c-0.3-0.5-0.5-0.9-0.8-1.3c-1.1-1.8-1.4-2.3-3.4-2.8c-3-0.8-4-2.6-5.7-5.4c-0.1-0.2-0.1-0.6,0.1-0.7c0.1-0.1,0.2-0.1,0.3-0.2   c-0.2,0-0.5-0.1-0.7-0.2c-0.6,0-1.2,0-1.6,0.3c-0.1,0.1-0.1,0.3-0.3,0.4c-0.1,0.3-0.2,0.9-0.2,1.5c-0.2,1.4-0.4,3.2-1.4,5.1   c-1.7,3.2-2.8,5.9-1.6,11.9c0.5,2.6,1,3.3,1.4,3.5c0.7,0.3,2-0.7,3.5-2c0.3-0.2,0.4-0.3,0.6-0.5c2.9-2.5,2.2-4.3,2.2-4.3   c-0.1-0.2-0.1-0.3-0.2-0.4c-0.1-0.2-0.1-0.4,0-0.6c0-0.1,0.1-0.1,0.1-0.2c0.1-0.1,0.2-0.1,0.3-0.1c0.2,0,0.3,0.1,0.4,0.1   c0.1,0,2.5,0.6,5.3,0c0.8-0.2,1.5-0.2,2.1-0.2C301,146.7,301.8,146.7,301.9,143.9z M287.6,137.7c-2.2,3.6-1.7,7.8-1.6,7.9   c0,0.2-0.1,0.4-0.2,0.5c-0.1,0-0.1,0.1-0.2,0.1c-0.2,0-0.2,0-0.4,0c-0.1,0-0.2,0-0.3-0.1c-0.1-0.1-0.2-0.2-0.2-0.4   c0-0.2-0.6-4.8,1.9-9c0.1-0.1,0.2-0.2,0.3-0.2c0.1,0,0.2,0,0.3,0.1c0.1,0.1,0.2,0.2,0.3,0.3C287.7,137.1,287.8,137.4,287.6,137.7z" name="Layer %{number}" zoom="1" data-layer-id="0434158102758" style="fill: rgb(206, 208, 248); fill-opacity: 0.4"/>
          <path fill="#FBD0E1" d="M309.6,116.9c1.8-1.3,5.6-3.4,8.5-1.9c0.3,0.1,0.4,0.5,0.4,0.8c0,0.2,0,0.3-0.1,0.5c0,0.2-0.1,0.3-0.2,0.4   c-0.1,0.1-0.2,0.1-0.4,0c-3.2-1.7-8.4,2.5-8.5,2.6c0,0-0.1,0-0.1,0c0.1,0.5,0.4,0.9,0.9,1.7c0.1,0.2,0.2,0.3,0.3,0.5   c0.2,0.3,0.3,0.5,0.5,0.7c0.1-0.1,0.1-0.2,0.3-0.3c0.2,0,0.2,0,0.4-0.1c0.2-0.1,0.5,0.2,0.6,0.5c0,0,0.8,2.5,5.5,3.6   c5.8,1.4,7.4,5.5,7.5,5.6c0.1,0.3,0.1,0.7-0.2,0.9c-0.1,0.1-0.2,0.1-0.3,0.2c-0.1,0.1-0.2,0.1-0.4,0c-0.1-0.1-0.2-0.2-0.3-0.4   c0,0-1.4-3.3-6.4-4.6c-2.3-0.6-3.8-1.4-4.8-2.3c0.3,1.1,0.4,2.6-0.1,4.7c-0.1,0.5-0.2,1-0.3,1.5c1,1.5,1.9,2.9,2.7,4.2   c2.2,2.2,4.1,2.5,6.4,2.7c0.7,0.1,1.4,0.2,2.2,0.3c3.1,0.6,4.3-3.5,5.5-8.6c0.1-0.4,0.1-0.6,0.2-0.9c0.9-4.1,0-6-3.3-11.5   c-0.5-0.9-1.2-1.9-1.8-3c-2.2-3.6-4.7-5.6-7.1-5.9c-2.1-0.2-3.9,0.9-5.3,3.1c-0.6,1-1.1,1.8-1.6,2.5c-0.1,0.3-0.1,0.6-0.2,0.9   C309.9,116.1,309.8,116.5,309.6,116.9z" name="Layer %{number}" zoom="1" data-layer-id="4875904702758" style="fill: rgb(206, 208, 248); fill-opacity: 0.4"/>
          <path fill="#FBD0E1" d="M301.4,97c-0.3-1.1-0.6-2.3-0.9-3.8c-1-5-0.7-6.3-0.3-6.8c0.3-0.3,0.6-0.4,0.8-0.3c0.3,0.1,0.5,0.4,0.5,0.8   c0,0.2,0,0.3,0,0.5c0,0.2-0.1,0.4-0.2,0.5c-0.1,0.2-0.3,1.2,0.6,5.3c0.5,2.4,0.9,4.1,1.3,5.4c0.5,2.1,0.9,3.7,0.7,6   c0,0.2,0,0.3,0,0.5c0.2,2.1,0.4,4.2-0.1,6.3c0.1,0,0.2-0.1,0.2-0.1c1.6-0.7,3.6-1,4.9-0.3c2.7-1.4,6.2-4.4,6.9-5.6   c0.8-1.4,1.1-5.9-0.5-8.6c-1.1-1.8-1.5-3.2-1.8-4.5c-0.3-1.1-0.5-2.2-1.3-3.7c-0.5-1-1.1-1.8-2-2.7c-0.8-0.9-1.7-1.5-2.5-2.1   c-0.7-0.5-1.3-1-1.9-1.5c-0.2-0.2-0.3-0.2-0.5-0.2c-0.6,0.1-1.3,1.1-1.5,1.7c0,0.1,0,0.1-0.1,0.2c-0.1,0.2-0.3,0.3-0.5,0.2   c-0.1,0-0.1,0-0.2-0.1c-0.2-0.1-4.8-2.3-6.3,1.3c-1.1,2.6-1.6,4.7-1.2,7.7C297.8,94.1,299.9,95.3,301.4,97z M311.6,97.7   c0.2-0.2,0.5-0.1,0.7,0.2c0.1,0.2,0.2,0.3,0.3,0.5c0.2,0.3,0.2,0.7,0,0.9c0,0-4.3,3.8-4.7,7.4c0,0.2-0.1,0.3-0.2,0.4   c-0.1,0.1-0.2,0.1-0.4,0c-0.2-0.1-0.2-0.1-0.4-0.2c-0.1,0-0.2-0.1-0.2-0.2c-0.1-0.2-0.2-0.4-0.2-0.6   C307,101.8,311.5,97.9,311.6,97.7z" name="Layer %{number}" zoom="1" data-layer-id="8904605202758" style="fill: rgb(206, 208, 248); fill-opacity: 0.4"/>
          <path fill="#FBD0E1" d="M283.5,130c-1.2-0.7-1.9-2.3-2.1-3.2c-1.6,0.3-6.4,1.2-10.7,1.8c-3.1,0.4-6.1,2.3-7.4,4.6   c-0.5,0.9-0.7,1.8-0.5,2.5c0.7,2.2,1.1,5.8,1.2,7.5c1-0.3,2.9-0.5,4.5,1.2c2.3,2.4,5.9,4.9,8.6,3.3c1.9-1.1,2.5-2.7,3.3-4.7   c0.5-1.2,0.9-2.4,1.7-3.6c1.4-2.4,2.3-6.9,1.8-8.8C283.6,130.1,283.5,130,283.5,130z M277.7,132.5c0,0-1.8,1.8-4.4,4.3   c-0.3,0.3-0.6,0.6-0.9,0.8c-1.1,0.8-2.2,1.3-3.2,1.7c-1.1,0.5-2,0.9-2.7,1.6c-0.1,0.1-0.2,0.1-0.3,0.1c-0.1,0-0.2-0.1-0.3-0.1   c-0.1-0.1-0.2-0.2-0.3-0.3c-0.2-0.2-0.2-0.5,0-0.7c0.9-0.9,1.9-1.3,3-1.9c1.2-0.5,2.5-1.1,3.8-2.3c2.6-2.4,4.3-4.2,4.4-4.3   c0.1-0.1,0.2-0.1,0.3-0.1c0.1,0,0.2,0.1,0.3,0.2c0.1,0.1,0.2,0.2,0.3,0.3C277.8,132,277.8,132.3,277.7,132.5z" name="Layer %{number}" zoom="1" data-layer-id="4966425202758" style="fill: rgb(206, 208, 248); fill-opacity: 0.4"/>
          <path fill="#D3E3AD" d="M326.2,225.6c4.5-1.5,6.3,6.6,6.8,11.6c0.3,4,0.1,8.7-1,13c0-2.3-0.4-4.5-0.7-6.5c-0.8-5.2-2-9.8-5-12.8   c-0.7-0.7-1.7,1-0.9,1.8c2.4,2.5,3.7,6.3,4.3,10.7c0.3,2.4,1,5.5,0.8,8.4c-0.8-3.2-2.3-5.1-4.5-7   C321.3,240.6,317.5,228.6,326.2,225.6z" name="Layer %{number}" zoom="1" data-layer-id="7724385802758" style="fill: rgb(251, 255, 244); fill-opacity: 0.4"/>
          <path fill="#D3E3AD" d="M317.6,151.3c0.7-0.6,1.6-0.8,2.8-0.9c1.1-0.1,2.4,0.4,3.2,1c2.8,1.9,6.9,7.4,9.1,12.1    c0.2,0.5,0.6,0.6,0.9,0.4c0.3-0.3,0.4-1.1,0.2-1.6c-1.7-3.8-4.6-7.7-5.8-9.2c-3.3-3.8-5.5-4.7-6.3-5c-1.2-0.5-2.3-0.6-3.3-0.3    c0.7-1.3,1.7-2.1,3.1-2.5c2.8-0.9,6.8,0.5,9.5,3.5c1.9,2.1,3.4,5.3,4.2,9.4c0.2,1.2,0.4,2.5,0.6,3.7c0.4,2.6,0.8,5.3,1.3,8    c-3.1-2-6.5-2.5-9.8-2.9c-1-0.1-2-0.3-2.9-0.4c-2.7-0.5-4.4-1.9-5.3-4.7C318.1,158.8,317.7,154.3,317.6,151.3z" name="Layer %{number}" zoom="1" data-layer-id="9869881102758" style="fill: rgb(251, 255, 244); fill-opacity: 0.4"/>
          <path fill="#D3E3AD" d="M344.5,206.5c-0.5,0.1-0.7,0.2-1.2,0.3c-4.1,0.9-7.4-0.1-10.7-2.9c-2.4-2.1-3.9-5.7-5.4-9.1    c-0.2-0.4-0.3-0.6-0.4-1c-0.2-0.4-0.4-0.9-0.6-1.4c-0.7-1.6-1.5-3.4-2.6-4.6c1.9-0.2,3.9,1.4,5,2.5c0.4,0.4,0.7,0.9,1.1,1.3    c0.1,0.2,0.2,0.2,0.3,0.4c0.2,0.3,0.4,0.5,0.5,0.8c0.4,0.7,0.9,1.5,1.3,2.3c1.3,2.3,2.5,4.7,4.3,6.5c2,1.9,4.4,2.3,6.7,2.7    c1.6,0.3,2.6,0.3,3.9,1c0.3,0.1,1-0.1,1.3-0.4c0.2-0.3,0.4-0.4,0.3-0.8c0-0.4-0.2-0.8-0.5-0.9c-1.5-0.8-3.1-1-4.7-1.3    c-2.8-0.5-5.5-0.9-7.4-3.8c-0.8-1.2-1.7-2.8-2.6-4.4c-0.7-1.1-1.3-2.3-2.1-3.4c0,0,0,0,0,0c0-0.1-0.1-0.1-0.1-0.1    c-0.6-0.9-1.1-1.5-1.6-2.1c-0.3-0.4-0.7-0.7-1-0.9c-1-1-1.9-1.6-2.7-2c0,0,0.1,0,0.1-0.1c0.4-0.3,0.8-0.8,1.2-1.2    c0.2-0.3,0.5-0.5,0.7-0.8c0.7-0.7,1.7-0.9,2.8-1.2c3.6-0.8,6.3,2.1,8.8,5.7c1.7,2.4,3.2,5.2,4.7,7.9c0.6,1.1,1.2,2.2,1.7,3.3    c1.2,2.2,2.5,4.7,4.1,6.6C348,205.6,346.2,206.1,344.5,206.5z" name="Layer %{number}" zoom="1" data-layer-id="8881145302758" style="fill: rgb(251, 255, 244); fill-opacity: 0.4"/>
          <path fill="#D3E3AD" d="M301.5,209.4c1-0.3,1.9-0.3,2.8-0.2c1.1,0.1,2.2,0.5,3.1,1.2c-1.7,0.4-3.3,1.3-4.8,2.8    c-0.8,0.8-3.3,3.4-6.5,9.5c0,0.1-3.6,6.7-5.6,12.8c-0.2,0.6,0.1,1.2,0.5,1.4c0.4,0.2,0.8-0.1,0.9-0.6c2.1-6.1,6.1-14.4,9.2-18.4    c0.8-1.1,2.4-2.6,4-3.3c1.7-0.7,3-1.2,4.4-1c1.2,3.7,2.3,9.8,1.7,14.5c-0.5,4.2-2.7,7-6.6,8.8c-1.3,0.6-2.7,1.2-4.1,1.7    c-4.8,1.9-9.7,3.6-14,6.7c0.6-3.2,0.7-6.5,0.7-9.6c0-1.4,0-2.8,0-4.2c0.1-4.7,0.9-8.7,2.8-12.1    C292.7,214.7,297.3,210.5,301.5,209.4z" name="Layer %{number}" zoom="1" data-layer-id="8754787402758" style="fill: rgb(251, 255, 244); fill-opacity: 0.4"/>
          <path fill="#D3E3AD" d="M279.9,158.1c1,0.4,2,0.7,3,0.9c0,0-0.1,0.1-0.1,0.1c-0.4,0.3-0.4,0.9-0.1,1.3c3.8,5.2,8.5,10.2,14.5,15.7    c2.4,2.2,4.9,4.2,7.8,6.2c0.5,0.3,0.7,0.5,1.1,0.8c2.1,1.4,4.2,2.9,6.1,4.8c-1.1-0.3-2.2-0.6-3.2-0.8c-6.7-1.6-13.7-3.2-19.2-8.2    c-4-3.6-5.6-9.1-7.4-14.4C281.8,162.3,280.9,160.1,279.9,158.1z M306.8,181.1c-2.6-1.8-5.4-3.6-7.8-5.8c-6-5.3-11-10.6-15-16    c0,0,0,0-0.1-0.1c0.8,0.1,1.7,0.2,2.5,0.3c4.7,0.5,9.2,3.3,13.3,6.4c4.1,3.2,7.6,7,10.2,11.1c1.3,2.1,2.3,4.4,3.1,7.5    c0.1,0.6,0.3,1.1,0.4,1.7C311.3,184.2,309,182.6,306.8,181.1z" name="Layer %{number}" zoom="1" data-layer-id="0351221302758" style="fill: rgb(251, 255, 244); fill-opacity: 0.4"/>
          <path fill="#6C8092" d="M298.4,123.2c-0.1,0.2-0.4,0.3-0.6,0.5c-0.1,0.1-0.3,0.2-0.5,0.3c0-0.1,0-0.2,0-0.4c0.5,0,1.1-0.6,1.6-1.6    c0,0.1,0.1,0.2,0.1,0.2c0.1,0.1,0.2,0.2,0.2,0.3C299,122.8,298.6,123,298.4,123.2z" name="Layer %{number}" zoom="1" data-layer-id="8938819902758" style="fill: rgb(108, 128, 146); fill-opacity: 0.4"/>
          <path fill="#6C8092" d="M276.8,106.1c0.2,0.2,0.4,0.4,0.6,0.5c-1.1-2.6-0.7-6.2,0.2-9c0.7-2.4-0.3-4.5-1.1-5.6    c1.5-0.7,4.6-2.3,6.3-3.8c0.5-0.5,1.4-0.5,2.5-0.1c2,0.7,4.3,2.8,5.9,5.5c0,0,0.1,0,0.1,0c0.5,0,1,0.1,1.6,0.2    c-2.1-3.9-5.2-6.5-7.4-7.3c-1.5-0.6-2.8-0.4-3.6,0.3c-2.1,1.9-6.7,4-6.8,4.1c-0.1,0.1-0.2,0.1-0.3,0.1c-0.1,0.1-0.2,0.2-0.2,0.4    c0,0.2,0.1,0.4,0.2,0.5c0.1,0.1,0.2,0.2,0.3,0.3c0.1,0.1,2.1,2.1,1.3,4.6c-1.2,3.8-1.1,6.6-0.6,8.6    C276.1,105.7,276.5,105.8,276.8,106.1z" name="Layer %{number}" zoom="1" data-layer-id="5919162402758" style="fill: rgb(108, 128, 146); fill-opacity: 0.4"/>
          <path fill="#6C8092" d="M326.1,118c-0.5-0.9-1.2-1.9-1.8-3c-2.5-4.1-5.4-6.4-8.2-6.7c-0.1,0-0.3,0-0.4,0c0.2-0.2,0.3-0.4,0.4-0.5    c1.2-2,1.4-7.5-0.7-10.9c-0.9-1.4-1.1-2.4-1.4-3.6c-0.3-1.1-0.6-2.5-1.5-4.3c-1.4-2.8-3.5-4.4-5.1-5.6c-0.6-0.5-1.2-0.9-1.7-1.3    c-0.5-0.5-1-0.7-1.6-0.6c-1,0.1-1.7,1.2-2.1,1.9c-1.5-0.6-5.7-1.8-7.3,2.1c-1.2,2.9-1.7,5.2-1.3,8.6c0.5,0.2,1,0.4,1.4,0.6    c-0.5-3.3,0-5.4,1.1-8.2c1.5-3.6,6.1-1.4,6.3-1.3c0.1,0,0.1,0,0.2,0.1c0.2,0.1,0.4,0,0.5-0.2c0-0.1,0-0.1,0.1-0.2    c0.3-0.6,0.9-1.6,1.5-1.7c0.2,0,0.3,0,0.5,0.2c0.5,0.5,1.2,1,1.9,1.5c0.8,0.6,1.7,1.3,2.5,2.1c0.8,0.9,1.5,1.7,2,2.7    c0.8,1.5,1,2.6,1.3,3.7c0.3,1.3,0.6,2.7,1.8,4.5c1.6,2.6,1.3,7.2,0.5,8.6c-0.8,1.3-4.8,4.7-7.5,5.9c0.5,0.4,0.9,0.9,1.2,1.4    c0.1,0,0.1,0,0.2-0.1c-0.1,0.1-0.1,0.2-0.2,0.2c0.1,0.1,0.1,0.3,0.2,0.4c0.3,0.7,0.3,1.4,0.2,2c0.5-0.8,1.2-1.7,1.9-3    c1.3-2.2,3.2-3.4,5.3-3.1c2.4,0.3,4.9,2.3,7.1,5.9c0.7,1.1,1.3,2.1,1.8,3c3.4,5.5,4.3,7.4,3.3,11.5c-0.1,0.4-0.1,0.6-0.2,0.9    c-1.2,5-2.4,9.2-5.5,8.6c-0.7-0.2-1.5-0.2-2.2-0.3c-2.3-0.3-4.2-0.5-6.4-2.7c-0.9-1.5-2-3.2-3.1-4.9c0.1,0.8,0,1.7-0.1,2.5    c1,1.4,1.9,2.9,2.3,3.6c0.7,1.2,1.2,2.3,1.4,2.9c0.8,2.6,1,5.1,0.5,5.7c-0.2,0.2-0.7,0.1-1.4-0.5c-3.2-2.4-3.7-2.4-5.5-0.4    c-0.1,0.2-0.2,0.2-0.3,0.4c-0.4,0.4-0.7,0.8-0.9,1.1c-1,1.3-1.5,2-4.1,0.9c-0.7-0.3-1.4-0.6-2.2-0.8c-0.2,0.6-0.7,1.1-1.2,1.3    c0.2,0.1,0.5,0.2,0.7,0.3c0.7,0.3,1.5,0.5,2.3,0.9c3.3,1.4,4.2,0.3,5.4-1.2c0.3-0.3,0.5-0.7,0.8-1c0.1-0.2,0.2-0.2,0.3-0.4    c1.3-1.5,1.3-1.5,4,0.6c1.3,1,2.2,1.1,2.9,0.4c1.1-1.3,0.6-4.8-0.2-7.7c0-0.1-0.1-0.2-0.1-0.3c1.7,1,3.3,1.2,4.8,1.4    c0.7,0.1,1.4,0.2,2.1,0.3c4,0.9,5.6-4.6,6.7-9.5c0.1-0.4,0.1-0.6,0.2-0.9C331,126.3,329.6,123.7,326.1,118z" name="Layer %{number}" zoom="1" data-layer-id="8791276602758" style="fill: rgb(108, 128, 146); fill-opacity: 0.4"/>
          <path fill="#6C8092" d="M300.1,87.2c-0.2-0.1-0.6,0-0.8,0.3c-0.4,0.5-0.7,1.8,0.3,6.8c0.5,2.5,1,4.2,1.3,5.6    c0.4,1.4,0.6,2.4,0.7,3.5c0.4,1.3,0.7,2.6,0.9,3.9c0.2,0,0.3-0.1,0.3-0.3c0.5-3,0-4.8-0.6-7.2c-0.4-1.4-0.8-3-1.3-5.4    c-0.8-4.2-0.6-5.2-0.6-5.3c0.1-0.1,0.2-0.2,0.2-0.5c0-0.2,0-0.3,0-0.5C300.6,87.6,300.4,87.3,300.1,87.2z" name="Layer %{number}" zoom="1" data-layer-id="6165186802758" style="fill: rgb(108, 128, 146); fill-opacity: 0.4"/>
          <path fill="#6C8092" d="M305.8,107.8c0.1,0.1,0.1,0.1,0.2,0.2c0.2,0.1,0.2,0.1,0.4,0.2c0.1,0.1,0.3,0,0.4,0    c0.1-0.1,0.2-0.2,0.2-0.4c0.4-3.6,4.6-7.4,4.7-7.4c0.2-0.2,0.2-0.6,0-0.9c-0.1-0.2-0.2-0.3-0.3-0.5c-0.2-0.3-0.5-0.4-0.7-0.2    c-0.2,0.2-4.6,4.1-5.1,8.4C305.6,107.4,305.7,107.7,305.8,107.8z" name="Layer %{number}" zoom="1" data-layer-id="1369617502758" style="fill: rgb(108, 128, 146); fill-opacity: 0.4"/>
          <path fill="#6C8092" d="M316.9,117.8c0.1,0.1,0.3,0.1,0.4,0c0.1-0.1,0.2-0.2,0.2-0.4c0-0.2,0-0.3,0.1-0.5c0.1-0.3-0.1-0.7-0.4-0.8    c-3.9-2-9.4,2.6-9.6,2.8c-0.2,0.2-0.2,0.5-0.1,0.8c0.1,0.2,0.1,0.3,0.2,0.5c0,0,0,0.1,0.1,0.1c0.1,0.1,0.2,0.2,0.2,0.2    c0.1,0,0.2,0,0.3-0.1C308.5,120.3,313.7,116.1,316.9,117.8z" name="Layer %{number}" zoom="1" data-layer-id="2283943602758" style="fill: rgb(108, 128, 146); fill-opacity: 0.4"/>
          <path fill="#6C8092" d="M324.2,133.6c0.2-0.1,0.3-0.5,0.2-0.9c-0.1-0.2-1.7-4.2-7.5-5.6c-4.8-1.2-5.5-3.6-5.5-3.6    c-0.1-0.3-0.3-0.6-0.6-0.5c-0.2,0-0.2,0-0.4,0.1c-0.2,0.1-0.4,0.4-0.3,0.7c0,0.1,0.2,0.8,0.8,1.6c0.8,1.1,2.5,2.7,6,3.5    c4.9,1.2,6.4,4.5,6.4,4.6c0.1,0.2,0.2,0.3,0.3,0.4c0.1,0.1,0.2,0.1,0.4,0C324,133.7,324,133.7,324.2,133.6z" name="Layer %{number}" zoom="1" data-layer-id="7464935502758" style="fill: rgb(108, 128, 146); fill-opacity: 0.4"/>
          <path fill="#6C8092" d="M330.1,254.3c0.1,1.3,1.4,0.5,1.5-0.7c0.3,0,0.6-0.1,0.8-0.6c4.1-9.3,3.8-32.1-5.1-31.5    c-1.6,0.1-2.9,0.8-4,1.8c-0.3,0.3-4.4-8.1-3.9-2.2c0,0.2,2.8,3.5,2.7,3.7c-1.8,2.8-2.5,6.8-1.8,10.7c0.6,3.6,2.5,6.4,4.6,8.5    C327.7,246.7,329.7,248.4,330.1,254.3z M326.7,223.5c4.5-1.5,6.3,6.6,6.8,11.6c0.3,4,0.1,8.7-1,13c0-2.3-0.4-4.5-0.7-6.5    c-0.8-5.2-2-9.8-5-12.8c-0.7-0.7-1.7,1-0.9,1.8c2.4,2.5,3.7,6.3,4.3,10.7c0.3,2.4,1,5.5,0.8,8.4c-0.8-3.2-2.3-5.1-4.5-7    C321.8,238.5,318,226.5,326.7,223.5z" name="Layer %{number}" zoom="1" data-layer-id="5496187702758" style="fill: rgb(108, 128, 146); fill-opacity: 0.4"/>
          <path fill="#6C8092" d="M322.7,166c1.8,0.7,3.7,0.9,5.5,1.2c0.8,0.1,1.5,0.2,2.3,0.4c2.5,0.5,5.2,1.3,7.6,3.1     c0.1,0.1,0.4,0.3,0.7,0.2c0.1,0,0.2-0.1,0.3-0.1c0.1,0,0.1,0.1,0.1,0.1c0-0.1,0-0.1,0-0.2c0.1-0.1,0.3-0.5,0.2-1.2     c-0.7-2.8-1.3-5.9-1.8-9.4c0-0.3-0.1-0.4-0.1-0.7c-0.3-2-0.6-4.2-1.2-6.2c-1.2-4.2-3.1-7.5-5.4-9.4c-2.8-2.2-6.9-3.9-10.2-2.4     c-1.9,0.9-3.2,2.6-4,5.1c0,0.1,0,0.2,0,0.2c-0.1,0.1-0.2,0.2-0.4,0.3c-0.8,0.8-1.6,1.7-2.5,2.7c-0.1,0.1-0.1,0.1-0.2,0.2     c0,0.2,0,0.2,0.1,0.4c0,0.2,0.1,0.4,0.1,0.6c0.1,0.9,0.2,1.4,0.2,2.3c0.3-0.3,0.4-0.5,0.7-0.8c0.7-0.7,1.3-1.4,1.9-2     C317,157,318.4,164.4,322.7,166z M318.1,149.3c0.7-0.6,1.6-0.8,2.8-0.9c1.1-0.1,2.4,0.4,3.2,1c2.8,1.9,6.9,7.4,9.1,12.1     c0.2,0.5,0.6,0.6,0.9,0.4c0.3-0.3,0.4-1.1,0.2-1.6c-1.7-3.8-4.6-7.7-5.8-9.2c-3.3-3.8-5.5-4.7-6.3-5c-1.2-0.5-2.3-0.6-3.3-0.3     c0.7-1.3,1.7-2.1,3.1-2.5c2.8-0.9,6.8,0.5,9.5,3.5c1.9,2.1,3.4,5.3,4.2,9.4c0.2,1.2,0.4,2.5,0.6,3.7c0.4,2.6,0.8,5.3,1.3,8     c-3.1-2-6.5-2.5-9.8-2.9c-1-0.1-2-0.3-2.9-0.4c-2.7-0.5-4.4-1.9-5.3-4.7C318.6,156.7,318.2,152.2,318.1,149.3z" name="Layer %{number}" zoom="1" data-layer-id="9804031602758" style="fill: rgb(108, 128, 146); fill-opacity: 0.4"/>
          <path fill="#6C8092" d="M353.9,203L353.9,203c-3.2-1-5.2-5.4-7.3-9.5c-0.4-0.7-0.5-1-0.9-1.7c-2.1-3.8-4.3-7.6-6.8-10.8     c-2.7-3.3-5.1-4.3-8.1-3.7c-1.4,0.3-2.8,0.6-3.9,2c-1.5,1.8-2.8,2.6-5.2,3.6c-0.6,0.3-1.2,0.8-1.8,1.5c-0.1,0.1-0.2,0.2-0.3,0.4     c0.1,0.2,0.1,0.3,0.2,0.5c0.1,0.2,0.2,0.5,0.3,0.7c0.1,0.2,0.1,0.3,0.2,0.5c0.1,0.2,0.1,0.4,0.2,0.7c0.1,0.4,0.2,0.6,0.3,1     c0.2-0.3,0.3-0.4,0.6-0.7c0.3-0.4,0.6-0.7,0.9-1c0.8,0.3,1.9,1.9,3.1,4.5c0.7,1.6,1.4,3.3,2.2,4.9c1.9,4.1,3.6,6.8,5.7,8.5     c2.2,1.8,4.4,2.8,6.6,3.1c0.7,0.1,1.4,0.1,2.2,0c1.5-0.2,3-0.5,4.5-0.8c2.3-0.5,4.7-1.1,7.1-1.1c0,0,0.1,0,0.1,0     c0.4,0.1,0.9-0.4,1-1.1C354.6,203.8,354.4,203.2,353.9,203z M345,204.4c-0.5,0.1-0.7,0.2-1.2,0.3c-4.1,0.9-7.4-0.1-10.7-2.9     c-2.4-2.1-3.9-5.7-5.4-9.1c-0.2-0.4-0.3-0.6-0.4-1c-0.2-0.4-0.4-0.9-0.6-1.4c-0.7-1.6-1.5-3.4-2.6-4.6c1.9-0.2,3.9,1.4,5,2.5     c0.4,0.4,0.7,0.9,1.1,1.3c0.1,0.2,0.2,0.2,0.3,0.4c0.2,0.3,0.4,0.5,0.5,0.8c0.4,0.7,0.9,1.5,1.3,2.3c1.3,2.3,2.5,4.7,4.3,6.5     c2,1.9,4.4,2.3,6.7,2.7c1.6,0.3,2.6,0.3,3.9,1c0.3,0.1,1-0.1,1.3-0.4c0.2-0.3,0.4-0.4,0.3-0.8c0-0.4-0.2-0.8-0.5-0.9     c-1.5-0.8-3.1-1-4.7-1.3c-2.8-0.5-5.5-0.9-7.4-3.8c-0.8-1.2-1.7-2.8-2.6-4.4c-0.7-1.1-1.3-2.3-2.1-3.4c0,0,0,0,0,0     c0-0.1-0.1-0.1-0.1-0.1c-0.6-0.9-1.1-1.5-1.6-2.1c-0.3-0.4-0.7-0.7-1-0.9c-1-1-1.9-1.6-2.7-2c0,0,0.1,0,0.1-0.1     c0.4-0.3,0.8-0.8,1.2-1.2c0.2-0.3,0.5-0.5,0.7-0.8c0.7-0.7,1.7-0.9,2.8-1.2c3.6-0.8,6.3,2.1,8.8,5.7c1.7,2.4,3.2,5.2,4.7,7.9     c0.6,1.1,1.2,2.2,1.7,3.3c1.2,2.2,2.5,4.7,4.1,6.6C348.5,203.6,346.7,204,345,204.4z" name="Layer %{number}" zoom="1" data-layer-id="8923050602758" style="fill: rgb(108, 128, 146); fill-opacity: 0.4"/>
          <path fill="#6C8092" d="M316.7,213.7c-0.1-0.5-0.2-0.8-0.3-1.3c0,0,0-0.1,0-0.1c0,0,0,0,0,0c-0.1-0.8-0.2-1.3-0.4-2.1     c-0.1-0.2-0.1-0.3-0.2-0.4c-0.1,0-0.2-0.1-0.3-0.1c-1.4-0.5-2.9-1.1-4.4-1.4c-0.2,0-0.5-0.1-0.7-0.1c0-0.1-0.1-0.2-0.2-0.3     c-2.1-2.4-4.7-3.3-7.5-2.8c-5,0.9-9.6,5.5-12.4,9.4c-2.4,3.3-3.7,7.5-4.1,12.3c-0.2,2.3-0.1,4.6-0.1,6.8c0,0.3,0,0.5,0,0.8     c0,3.9-0.4,7.5-1.2,10.7c-0.1,0.6,0.2,0.9,0.3,0.9c0.1,0,0.1,0.1,0.2,0.1c0.5,0.2,1-0.2,1.2-0.3c3.4-2.6,7.2-4.3,10.8-5.7     c1.1-0.4,2.2-0.8,3.3-1.2c2.6-0.9,5.3-2,7.7-3.6c5.9-4,6-15.1,3.6-23.3c1,0.2,2.4,0.7,3.8,1.2     C316.1,213.4,316.3,213.5,316.7,213.7z M302,207.3c1-0.3,1.9-0.3,2.8-0.2c1.1,0.1,2.2,0.5,3.1,1.2c-1.7,0.4-3.3,1.3-4.8,2.8     c-0.8,0.8-3.3,3.4-6.5,9.5c0,0.1-3.6,6.7-5.6,12.8c-0.2,0.6,0.1,1.2,0.5,1.4c0.4,0.2,0.8-0.1,0.9-0.6c2.1-6.1,6.1-14.4,9.2-18.4     c0.8-1.1,2.4-2.6,4-3.3c1.7-0.7,3-1.2,4.4-1c1.2,3.7,2.3,9.8,1.7,14.5c-0.5,4.2-2.7,7-6.6,8.8c-1.3,0.6-2.7,1.2-4.1,1.7     c-4.8,1.9-9.7,3.6-14,6.7c0.6-3.2,0.7-6.5,0.7-9.6c0-1.4,0-2.8,0-4.2c0.1-4.7,0.9-8.7,2.8-12.1     C293.2,212.6,297.8,208.4,302,207.3z" name="Layer %{number}" zoom="1" data-layer-id="1259304802758" style="fill: rgb(108, 128, 146); fill-opacity: 0.4"/>
          <path fill="#6C8092" d="M307.8,189.4c2,0.5,4,1,6,1.7c0.1,0.2,0.2,0.5,0.3,0.7c0,0.1,0.1,0.1,0.1,0.2c0.5,1.2,1,2.4,1.5,4     c0.1,0.2,0.7,1.8,0.7,2c0.3-0.1-0.2-1.7,0.1-1.8c0.1-0.1,0.3-0.1,0.4-0.2c0.3-0.1,0.4-0.1,0.6-0.2c-0.1-0.3-0.2-0.5-0.3-0.8     c-0.5-1.4-1.1-3-2.1-5c-0.1-0.2-0.1-0.2-0.2-0.4c0,0,0,0,0,0c-0.6-1.7-1.1-3.5-1.5-5.3c-0.1-0.5-0.2-0.8-0.4-1.4     c-0.6-2.4-1.6-4.6-3-6.9c-2.5-4-5.7-7.6-10.1-11.1c-4.6-3.6-8.5-5.6-12.4-6.6c-1.1-0.3-2.3-0.4-3.4-0.5c-0.6-0.1-1.3-0.1-1.9-0.2     c-1.9-0.3-3.6-1.1-5.3-2.5c-0.2-0.2-0.5-0.2-0.8-0.1c-0.3,0.1-0.5,0.4-0.5,0.7c0,0.3,0.1,0.6,0.3,0.8c0,0.1,0.1,0.3,0.1,0.4     c1.7,2.6,2.9,5.7,4,8.7c1.8,5.2,3.4,10.6,7.4,14.7c3.6,3.6,8.4,5.6,12.3,6.9C302.5,188,305.2,188.7,307.8,189.4z M278.9,158.3     c1,0.4,2,0.7,3,0.9c0,0-0.1,0.1-0.1,0.1c-0.4,0.3-0.4,0.9-0.1,1.3c3.8,5.2,8.5,10.2,14.5,15.7c2.4,2.2,4.9,4.2,7.8,6.2     c0.5,0.3,0.7,0.5,1.1,0.8c2.1,1.4,4.2,2.9,6.1,4.8c-1.1-0.3-2.2-0.6-3.2-0.8c-6.7-1.6-13.7-3.2-19.2-8.2c-4-3.6-5.6-9.1-7.4-14.4     C280.8,162.6,279.9,160.4,278.9,158.3z M305.8,181.3c-2.6-1.8-5.4-3.6-7.8-5.8c-6-5.3-11-10.6-15-16c0,0,0,0-0.1-0.1     c0.8,0.1,1.7,0.2,2.5,0.3c4.7,0.5,9.2,3.3,13.3,6.4c4.1,3.2,7.6,7,10.2,11.1c1.3,2.1,2.3,4.4,3.1,7.5c0.1,0.6,0.3,1.1,0.4,1.7     C310.3,184.5,308,182.9,305.8,181.3z" name="Layer %{number}" zoom="1" data-layer-id="8319758202758" style="fill: rgb(108, 128, 146); fill-opacity: 0.4"/>
          <path fill="#6C8092" d="M306.1,149.4c-0.6,0.6-1.3,0.8-2.1,0.6c5.8,11.3,13.1,30.7,12,53.4c-1.1,22.2-5.3,45.6-18.5,65.3    c-2,3-4,6-6,9.1c-3.6,5.4-7.6,11.2-11.8,16.6c-4.6,5.9-9.4,11.2-13.1,14.7c0.7,0.2,1.3,0.7,1.8,1.2c3.7-3.6,8.2-8.6,12.8-14.5    c4.2-5.4,8.3-11.3,11.9-16.7c2-3,4.2-6,6-9c12.7-21.8,17.8-41.4,19-66.9C319.2,180.6,312,161,306.1,149.4z" name="Layer %{number}" zoom="1" data-layer-id="0209650602758" style="fill: rgb(108, 128, 146); fill-opacity: 0.4"/>
          <path fill="#6C8092" d="M320.8,189.4c-0.2-3.7-1-7.6-1.4-11.4c-0.9-6.8-2-14.4-3.5-21.6c-0.7-3.6-1.5-7-2.4-10.1    c-0.1,0.1-0.2,0.2-0.4,0.2c-0.6,0.1-1.3-0.1-1.8-0.6c0.9,3.4,1.8,7.2,2.6,11c1.5,7.1,2.6,14.6,3.4,21.4c0.5,3.9,1.2,7.8,1.4,11.5    c1.6,25-2.3,45.1-12,68.5c-7.8,18.8-24.2,37.6-43.3,47.4c0,1.3,0.1,2-1.2,2.4c0,0.2,0,0.5-0.1,0.7c20.9-9.5,38-29,46.4-49.2    C318.5,235.5,322.4,215,320.8,189.4z" name="Layer %{number}" zoom="1" data-layer-id="3157619302758" style="fill: rgb(108, 128, 146); fill-opacity: 0.4"/>
          <path fill="#6C8092" d="M303,106.2c-0.1-0.9-0.2-1.8-0.2-2.7c-0.3-5.3-4.8-7.7-8.6-9.6c-0.3-0.1-0.4-0.2-0.7-0.4    c-4-1.9-5.3-0.3-8.7,3.1c-0.5,0.5-1.1,1.1-1.8,1.8c-2.5,2.4-3.7,5.4-3.7,8.5c0,0.2,0,0.3,0,0.5c-0.2-0.2-0.3-0.4-0.4-0.5    c-1.6-1.8-5.6-3.2-7.9-1.6c-1,0.7-1.6,0.7-2.5,0.7c-0.8,0-1.8,0-3,0.6c-1.9,0.8-3.1,2.6-4,3.9c-0.4,0.5-0.7,1-1,1.3    c-0.4,0.4-0.5,0.9-0.5,1.4c0,1,0.8,2.1,1.2,2.7c-0.5,1.3-1.8,5.1,0.8,8c2.2,2.4,4,3.8,7.2,4.4c-3.8,0.7-6.7,3.1-7.9,5.2    c-0.7,1.3-1,2.5-0.6,3.6c0.9,2.8,1.1,8,1.1,8c0,0.1,0,0.2,0,0.3c0,0.2,0.1,0.3,0.2,0.4c0.1,0.1,0.3,0.1,0.4,0    c0.1-0.1,0.2-0.1,0.3-0.1c0.1,0,2.2-1.2,3.9,0.6c5.4,5.7,9.3,4.1,10.1,3.7c0.1-0.1,0.3-0.2,0.4-0.2c2-1.3,2.8-3.2,3.5-5.1    c0.4-1.1,0.9-2.3,1.6-3.4c1.2-2,2-5.1,2.1-7.6c0,0.1,0.1,0.1,0.1,0.2c-0.1,0.4-0.1,0.8-0.2,1.3c-0.2,1.3-0.4,2.9-1.2,4.6    c-1.8,3.4-3.1,6.5-1.8,13c0.5,2.7,1.2,4.1,2.2,4.6c1.3,0.6,2.8-0.5,4.8-2.2c0.2-0.2,0.3-0.3,0.6-0.5c2.4-2,2.8-3.8,2.8-5    c1,0.2,2.8,0.3,4.9-0.1c0.7-0.1,1.3-0.2,1.9-0.2c0.9-0.1,1.8-0.1,2.5-0.6c0.9-0.6,1.3-1.8,1.4-3.7c0.1-1.3-0.2-2.5-0.6-3.5    c1.1,0,4.3,0.1,6.3-0.6c0.3-0.1,0.6-0.3,0.9-0.5c1.4-1.1,1.9-3.5,2.5-6.4c0.2-1,0.4-1.9,0.6-3c0.9-4.2-0.1-5.7-1.5-7.5    c-0.3-0.4-0.6-0.8-0.9-1.3c-0.1-0.2-0.2-0.3-0.3-0.5c-1.3-1.9-1.3-1.9-0.1-5.4c0.5-1.6,0.4-3-0.3-3.9c-1.2-1.7-3.7-1.3-5.7-0.5    c-0.1,0-0.2,0.1-0.2,0.1C303.4,110.3,303.2,108.2,303,106.2z M308.3,123.1c0.1,0.2,0.2,0.3,0.3,0.5c0.3,0.5,0.7,1,1,1.4    c1.1,1.6,1.7,2.4,1,5.6c-0.2,1-0.4,2-0.6,3.1c-0.6,3-1.1,5.3-2.5,5.8c-1.8,0.6-5.2,0.6-6.1,0.6c-0.9-1-3.8-4.2-6.5-5.6    c0,0,0,0,0,0c-0.3-0.2-0.7-0.4-1-0.6c-1-0.8-1.3-1.5-1.5-2.2c-0.1-0.4-0.3-0.8-0.5-1.2c-0.2-0.3-0.3-1.5-0.3-2.7    c0.1,0.1,0.1,0.2,0.2,0.4c0.1,0.3,0.4,0.4,0.6,0.3c0.1,0,1.9-1,4.5,2.2c3.1,3.6,4.9,4.3,7.8,4.4c0.1,0,0.2,0,0.2-0.1    c0,0,0.1-0.1,0.1-0.1c0.1-0.1,0.1-0.3,0.1-0.4c0-0.2,0-0.3,0-0.5c0-0.3-0.3-0.6-0.5-0.6c-2.6,0-4-0.4-6.9-3.8    c-3.3-3.9-5.7-2.6-6-2.5c-0.1,0-0.1,0.1-0.1,0.1c0-0.4,0-0.9,0-1.3c1.6-1.6,3.6-3.7,5.6-5.8c1.3-1.3,3.7-3.7,4.5-4.5    c0.8-0.8,1.5-1.3,2-1.5c1.8-0.8,3.7-0.8,4.2-0.1c0.2,0.3,0.2,1-0.1,1.9C306.6,119.9,306.6,120.5,308.3,123.1z M290,148.1    c-0.1,0-0.1,0.1-0.1,0.2c-0.1,0.2-0.1,0.4,0,0.6c0.1,0.2,0.1,0.3,0.2,0.4c0,0,0.7,1.8-2.2,4.3c-0.3,0.2-0.4,0.3-0.6,0.5    c-1.5,1.3-2.8,2.3-3.5,2c-0.4-0.2-0.9-0.9-1.4-3.5c-1.2-5.9,0-8.7,1.6-11.9c1-1.9,1.2-3.8,1.4-5.1c0.1-0.6,0.1-1.1,0.2-1.5    c0.1-0.1,0.2-0.3,0.3-0.4c0.4-0.3,1.1-0.3,1.6-0.3c0.2,0.1,0.5,0.2,0.7,0.2c-0.1,0.1-0.2,0.1-0.3,0.2c-0.2,0.2-0.2,0.5-0.1,0.7    c1.7,2.8,2.7,4.6,5.7,5.4c2,0.5,2.4,1.1,3.4,2.8c0.2,0.4,0.5,0.8,0.8,1.3c0.1,0.1,0.2,0.2,0.3,0.2c0.1,0,0.2,0,0.3-0.1    c0,0,0,0,0,0c0.1-0.1,0.2-0.2,0.3-0.3c0.1-0.1,0.2-0.2,0.2-0.4c0-0.2,0-0.3-0.1-0.4c-0.3-0.5-0.5-0.9-0.7-1.2    c-1.1-1.8-1.7-2.8-4.3-3.5c-2.5-0.6-3.2-1.9-4.9-4.7c0,0,0,0,0,0c0.2,0,0.5,0,0.7,0c1,0.2,2.4,0.7,3.8,1.5    c0.3,0.2,0.6,0.4,1.1,0.7c2.5,1.8,6.7,4.9,6.5,9.1c-0.2,2.8-0.9,2.8-2.8,2.9c-0.6,0-1.3,0.1-2.1,0.2c-2.8,0.6-5.2,0-5.3,0    c-0.2,0-0.3-0.1-0.4-0.1C290.2,148,290.1,148,290,148.1z M269.7,129.6c4.2-0.6,9-1.4,10.7-1.8c0.3,1,0.9,2.5,2.1,3.2    c0,0,0.2,0.1,0.3,0.5c0.5,2-0.3,6.4-1.8,8.8c-0.7,1.3-1.2,2.5-1.7,3.6c-0.8,2-1.4,3.6-3.3,4.7c-2.7,1.5-6.3-0.9-8.6-3.3    c-1.6-1.7-3.5-1.5-4.5-1.2c-0.1-1.7-0.4-5.3-1.2-7.5c-0.2-0.7-0.1-1.6,0.5-2.5C263.6,132,266.6,130.1,269.7,129.6z M262.3,115.4    c-0.4-0.4-1.1-1.4-1.1-2.1c0-0.2,0-0.3,0.2-0.4c0.4-0.4,0.8-0.9,1.2-1.5c0.5-0.7,1-1.4,1.6-2.1c0.6-0.7,1.2-1.1,1.9-1.4    c1.1-0.5,1.8-0.5,2.6-0.5c0.9,0,1.9,0,3.1-0.9c1.8-1.2,5.2,0.1,6.2,1.3c1.2,1.4,5,8.9,5,11.8c0.1,2.8-0.9,4.1-0.9,4.1    c-0.4,0.4-0.6,0.6-1.1,1c0,0-4,2.3-8.8,2.3c-5,0-6.8-1.2-9.5-4.1c-2.4-2.6-0.4-6.6-0.4-6.8c0-0.1,0-0.1,0.1-0.1    c0.1-0.2,0.1-0.4-0.1-0.6C262.4,115.5,262.4,115.4,262.3,115.4z M291.2,132.1c0.1,0.2,0.1,0.4,0.2,0.7c-0.1,0-0.2-0.1-0.3-0.1    c0-0.6-0.4-1.5-1.2-2.4c0.1,0,0.1,0,0.2-0.1c0.1-0.1,0.2-0.1,0.3-0.2c0.1,0.5,0.2,0.9,0.4,1.2C291,131.5,291.1,131.8,291.2,132.1z     M288.3,132c-0.1,0-0.3,0-0.5-0.1c0,0-0.1-0.1-0.1-0.1c-0.2-0.8-0.5-1.8-0.7-2.4c0.1-0.1,0.1-0.1,0.2-0.1c0.4,0.3,0.4,0.4,0.7,0.7    c0.2,0.2,0.4,0.5,0.8,0.9c0.6,0.6,0.9,1.1,1,1.4c0,0-0.1,0-0.1,0c0,0,0,0,0,0C289,132.1,288.5,132,288.3,132z M281.6,126.3    C281.6,126.3,281.6,126.3,281.6,126.3c0.2-0.2,0.7-0.4,1.2-0.5c0.1,0,0.2-0.1,0.3-0.1c0.5,0.9,0.8,1.8,0.4,2.1    c-0.2,0.2-0.5,0.4-0.5,0.4c-0.1-0.1-0.4-0.5-0.8-0.9c-0.1-0.2-0.2-0.3-0.4-0.5C281.7,126.5,281.7,126.3,281.6,126.3z M286.7,125.8    C286.7,125.8,286.7,125.8,286.7,125.8C286.7,125.8,286.7,125.8,286.7,125.8c0.1,0.1,0.1,0.1,0.2,0.2c0.3,0.5,0.3,1.2-0.1,1.6    c-0.3,0.3-0.7,0.3-1,0c-0.1-0.2-0.3-0.3-0.4-0.4c-0.3-0.5-0.3-1.2,0.1-1.5C285.8,125.3,286.3,125.4,286.7,125.8z M288.4,127.6    c0-0.1,0-0.3,0.2-0.5c0.1,0.1,0.2,0.1,0.3,0.3c0.2,0.2,0.7-0.2,1,0c0.2,0.2,0.1,1,0.2,1.1c0,0.1,0,0.7-0.1,0.8    c-0.2-0.1-0.8-0.8-1.3-1.2C288.5,127.9,288.4,127.7,288.4,127.6z M290.6,124.3c-0.5,0.8-0.6,1.1-1.2,1.1c-0.5,0.1-1-0.1-1.4-0.4    c0.1-0.1,0.1-0.2,0.2-0.4c0.2-0.3,0.3-0.6,0.4-0.9c0.1,0,0.6-0.1,0.6-0.1c0.6,0,1.2-0.1,1.8-0.2    C290.9,123.8,290.8,124.1,290.6,124.3z M286.3,120.2c0,0.1,0,0.2,0,0.4c0,0.8,0,1.3,0.1,1.7c0,0.6,0,0.6-0.5,1.3    c-0.1,0.2-0.3,0.2-0.3,0.2c-0.1,0-0.4-0.4-0.5-0.7c-0.1-0.2-0.1-0.3-0.1-0.5c-0.3-1.1-0.5-1.9-0.5-2.2c0.4,0,0.8-0.1,1.2-0.1    c0.2,0,0.5-0.1,0.6-0.2C286.2,120.1,286.2,120.2,286.3,120.2z M284.4,124.6c-0.1,0.1-0.1,0.2-0.2,0.3c-0.1-0.2-0.5-0.4-0.5-0.4    c0-0.1-0.4-0.4-0.4-0.4c0.1-0.1-0.2-1.3,0.5-1.4C284.4,122.5,284.7,124.1,284.4,124.6z M292.8,122.3c-0.3-0.4-0.6-0.5-1.1-0.5    c0.4-0.2,1-0.3,1.6-0.5c0.2,0,0.3-0.1,0.5-0.1C293.5,121.6,293.1,121.9,292.8,122.3z M284.8,132c-0.2-0.5-0.4-0.9-0.7-1.2    c0.1-0.2,0.2-0.5,0.3-0.6c0.2-0.3,0.4-0.7,0.6-1.1c0.2,0.3,0.4,0.6,0.6,1.1c0.2,0.6,0.1,0.7-0.2,1.3c-0.1,0.3-0.3,0.6-0.5,1    C284.9,132.3,284.9,132.2,284.8,132z M285.2,118.7C285.2,118.7,285.1,118.7,285.2,118.7c-0.4,0.1-0.7,0.2-1,0.1c0,0,0,0,0,0    c-0.1-0.7-0.3-1.4-0.5-2.2C284.3,117.4,284.8,118.1,285.2,118.7z M296.5,118.4c-1.3,0.7-2.6,1-3.6,1.3c-1,0.2-1.8,0.4-2.4,0.9    c-0.7,0.6-1.2,1-1.6,1.3c-0.4-0.6-0.6-1-1.1-1.6c0-0.1-0.2-0.3-0.5-0.8c-0.1-0.3-0.2-0.5-0.4-0.7c0,0,0,0-0.1,0    c-0.7-1-1.8-2.6-3.7-4.9c-1.7-2.1-2.7-4.5-2.7-6.9c0-2.7,1.1-5.3,3.3-7.4c0.7-0.6,1.3-1.2,1.8-1.8c3.3-3.3,4.3-4.5,7.5-2.9    c0.3,0.1,0.4,0.2,0.7,0.4c3.9,1.9,7.3,3.8,7.6,7.8c0.1,1,0.2,1.9,0.3,2.8c0.3,3,0.5,5.6-0.9,8.1    C299.5,115.3,298,116.9,296.5,118.4z" name="Layer %{number}" zoom="1" data-layer-id="9957154802758" style="fill: rgb(108, 128, 146); fill-opacity: 0.4"/>
          <path fill="#6C8092" d="M264.6,140.9c-0.2,0.2-0.2,0.5,0,0.7c0.1,0.1,0.2,0.2,0.3,0.3c0.1,0.1,0.2,0.1,0.3,0.1    c0.1,0,0.2,0,0.3-0.1c0.7-0.7,1.6-1.1,2.7-1.6c1-0.4,2.1-0.9,3.2-1.7c0.3-0.2,0.6-0.5,0.9-0.8c2.7-2.5,4.4-4.3,4.4-4.3    c0.2-0.2,0.2-0.5,0-0.7c-0.1-0.1-0.2-0.2-0.3-0.3c-0.1-0.1-0.2-0.2-0.3-0.2c-0.1,0-0.2,0-0.3,0.1c0,0-1.8,1.8-4.4,4.3    c-1.3,1.2-2.6,1.8-3.8,2.3C266.5,139.6,265.5,140,264.6,140.9z" name="Layer %{number}" zoom="1" data-layer-id="4452735602758" style="fill: rgb(108, 128, 146); fill-opacity: 0.4"/>
          <path fill="#6C8092" d="M264.7,118.9c-0.1-0.1-0.2-0.1-0.3-0.1c-0.2-0.1-0.5,0-0.6,0.3c-0.1,0.2-0.1,0.6,0.1,1    c0.3,0.6,1.2,1.3,5,1.7c1.9,0.2,3.2,0.2,4.2,0.2c1.8,0,2.8,0,4.8,1.2c0.1,0.1,0.2,0.1,0.4,0c0.1,0,0.1,0,0.1-0.1    c0,0,0.1-0.1,0.1-0.2c0.1-0.2,0.1-0.2,0.2-0.4c0.1-0.3,0-0.6-0.2-0.7c-2.3-1.4-3.6-1.3-5.4-1.3c-1,0-2.3,0-4.1-0.2    c-3.1-0.3-3.8-0.9-4-1C265,119.1,264.9,119,264.7,118.9z" name="Layer %{number}" zoom="1" data-layer-id="6258204602758" style="fill: rgb(108, 128, 146); fill-opacity: 0.4"/>
          <path fill="#6C8092" d="M279.3,118.7c0.1-0.1,0.1-0.1,0.1-0.2c0.1-0.2,0.1-0.2,0.1-0.4c0-0.1,0-0.3,0-0.4    c-0.1-0.1-0.2-0.2-0.3-0.3c-2.7-1.4-5.5-7-5.6-7.1c-0.1-0.3-0.4-0.4-0.6-0.2c-0.1,0.1-0.2,0.1-0.3,0.2c-0.2,0.1-0.3,0.4-0.2,0.7    c0.1,0.3,3.1,6.2,6.3,7.8C279,118.8,279.2,118.8,279.3,118.7z" name="Layer %{number}" zoom="1" data-layer-id="0894756302758" style="fill: rgb(108, 128, 146); fill-opacity: 0.4"/>
          <path fill="#6C8092" d="M286.1,107.7c0-0.1,0-0.3,0-0.4c-0.1-0.1-0.2-0.2-0.3-0.3c-0.2-0.1-0.2-0.1-0.4-0.2    c-0.3-0.1-0.5,0-0.6,0.3c-1,4.3,2.6,11.7,2.8,12.1c0.1,0.3,0.4,0.4,0.6,0.3c0.1-0.1,0.2-0.1,0.3-0.2c0,0,0.1,0,0.1-0.1    c0.1-0.1,0.1-0.2,0.1-0.3c0-0.1,0-0.3-0.1-0.4C288.6,118.4,285.2,111.3,286.1,107.7z" name="Layer %{number}" zoom="1" data-layer-id="9805577702758" style="fill: rgb(108, 128, 146); fill-opacity: 0.4"/>
          <path fill="#6C8092" d="M296.4,100.9c-0.1-0.3-0.4-0.4-0.7-0.3c-0.1,0.1-2.5,1.8-2.8,8.8c-0.2,5.8-2.1,6.2-2.1,6.2    c-0.2,0-0.4,0.3-0.3,0.6c0,0.2,0.1,0.3,0.1,0.5c0.1,0.3,0.3,0.5,0.6,0.5c0.1,0,0.6-0.1,1.2-0.7c0.8-0.8,1.9-2.6,2-6.9    c0.2-6.1,2.2-7.6,2.2-7.6c0.1-0.1,0.2-0.2,0.2-0.3c0-0.1,0-0.3-0.1-0.5C296.6,101.2,296.5,101.1,296.4,100.9z" name="Layer %{number}" zoom="1" data-layer-id="6389384102758" style="fill: rgb(108, 128, 146); fill-opacity: 0.4"/>
          <path fill="#6C8092" d="M303.5,118.1c-0.1,0-0.1,0.1-0.2,0.1c0,0,0,0,0,0c-0.2,0-0.3,0.2-0.4,0.4c0,0.1-0.5,1.1-3.5,3    c-3.7,2.3-4.7,2.1-4.7,2.1c-0.2-0.1-0.5,0.1-0.5,0.3c0,0.2-0.1,0.3-0.1,0.5c-0.1,0.3,0.1,0.6,0.3,0.7c0.4,0.2,1.7,0.4,5.7-2.1    c1.3-0.8,2.3-1.5,3-2.2c0.7-0.7,1-1.2,1.1-1.7c0-0.3,0-0.6-0.1-0.8c-0.1-0.1-0.2-0.3-0.3-0.3C303.7,118,303.6,118,303.5,118.1z" name="Layer %{number}" zoom="1" data-layer-id="8897468402758" style="fill: rgb(108, 128, 146); fill-opacity: 0.4"/>
          <path fill="#6C8092" d="M286.6,138c-0.1-0.1-0.2-0.2-0.3-0.3c-0.1-0.1-0.2-0.1-0.3-0.1c-0.1,0-0.2,0.1-0.3,0.2    c-2.5,4.1-1.9,8.8-1.9,9c0,0.1,0.1,0.3,0.2,0.4c0.1,0.1,0.2,0.1,0.3,0.1c0.2,0,0.2,0,0.4,0c0.1,0,0.1,0,0.2-0.1    c0.1-0.1,0.2-0.3,0.2-0.5c0,0-0.5-4.3,1.6-7.9C286.8,138.5,286.8,138.2,286.6,138z" name="Layer %{number}" zoom="1" data-layer-id="7024124102758" style="fill: rgb(108, 128, 146); fill-opacity: 0.4"/>
          <path fill="#6C8092" d="M287.1,269.2c-24.9,39-70,65.3-114.9,66.8c-8.1,0.3-16.2-0.3-23.9-1.6c-40.4-7.1-78.4-30.3-99.3-60.5  c-24.8-35.9-25.8-70.7-26.2-85.5c0-0.9-0.1-1.8-0.1-2.6C21.2,141,41.3,103.5,82.4,74.3c18.2-12.9,40.8-20.9,65.5-23.1  c3.5-0.3,5.8-1.1,7.9-1.8c1.3-0.4,2.5-0.9,3.7-1.1c2.5-0.4,5.7-0.3,8.3-0.3l1,0c24.2,0.5,48.2,7,69.3,18.8  c11.7,6.5,22.5,14.7,32.2,24.2c0.5,0.5,1.4,0.5,1.9-0.1c0,0,0,0,0,0c0.5-0.5,0.5-1.4,0-1.9c-10.1-9.9-21.3-18.3-33.5-25  c-21.9-12.1-46.6-18.5-71.6-18.8c-0.6,0-1.1,0-1.7,0c-1.1,0-2.1,0-3.2,0c-1.4,0-2.7,0.2-4,0.6c-2.5,0.7-8.5,2.5-11.2,2.7  c-24.8,2.2-47.7,10.3-66.4,23.5c-41.9,29.7-62.3,68-60.7,113.7c0,0.8,0.1,1.6,0.1,2.6c0.4,15.1,1.4,50.5,26.7,87  c21.3,30.8,60,54.4,101,61.7c7.9,1.4,16.1,2,24.4,1.7l0,0.3l0-0.3c45.1-1.6,90.5-27.6,116-66.5c8.7-14.4,12.9-22.2,16.9-30.2  c0.3-0.6,0.4-1.4-0.1-1.7s-1.2,0.1-1.7,0.9C299.9,247.2,287.8,268.1,287.1,269.2z" name="Layer %{number}" zoom="1" data-layer-id="0997804302758" style="fill: rgb(108, 128, 146); fill-opacity: 0.4"/>
          <path fill="#6C8092" d="M41,162.9c9.6-39.8,35.2-76.3,66.7-95.3c37.4-22.5,72.1-21.2,87-20.7c0.9,0,1.8,0.1,2.6,0.1  c31.2,0.9,58.2,12.1,80.6,33.2c1.2,1.1,3.2,3.1,4.4,4.3c0.5,0.5,1.4,0.6,2,0.3l0,0c1.1-0.6,0.7-1.7-0.3-2.6  c-0.9-0.8-1.7-1.6-2.3-2.2c-23.3-22.8-51.5-34.8-84.3-35.7c-0.8,0-1.6-0.1-2.6-0.1c-15.1-0.5-50.4-1.8-88.5,21.1  c-32.1,19.3-58.1,56.4-67.9,96.9c-1.9,7.8-3,16-3.2,24.3l-0.3,0l0.3,0c-1.3,45.8,22.5,93.3,60.6,121.2c21.9,16,50.7,27.3,75.2,29.6  c3.4,0.3,7,0.5,10.7,0.5c24.9,0.1,51.9-6.1,68.8-15.8c7.4-4.2,11.4-6.4,17.9-11.7c2.1-2.6,4.9-7.5,4.6-7.7c-6,4.7-17.2,13.2-23.9,17  c-16.6,9.5-43,15.6-67.4,15.5c-3.7,0-7.2-0.2-10.5-0.5c-24-2.2-52.4-13.4-73.9-29.1c-37.4-27.3-60.7-74-59.5-118.9  C38.1,178.5,39.1,170.6,41,162.9z" name="Layer %{number}" zoom="1" data-layer-id="6533920802758" style="fill: rgb(108, 128, 146); fill-opacity: 0.4"/>
          <path fill="#6C8092" d="M107.7,60.9c0.8-0.5,1.5-0.9,2.2-1.3c38.2-23.4,80.7-24.4,126.3-3c15,7,28.8,17.5,40.7,30.8  c0.6,0.6,1.5,0.7,2.1,0.3l0,0c0.9-0.6,0.2-1.8-0.6-2.6c-0.7-0.6-1.3-1.6-1.9-2.2c-11.5-12.2-24.8-22-39.2-28.8  c-46.5-21.8-89.9-20.7-128.9,3.2c-0.7,0.4-1.4,0.9-2.2,1.3c-12.9,7.8-43.2,26.1-62.6,66c-16.3,33.7-17.8,79-3.9,118.3  c2.7,7.6,6.2,15,10.6,22.1l-0.3,0.2l0.3-0.2c23.9,39.1,69.8,65.9,116.9,68.4c27.1,1.4,57.4-4.8,79.2-16.3c3-1.6,23.1-11.9,26.4-14.4  c-0.4-1-2.1-0.3-1.9-1.4c-3.6,2.8-22.8,11.9-25.8,13.4c-21.4,11.3-51.2,17.4-77.8,16c-46.2-2.4-91.3-28.8-114.8-67.1  c-4.2-6.9-7.7-14.2-10.3-21.6c-13.7-38.6-12.2-83.2,3.8-116.2C65.2,86.6,95,68.6,107.7,60.9z" name="Layer %{number}" zoom="1" data-layer-id="9954071602758" style="fill: rgb(108, 128, 146); fill-opacity: 0.4"/>
        </svg>
      </g>
      <g transform="rotate(0 128.438 63.3918)">
        <svg viewboxsize="575" data-root-id="2970639302758" xmlns="http://www.w3.org/2000/svg" y="40.2368" viewBox="2.0299999713897705 16.030000686645508 192.1800079345703 46.310001373291016" x="32.348" height="46.310001373291016" width="192.1800079345703" fonturl="https://fonts.gstatic.com/s/pacifico/v22/FwZY7-Qmy14u9lezJ96A4sijpFu_.ttf" zoom="1" editortype="buyer" data-layer-role="brandName" style="&#10;            position: absolute;&#10;            top: 40.2368px;&#10;            width: 192.18px;&#10;            height: 46.31px;&#10;            left: 32.348px;&#10;            transform: rotate(0deg);&#10;          ">
          <g data-horizontal-grow="left" zoom="1" root="[object Object]" style="fill: rgb(124, 130, 236); fill-opacity: 1">
            <path d="M36.33 31.21Q36.33 34.97 34.39 38.10Q32.45 41.24 28.74 43.22Q25.03 45.21 19.91 45.56L19.91 45.56L18.01 56.20Q16.91 62.34 12.01 62.34L12.01 62.34Q9.32 62.34 7.04 60.75Q4.77 59.16 3.40 55.89Q2.03 52.63 2.03 47.86L2.03 47.86Q2.03 38.90 4.92 32.65Q7.81 26.40 12.69 23.29Q17.57 20.18 23.44 20.18L23.44 20.18Q27.59 20.18 30.49 21.63Q33.38 23.09 34.86 25.58Q36.33 28.08 36.33 31.21L36.33 31.21ZM20.71 41.01Q29.76 39.87 29.76 31.61L29.76 31.61Q29.76 28.70 27.84 26.86Q25.92 25.03 21.90 25.03L21.90 25.03Q17.35 25.03 13.97 27.90Q10.60 30.77 8.76 35.87Q6.93 40.97 6.93 47.50L6.93 47.50Q6.93 50.24 7.48 52.36Q8.04 54.48 8.90 55.65Q9.76 56.82 10.55 56.82L10.55 56.82Q11.66 56.82 12.23 53.77L12.23 53.77L13.69 45.43Q11.96 45.16 12.19 45.21L12.19 45.21Q10.86 44.99 10.46 44.39Q10.07 43.80 10.07 42.87L10.07 42.87Q10.07 41.90 10.62 41.32Q11.17 40.75 12.14 40.75L12.14 40.75Q12.58 40.75 12.80 40.79L12.80 40.79Q13.86 40.97 14.44 41.01L14.44 41.01Q15.01 37.57 16.07 31.79L16.07 31.79Q16.34 30.29 17.28 29.65Q18.23 29.01 19.51 29.01L19.51 29.01Q20.97 29.01 21.61 29.56Q22.25 30.11 22.25 31.30L22.25 31.30Q22.25 32.01 22.16 32.45L22.16 32.45L20.71 41.01ZM39.51 57.75Q37.53 57.75 36.27 55.92Q35.01 54.08 35.01 51.35L35.01 51.35Q35.01 48.03 35.45 45.28Q35.89 42.52 36.91 39.43L36.91 39.43Q37.35 38.10 38.14 37.53Q38.94 36.95 40.66 36.95L40.66 36.95Q41.63 36.95 42.01 37.26Q42.38 37.57 42.38 38.19L42.38 38.19Q42.38 38.54 41.90 40.57L41.90 40.57Q41.46 42.21 41.19 43.53L41.19 43.53Q40.31 48.17 40.31 49.71L40.31 49.71Q40.31 50.64 40.53 51.01Q40.75 51.39 41.24 51.39L41.24 51.39Q41.90 51.39 42.89 50.07Q43.88 48.74 45.01 46.05Q46.14 43.35 47.20 39.43L47.20 39.43Q47.55 38.10 48.28 37.53Q49.01 36.95 50.46 36.95L50.46 36.95Q51.48 36.95 51.88 37.20Q52.27 37.44 52.27 38.10L52.27 38.10Q52.27 39.20 51.17 44.15L51.17 44.15Q49.93 49.80 49.93 51.12L49.93 51.12Q49.93 51.96 50.29 52.43Q50.64 52.89 51.21 52.89L51.21 52.89Q52.10 52.89 53.31 51.81Q54.52 50.73 56.56 48.30L56.56 48.30Q57.08 47.68 57.75 47.68L57.75 47.68Q58.32 47.68 58.65 48.21Q58.98 48.74 58.98 49.67L58.98 49.67Q58.98 51.43 58.14 52.41L58.14 52.41Q56.25 54.75 54.06 56.25Q51.88 57.75 49.09 57.75L49.09 57.75Q46.97 57.75 45.98 56.11Q44.99 54.48 44.99 51.52L44.99 51.52Q44.24 54.52 42.74 56.14Q41.24 57.75 39.51 57.75L39.51 57.75ZM58.54 57.75Q56.86 57.75 56.18 55.98Q55.50 54.22 55.50 50.33L55.50 50.33Q55.50 44.59 57.13 39.43L57.13 39.43Q57.53 38.14 58.43 37.55Q59.34 36.95 60.97 36.95L60.97 36.95Q61.85 36.95 62.21 37.17Q62.56 37.39 62.56 38.01L62.56 38.01Q62.56 38.72 61.90 41.19L61.90 41.19Q61.46 42.96 61.19 44.28Q60.93 45.61 60.75 47.55L60.75 47.55Q62.21 43.75 64.02 41.37Q65.83 38.98 67.57 37.97Q69.31 36.95 70.77 36.95L70.77 36.95Q73.64 36.95 73.64 39.82L73.64 39.82Q73.64 40.40 73.24 42.60L73.24 42.60Q72.89 44.37 72.89 44.81L72.89 44.81Q72.89 46.36 73.99 46.36L73.99 46.36Q75.23 46.36 77.17 44.41L77.17 44.41Q77.75 43.84 78.36 43.84L78.36 43.84Q78.94 43.84 79.27 44.35Q79.60 44.86 79.60 45.69L79.60 45.69Q79.60 47.33 78.72 48.26L78.72 48.26Q77.48 49.54 75.83 50.44Q74.17 51.35 72.32 51.35L72.32 51.35Q69.98 51.35 68.76 50.15Q67.55 48.96 67.55 46.93L67.55 46.93Q67.55 46.27 67.68 45.61L67.68 45.61Q67.77 44.72 67.77 44.41L67.77 44.41Q67.77 43.71 67.28 43.71L67.28 43.71Q66.62 43.71 65.54 45.19Q64.46 46.67 63.40 49.09Q62.34 51.52 61.68 54.22L61.68 54.22Q61.19 56.29 60.55 57.02Q59.91 57.75 58.54 57.75L58.54 57.75ZM95.19 47.68Q95.76 47.68 96.09 48.21Q96.42 48.74 96.42 49.67L96.42 49.67Q96.42 51.43 95.58 52.41L95.58 52.41Q93.95 54.39 90.97 56.07Q87.99 57.75 84.59 57.75L84.59 57.75Q79.95 57.75 77.39 55.23Q74.83 52.71 74.83 48.34L74.83 48.34Q74.83 45.30 76.11 42.67Q77.39 40.04 79.67 38.50Q81.94 36.95 84.81 36.95L84.81 36.95Q87.37 36.95 88.92 38.48Q90.46 40.00 90.46 42.60L90.46 42.60Q90.46 45.65 88.28 47.84Q86.09 50.02 80.88 51.30L80.88 51.30Q81.99 53.33 85.08 53.33L85.08 53.33Q87.06 53.33 89.60 51.94Q92.14 50.55 93.99 48.30L93.99 48.30Q94.52 47.68 95.19 47.68L95.19 47.68ZM84.06 41.28Q82.43 41.28 81.30 43.18Q80.18 45.08 80.18 47.77L80.18 47.77L80.18 47.86Q82.78 47.24 84.28 46.00Q85.78 44.77 85.78 43.13L85.78 43.13Q85.78 42.29 85.32 41.79Q84.85 41.28 84.06 41.28L84.06 41.28ZM116.86 57.88Q110.99 57.88 107.46 55.65Q103.93 53.42 103.93 48.83L103.93 48.83Q103.93 46.40 104.77 45.12Q105.60 43.84 107.24 43.84L107.24 43.84Q108.43 43.84 109.18 44.46Q109.93 45.08 109.93 46.05L109.93 46.05Q109.93 46.93 109.80 47.59L109.80 47.59Q109.80 47.77 109.73 48.21Q109.67 48.65 109.67 49.14L109.67 49.14Q109.67 51.12 111.68 52.10Q113.68 53.07 117.30 53.07L117.30 53.07Q121.06 53.07 123.18 51.72Q125.30 50.37 125.30 47.95L125.30 47.95Q125.30 46.45 124.32 45.36Q123.35 44.28 121.90 43.55Q120.44 42.82 117.79 41.77L117.79 41.77Q114.39 40.44 112.25 39.25Q110.11 38.06 108.59 36.00Q107.06 33.95 107.06 30.90L107.06 30.90Q107.06 27.73 108.76 25.25Q110.46 22.78 113.66 21.41Q116.86 20.04 121.19 20.04L121.19 20.04Q124.41 20.04 127.11 20.99Q129.80 21.94 131.41 23.88Q133.02 25.83 133.02 28.65L133.02 28.65Q133.02 31.43 132.18 32.85Q131.34 34.26 129.71 34.26L129.71 34.26Q128.56 34.26 127.79 33.55Q127.02 32.85 127.02 31.88L127.02 31.88Q127.02 31.04 127.15 30.33L127.15 30.33Q127.28 29.01 127.28 28.65L127.28 28.65Q127.28 26.80 125.47 25.83Q123.66 24.86 120.97 24.86L120.97 24.86Q117.17 24.86 115.16 26.25Q113.15 27.64 113.15 30.15L113.15 30.15Q113.15 31.83 114.19 33.02Q115.23 34.22 116.77 35.01Q118.32 35.81 121.10 36.91L121.10 36.91Q124.46 38.28 126.49 39.38Q128.52 40.48 129.95 42.38Q131.39 44.28 131.39 47.06L131.39 47.06Q131.39 52.27 127.44 55.08Q123.49 57.88 116.86 57.88L116.86 57.88ZM160.22 47.68Q160.79 47.68 161.12 48.21Q161.45 48.74 161.45 49.67L161.45 49.67Q161.45 51.43 160.61 52.41L160.61 52.41Q158.63 54.83 156.60 56.29Q154.57 57.75 151.79 57.75L151.79 57.75Q148.39 57.75 146.31 55.80Q144.24 53.86 144.24 50.64L144.24 50.64Q144.24 48.92 146.00 48.17L146.00 48.17Q147.94 47.33 148.78 46.38Q149.62 45.43 149.62 44.06L149.62 44.06Q149.62 43.27 149.29 42.87Q148.96 42.47 148.47 42.47L148.47 42.47Q147.28 42.47 145.85 44.19Q144.41 45.92 143.18 48.63Q141.94 51.35 141.23 54.22L141.23 54.22Q140.75 56.29 140.11 57.02Q139.47 57.75 138.10 57.75L138.10 57.75Q136.73 57.75 136.09 56.75Q135.45 55.76 135.23 53.69Q135.01 51.61 135.01 47.59L135.01 47.59Q135.01 40.79 136.40 33.42Q137.79 26.05 140.50 21.04Q143.22 16.03 147.02 16.03L147.02 16.03Q149.05 16.03 150.31 17.77Q151.56 19.51 151.56 22.30L151.56 22.30Q151.56 26.75 148.96 31.54Q146.35 36.33 140.48 42.74L140.48 42.74Q140.35 45.03 140.35 47.46L140.35 47.46Q142.47 41.94 145.21 39.45Q147.94 36.95 150.33 36.95L150.33 36.95Q152.54 36.95 153.88 38.45Q155.23 39.96 155.23 42.16L155.23 42.16Q155.23 44.59 153.99 46.62Q152.76 48.65 149.75 50.24L149.75 50.24Q149.93 51.43 150.84 52.16Q151.74 52.89 153.02 52.89L153.02 52.89Q154.39 52.89 155.67 51.83Q156.95 50.77 159.03 48.30L159.03 48.30Q159.56 47.68 160.22 47.68L160.22 47.68ZM146.09 20.40Q145.30 20.40 144.32 22.67Q143.35 24.94 142.45 28.81Q141.54 32.67 140.97 37.22L140.97 37.22Q143.71 33.99 145.49 30.20Q147.28 26.40 147.28 23.31L147.28 23.31Q147.28 21.90 146.97 21.15Q146.66 20.40 146.09 20.40L146.09 20.40ZM163.66 34.04Q161.81 34.04 160.88 33.18Q159.95 32.32 159.95 30.77L159.95 30.77Q159.95 29.23 161.17 28.19Q162.38 27.15 164.19 27.15L164.19 27.15Q165.82 27.15 166.84 27.95Q167.86 28.74 167.86 30.20L167.86 30.20Q167.86 31.96 166.71 33.00Q165.56 34.04 163.66 34.04L163.66 34.04ZM163.31 57.75Q160.44 57.75 159.14 55.72Q157.83 53.69 157.83 50.33L157.83 50.33Q157.83 48.34 158.34 45.23Q158.85 42.12 159.64 39.43L159.64 39.43Q160.04 38.01 160.70 37.48Q161.37 36.95 162.82 36.95L162.82 36.95Q165.07 36.95 165.07 38.45L165.07 38.45Q165.07 39.56 164.24 43.58L164.24 43.58Q163.18 48.43 163.18 50.15L163.18 50.15Q163.18 51.48 163.53 52.18Q163.88 52.89 164.72 52.89L164.72 52.89Q165.52 52.89 166.71 51.79Q167.90 50.68 169.89 48.30L169.89 48.30Q170.42 47.68 171.08 47.68L171.08 47.68Q171.65 47.68 171.98 48.21Q172.31 48.74 172.31 49.67L172.31 49.67Q172.31 51.43 171.48 52.41L171.48 52.41Q167.10 57.75 163.31 57.75L163.31 57.75ZM171.87 57.75Q170.20 57.75 169.51 55.98Q168.83 54.22 168.83 50.33L168.83 50.33Q168.83 44.59 170.46 39.43L170.46 39.43Q170.86 38.14 171.76 37.55Q172.67 36.95 174.30 36.95L174.30 36.95Q175.18 36.95 175.54 37.17Q175.89 37.39 175.89 38.01L175.89 38.01Q175.89 38.72 175.23 41.19L175.23 41.19Q174.79 42.96 174.52 44.28Q174.26 45.61 174.08 47.55L174.08 47.55Q175.54 43.75 177.35 41.37Q179.16 38.98 180.90 37.97Q182.65 36.95 184.10 36.95L184.10 36.95Q186.97 36.95 186.97 39.82L186.97 39.82Q186.97 41.54 186.00 46.05L186.00 46.05Q185.16 49.89 185.16 51.12L185.16 51.12Q185.16 52.89 186.44 52.89L186.44 52.89Q187.33 52.89 188.54 51.81Q189.75 50.73 191.78 48.30L191.78 48.30Q192.31 47.68 192.98 47.68L192.98 47.68Q193.55 47.68 193.88 48.21Q194.21 48.74 194.21 49.67L194.21 49.67Q194.21 51.43 193.37 52.41L193.37 52.41Q191.48 54.75 189.29 56.25Q187.10 57.75 184.32 57.75L184.32 57.75Q182.07 57.75 180.92 56.44Q179.78 55.14 179.78 52.67L179.78 52.67Q179.78 51.43 180.39 48.26L180.39 48.26Q180.97 45.47 180.97 44.41L180.97 44.41Q180.97 43.71 180.48 43.71L180.48 43.71Q179.91 43.71 178.87 45.19Q177.83 46.67 176.75 49.09Q175.67 51.52 175.01 54.22L175.01 54.22Q174.52 56.29 173.88 57.02Q173.24 57.75 171.87 57.75L171.87 57.75Z" transform="translate(0, 0)"/>
          </g>
        </svg>
      </g>
    </svg>