<svg xmlns="http://www.w3.org/2000/svg" id="mySvg" width="150" height="135">
      <svg xmlns="http://www.w3.org/2000/svg" xmlns:xlink="http://www.w3.org/1999/xlink" viewboxsize="575" data-root-id="5958538225305" version="1.2" baseProfile="tiny" id="Layer_1" x="0" y="0" viewBox="19.81269073486328 38.52458190917969 334.9874267578125 300.47540283203125" xml:space="preserve" height="134.44703531984158" width="149.8893481863507" preserveAspectRatio="xMinYMin" zoom="1" editortype="buyer" data-layer-role="icon" style="position: absolute; height: 134.447px; width: 149.889px; top: 0px; left: 0px">
        <path fill="#FBD0E1" d="M286.3,87.1c-1.1-0.4-2-0.4-2.5,0.1c-1.7,1.5-4.8,3.1-6.3,3.8c0.8,1.1,1.8,3.2,1.1,5.6   c-0.7,2.4-1.2,5.4-0.6,7.9c0.7,0.4,1.4,0.8,1.8,1.3c0.1,0.1,0.3,0.3,0.4,0.5c0-0.2,0-0.3,0-0.5c-0.1-3.2,1.2-6.1,3.7-8.5   c0.7-0.6,1.3-1.2,1.8-1.8c2.4-2.5,3.8-4,5.9-4C289.9,89.4,288,87.8,286.3,87.1z" name="Layer %{number}" zoom="1" data-layer-id="3901020625305" style="fill: rgb(206, 208, 248); fill-opacity: 0.4"/>
        <path fill="#FBD0E1" d="M298.2,118.9c-2,2-4,4.2-5.6,5.8c0,0.4,0,0.8,0,1.3c0-0.1,0.1-0.1,0.1-0.1c0.3-0.1,2.7-1.4,6,2.5   c2.9,3.4,4.3,3.8,6.9,3.8c0.3,0,0.5,0.3,0.5,0.6c0,0.2,0,0.3,0,0.5c0,0.2,0,0.3-0.1,0.4c0,0-0.1,0.1-0.1,0.1   c-0.1,0.1-0.1,0.1-0.2,0.1c-3-0.1-4.7-0.7-7.8-4.4c-2.7-3.1-4.5-2.2-4.5-2.2c-0.2,0.1-0.5,0-0.6-0.3c-0.1-0.1-0.1-0.2-0.2-0.4   c0,1.3,0.1,2.4,0.3,2.7c0.2,0.4,0.4,0.8,0.5,1.2c0.2,0.7,0.5,1.5,1.5,2.2c0.3,0.2,0.7,0.4,1,0.6c0,0,0,0,0,0   c2.7,1.4,5.7,4.6,6.5,5.6c0.9,0,4.2,0,6.1-0.6c1.4-0.5,1.9-2.8,2.5-5.8c0.2-1,0.4-2,0.6-3.1c0.7-3.2,0.1-4.1-1-5.6   c-0.3-0.4-0.6-0.9-1-1.4c-0.1-0.2-0.2-0.3-0.3-0.5c-1.7-2.6-1.7-3.3-0.4-7.3c0.3-0.9,0.3-1.6,0.1-1.9c-0.5-0.7-2.4-0.7-4.2,0.1   c-0.4,0.2-1.1,0.7-2,1.5C301.9,115.2,299.5,117.6,298.2,118.9z M303.9,117.6c0-0.2,0.2-0.4,0.4-0.4c0,0,0,0,0,0   c0.1,0,0.1-0.1,0.2-0.1c0.1-0.1,0.2-0.1,0.4,0c0.1,0.1,0.2,0.2,0.3,0.3c0.1,0.2,0.2,0.5,0.1,0.8c-0.1,0.5-0.4,1.1-1.1,1.7   c-0.7,0.6-1.7,1.4-3,2.2c-4.1,2.5-5.4,2.3-5.7,2.1c-0.2-0.1-0.4-0.4-0.3-0.7c0-0.2,0.1-0.3,0.1-0.5c0.1-0.3,0.3-0.4,0.5-0.3   c0,0,1,0.2,4.7-2.1C303.4,118.6,303.9,117.7,303.9,117.6z" name="Layer %{number}" zoom="1" data-layer-id="8162659225305" style="fill: rgb(206, 208, 248); fill-opacity: 0.4"/>
        <path fill="#FBD0E1" d="M287.9,117.8C287.9,117.8,287.9,117.8,287.9,117.8c0.2,0.2,0.4,0.4,0.5,0.7c0.3,0.4,0.4,0.7,0.5,0.8   c0.4,0.6,0.7,0.9,1.1,1.6c0.3-0.3,0.8-0.7,1.6-1.3c0.6-0.5,1.4-0.7,2.4-0.9c1-0.2,2.3-0.6,3.6-1.3c1.5-1.6,3-3.1,4.3-4.3   c1.4-2.5,1.2-5,0.9-8.1c-0.1-0.9-0.2-1.9-0.3-2.8c-0.3-4-3.7-5.9-7.6-7.8c-0.3-0.1-0.4-0.2-0.7-0.4c-3.2-1.6-4.2-0.5-7.5,2.9   c-0.5,0.5-1.1,1.1-1.8,1.8c-2.2,2.1-3.3,4.7-3.3,7.4c0,2.4,1,4.8,2.7,6.9C286.1,115.2,287.2,116.8,287.9,117.8z M291.8,114.6   c0,0,1.9-0.4,2.1-6.2c0.2-7,2.6-8.7,2.8-8.8c0.2-0.1,0.5,0,0.7,0.3c0.1,0.2,0.1,0.3,0.2,0.5c0.1,0.1,0.1,0.3,0.1,0.5   c0,0.1-0.1,0.3-0.2,0.3c0,0-2,1.5-2.2,7.6c-0.1,4.2-1.2,6.1-2,6.9c-0.6,0.6-1.1,0.7-1.2,0.7c-0.3,0-0.5-0.2-0.6-0.5   c0-0.2-0.1-0.3-0.1-0.5C291.4,114.9,291.6,114.6,291.8,114.6z M285.7,106c0.1-0.3,0.3-0.4,0.6-0.3c0.2,0.1,0.2,0.1,0.4,0.2   c0.1,0.1,0.2,0.2,0.3,0.3c0.1,0.1,0.1,0.3,0,0.4c-0.9,3.6,2.6,10.7,2.6,10.8c0.1,0.1,0.1,0.3,0.1,0.4c0,0.1-0.1,0.2-0.1,0.3   c0,0,0,0-0.1,0.1c-0.1,0.1-0.2,0.1-0.3,0.2c-0.2,0.1-0.5,0-0.6-0.3C288.3,117.8,284.7,110.4,285.7,106z" name="Layer %{number}" zoom="1" data-layer-id="1370518725305" style="fill: rgb(206, 208, 248); fill-opacity: 0.4"/>
        <path fill="#FBD0E1" d="M282,123.8c0.4-0.4,0.6-0.6,1.1-1c0,0,0.9-1.3,0.9-4.1c-0.1-3-3.8-10.5-5-11.8c-1.1-1.2-4.4-2.6-6.2-1.3   c-1.2,0.9-2.2,0.9-3.1,0.9c-0.8,0-1.5,0-2.6,0.5c-0.7,0.3-1.3,0.8-1.9,1.4c-0.6,0.7-1.1,1.4-1.6,2.1c-0.4,0.6-0.8,1.1-1.2,1.5   c-0.1,0.1-0.2,0.2-0.2,0.4c0,0.7,0.8,1.6,1.1,2.1c0,0,0.1,0.1,0.1,0.1c0.2,0.2,0.2,0.4,0.1,0.6c0,0.1,0,0.1-0.1,0.1   c-0.1,0.2-2.1,4.1,0.4,6.8c2.6,2.9,4.5,4.1,9.5,4.1C278,126,282,123.8,282,123.8z M273.6,109.1c0.1-0.1,0.2-0.1,0.3-0.2   c0.2-0.1,0.5,0,0.6,0.2c0,0.1,2.9,5.7,5.6,7.1c0.1,0.1,0.2,0.2,0.3,0.3c0.1,0.1,0.1,0.3,0,0.4c-0.1,0.2-0.1,0.2-0.1,0.4   c0,0.1-0.1,0.1-0.1,0.2c-0.1,0.1-0.3,0.1-0.5,0.1c-3.2-1.6-6.1-7.6-6.3-7.8C273.4,109.6,273.4,109.3,273.6,109.1z M264.9,118.9   c-0.2-0.4-0.2-0.7-0.1-1c0.1-0.2,0.4-0.4,0.6-0.3c0.1,0.1,0.2,0.1,0.3,0.1c0.2,0.1,0.3,0.2,0.3,0.4c0.1,0.1,0.8,0.7,4,1   c1.8,0.2,3.1,0.2,4.1,0.2c1.8,0,3.2,0,5.4,1.3c0.2,0.1,0.3,0.5,0.2,0.7c-0.1,0.2-0.1,0.2-0.2,0.4c0,0.1-0.1,0.1-0.1,0.2   c0,0-0.1,0.1-0.1,0.1c-0.1,0-0.2,0-0.4,0c-2-1.2-3-1.2-4.8-1.2c-1.1,0-2.4,0-4.2-0.2C266.1,120.2,265.2,119.4,264.9,118.9z" name="Layer %{number}" zoom="1" data-layer-id="5277271725305" style="fill: rgb(206, 208, 248); fill-opacity: 0.4"/>
        <path fill="#FBD0E1" d="M309.8,139.6c-0.3,0.2-0.6,0.4-0.9,0.5c-2,0.6-5.2,0.6-6.3,0.6c0.4,1.1,0.7,2.3,0.6,3.5   c-0.1,1.1-0.2,1.9-0.5,2.6c0.5,0.2,0.9,0.3,1.4,0.5c2.5,1.1,3,0.4,4.1-0.9c0.3-0.3,0.6-0.7,0.9-1.1c0.1-0.2,0.2-0.2,0.3-0.4   c1.7-2,2.3-2,5.5,0.4c0.7,0.5,1.2,0.7,1.4,0.5c0.5-0.6,0.3-3.1-0.5-5.7c-0.2-0.6-0.7-1.6-1.4-2.9c-0.4-0.7-1.3-2-2.2-3.4   C311.7,136.4,311.2,138.6,309.8,139.6z" name="Layer %{number}" zoom="1" data-layer-id="1118312325305" style="fill: rgb(206, 208, 248); fill-opacity: 0.4"/>
        <path fill="#FBD0E1" d="M301.9,143.9c0.2-4.2-4-7.3-6.5-9.1c-0.4-0.2-0.7-0.4-1.1-0.7c-1.4-0.8-2.8-1.2-3.8-1.5c-0.2,0-0.4,0-0.7,0   c0,0,0,0,0,0c1.7,2.8,2.4,4.1,4.9,4.7c2.6,0.7,3.2,1.7,4.3,3.5c0.2,0.4,0.5,0.8,0.7,1.2c0.1,0.1,0.1,0.3,0.1,0.4   c0,0.2-0.1,0.3-0.2,0.4c-0.1,0.1-0.2,0.2-0.3,0.3c0,0,0,0,0,0c-0.1,0.1-0.2,0.1-0.3,0.1c-0.1,0-0.2-0.1-0.3-0.2   c-0.3-0.5-0.5-0.9-0.8-1.3c-1.1-1.8-1.4-2.3-3.4-2.8c-3-0.8-4-2.6-5.7-5.4c-0.1-0.2-0.1-0.6,0.1-0.7c0.1-0.1,0.2-0.1,0.3-0.2   c-0.2,0-0.5-0.1-0.7-0.2c-0.6,0-1.2,0-1.6,0.3c-0.1,0.1-0.1,0.3-0.3,0.4c-0.1,0.3-0.2,0.9-0.2,1.5c-0.2,1.4-0.4,3.2-1.4,5.1   c-1.7,3.2-2.8,5.9-1.6,11.9c0.5,2.6,1,3.3,1.4,3.5c0.7,0.3,2-0.7,3.5-2c0.3-0.2,0.4-0.3,0.6-0.5c2.9-2.5,2.2-4.3,2.2-4.3   c-0.1-0.2-0.1-0.3-0.2-0.4c-0.1-0.2-0.1-0.4,0-0.6c0-0.1,0.1-0.1,0.1-0.2c0.1-0.1,0.2-0.1,0.3-0.1c0.2,0,0.3,0.1,0.4,0.1   c0.1,0,2.5,0.6,5.3,0c0.8-0.2,1.5-0.2,2.1-0.2C301,146.7,301.8,146.7,301.9,143.9z M287.6,137.7c-2.2,3.6-1.7,7.8-1.6,7.9   c0,0.2-0.1,0.4-0.2,0.5c-0.1,0-0.1,0.1-0.2,0.1c-0.2,0-0.2,0-0.4,0c-0.1,0-0.2,0-0.3-0.1c-0.1-0.1-0.2-0.2-0.2-0.4   c0-0.2-0.6-4.8,1.9-9c0.1-0.1,0.2-0.2,0.3-0.2c0.1,0,0.2,0,0.3,0.1c0.1,0.1,0.2,0.2,0.3,0.3C287.7,137.1,287.8,137.4,287.6,137.7z" name="Layer %{number}" zoom="1" data-layer-id="8026435225305" style="fill: rgb(206, 208, 248); fill-opacity: 0.4"/>
        <path fill="#FBD0E1" d="M309.6,116.9c1.8-1.3,5.6-3.4,8.5-1.9c0.3,0.1,0.4,0.5,0.4,0.8c0,0.2,0,0.3-0.1,0.5c0,0.2-0.1,0.3-0.2,0.4   c-0.1,0.1-0.2,0.1-0.4,0c-3.2-1.7-8.4,2.5-8.5,2.6c0,0-0.1,0-0.1,0c0.1,0.5,0.4,0.9,0.9,1.7c0.1,0.2,0.2,0.3,0.3,0.5   c0.2,0.3,0.3,0.5,0.5,0.7c0.1-0.1,0.1-0.2,0.3-0.3c0.2,0,0.2,0,0.4-0.1c0.2-0.1,0.5,0.2,0.6,0.5c0,0,0.8,2.5,5.5,3.6   c5.8,1.4,7.4,5.5,7.5,5.6c0.1,0.3,0.1,0.7-0.2,0.9c-0.1,0.1-0.2,0.1-0.3,0.2c-0.1,0.1-0.2,0.1-0.4,0c-0.1-0.1-0.2-0.2-0.3-0.4   c0,0-1.4-3.3-6.4-4.6c-2.3-0.6-3.8-1.4-4.8-2.3c0.3,1.1,0.4,2.6-0.1,4.7c-0.1,0.5-0.2,1-0.3,1.5c1,1.5,1.9,2.9,2.7,4.2   c2.2,2.2,4.1,2.5,6.4,2.7c0.7,0.1,1.4,0.2,2.2,0.3c3.1,0.6,4.3-3.5,5.5-8.6c0.1-0.4,0.1-0.6,0.2-0.9c0.9-4.1,0-6-3.3-11.5   c-0.5-0.9-1.2-1.9-1.8-3c-2.2-3.6-4.7-5.6-7.1-5.9c-2.1-0.2-3.9,0.9-5.3,3.1c-0.6,1-1.1,1.8-1.6,2.5c-0.1,0.3-0.1,0.6-0.2,0.9   C309.9,116.1,309.8,116.5,309.6,116.9z" name="Layer %{number}" zoom="1" data-layer-id="9159322425305" style="fill: rgb(206, 208, 248); fill-opacity: 0.4"/>
        <path fill="#FBD0E1" d="M301.4,97c-0.3-1.1-0.6-2.3-0.9-3.8c-1-5-0.7-6.3-0.3-6.8c0.3-0.3,0.6-0.4,0.8-0.3c0.3,0.1,0.5,0.4,0.5,0.8   c0,0.2,0,0.3,0,0.5c0,0.2-0.1,0.4-0.2,0.5c-0.1,0.2-0.3,1.2,0.6,5.3c0.5,2.4,0.9,4.1,1.3,5.4c0.5,2.1,0.9,3.7,0.7,6   c0,0.2,0,0.3,0,0.5c0.2,2.1,0.4,4.2-0.1,6.3c0.1,0,0.2-0.1,0.2-0.1c1.6-0.7,3.6-1,4.9-0.3c2.7-1.4,6.2-4.4,6.9-5.6   c0.8-1.4,1.1-5.9-0.5-8.6c-1.1-1.8-1.5-3.2-1.8-4.5c-0.3-1.1-0.5-2.2-1.3-3.7c-0.5-1-1.1-1.8-2-2.7c-0.8-0.9-1.7-1.5-2.5-2.1   c-0.7-0.5-1.3-1-1.9-1.5c-0.2-0.2-0.3-0.2-0.5-0.2c-0.6,0.1-1.3,1.1-1.5,1.7c0,0.1,0,0.1-0.1,0.2c-0.1,0.2-0.3,0.3-0.5,0.2   c-0.1,0-0.1,0-0.2-0.1c-0.2-0.1-4.8-2.3-6.3,1.3c-1.1,2.6-1.6,4.7-1.2,7.7C297.8,94.1,299.9,95.3,301.4,97z M311.6,97.7   c0.2-0.2,0.5-0.1,0.7,0.2c0.1,0.2,0.2,0.3,0.3,0.5c0.2,0.3,0.2,0.7,0,0.9c0,0-4.3,3.8-4.7,7.4c0,0.2-0.1,0.3-0.2,0.4   c-0.1,0.1-0.2,0.1-0.4,0c-0.2-0.1-0.2-0.1-0.4-0.2c-0.1,0-0.2-0.1-0.2-0.2c-0.1-0.2-0.2-0.4-0.2-0.6   C307,101.8,311.5,97.9,311.6,97.7z" name="Layer %{number}" zoom="1" data-layer-id="5662684225305" style="fill: rgb(206, 208, 248); fill-opacity: 0.4"/>
        <path fill="#FBD0E1" d="M283.5,130c-1.2-0.7-1.9-2.3-2.1-3.2c-1.6,0.3-6.4,1.2-10.7,1.8c-3.1,0.4-6.1,2.3-7.4,4.6   c-0.5,0.9-0.7,1.8-0.5,2.5c0.7,2.2,1.1,5.8,1.2,7.5c1-0.3,2.9-0.5,4.5,1.2c2.3,2.4,5.9,4.9,8.6,3.3c1.9-1.1,2.5-2.7,3.3-4.7   c0.5-1.2,0.9-2.4,1.7-3.6c1.4-2.4,2.3-6.9,1.8-8.8C283.6,130.1,283.5,130,283.5,130z M277.7,132.5c0,0-1.8,1.8-4.4,4.3   c-0.3,0.3-0.6,0.6-0.9,0.8c-1.1,0.8-2.2,1.3-3.2,1.7c-1.1,0.5-2,0.9-2.7,1.6c-0.1,0.1-0.2,0.1-0.3,0.1c-0.1,0-0.2-0.1-0.3-0.1   c-0.1-0.1-0.2-0.2-0.3-0.3c-0.2-0.2-0.2-0.5,0-0.7c0.9-0.9,1.9-1.3,3-1.9c1.2-0.5,2.5-1.1,3.8-2.3c2.6-2.4,4.3-4.2,4.4-4.3   c0.1-0.1,0.2-0.1,0.3-0.1c0.1,0,0.2,0.1,0.3,0.2c0.1,0.1,0.2,0.2,0.3,0.3C277.8,132,277.8,132.3,277.7,132.5z" name="Layer %{number}" zoom="1" data-layer-id="3398644225305" style="fill: rgb(206, 208, 248); fill-opacity: 0.4"/>
        <path fill="#D3E3AD" d="M326.2,225.6c4.5-1.5,6.3,6.6,6.8,11.6c0.3,4,0.1,8.7-1,13c0-2.3-0.4-4.5-0.7-6.5c-0.8-5.2-2-9.8-5-12.8   c-0.7-0.7-1.7,1-0.9,1.8c2.4,2.5,3.7,6.3,4.3,10.7c0.3,2.4,1,5.5,0.8,8.4c-0.8-3.2-2.3-5.1-4.5-7   C321.3,240.6,317.5,228.6,326.2,225.6z" name="Layer %{number}" zoom="1" data-layer-id="8485473225305" style="fill: rgb(251, 255, 244); fill-opacity: 0.4"/>
        <path fill="#D3E3AD" d="M317.6,151.3c0.7-0.6,1.6-0.8,2.8-0.9c1.1-0.1,2.4,0.4,3.2,1c2.8,1.9,6.9,7.4,9.1,12.1    c0.2,0.5,0.6,0.6,0.9,0.4c0.3-0.3,0.4-1.1,0.2-1.6c-1.7-3.8-4.6-7.7-5.8-9.2c-3.3-3.8-5.5-4.7-6.3-5c-1.2-0.5-2.3-0.6-3.3-0.3    c0.7-1.3,1.7-2.1,3.1-2.5c2.8-0.9,6.8,0.5,9.5,3.5c1.9,2.1,3.4,5.3,4.2,9.4c0.2,1.2,0.4,2.5,0.6,3.7c0.4,2.6,0.8,5.3,1.3,8    c-3.1-2-6.5-2.5-9.8-2.9c-1-0.1-2-0.3-2.9-0.4c-2.7-0.5-4.4-1.9-5.3-4.7C318.1,158.8,317.7,154.3,317.6,151.3z" name="Layer %{number}" zoom="1" data-layer-id="3162741325305" style="fill: rgb(251, 255, 244); fill-opacity: 0.4"/>
        <path fill="#D3E3AD" d="M344.5,206.5c-0.5,0.1-0.7,0.2-1.2,0.3c-4.1,0.9-7.4-0.1-10.7-2.9c-2.4-2.1-3.9-5.7-5.4-9.1    c-0.2-0.4-0.3-0.6-0.4-1c-0.2-0.4-0.4-0.9-0.6-1.4c-0.7-1.6-1.5-3.4-2.6-4.6c1.9-0.2,3.9,1.4,5,2.5c0.4,0.4,0.7,0.9,1.1,1.3    c0.1,0.2,0.2,0.2,0.3,0.4c0.2,0.3,0.4,0.5,0.5,0.8c0.4,0.7,0.9,1.5,1.3,2.3c1.3,2.3,2.5,4.7,4.3,6.5c2,1.9,4.4,2.3,6.7,2.7    c1.6,0.3,2.6,0.3,3.9,1c0.3,0.1,1-0.1,1.3-0.4c0.2-0.3,0.4-0.4,0.3-0.8c0-0.4-0.2-0.8-0.5-0.9c-1.5-0.8-3.1-1-4.7-1.3    c-2.8-0.5-5.5-0.9-7.4-3.8c-0.8-1.2-1.7-2.8-2.6-4.4c-0.7-1.1-1.3-2.3-2.1-3.4c0,0,0,0,0,0c0-0.1-0.1-0.1-0.1-0.1    c-0.6-0.9-1.1-1.5-1.6-2.1c-0.3-0.4-0.7-0.7-1-0.9c-1-1-1.9-1.6-2.7-2c0,0,0.1,0,0.1-0.1c0.4-0.3,0.8-0.8,1.2-1.2    c0.2-0.3,0.5-0.5,0.7-0.8c0.7-0.7,1.7-0.9,2.8-1.2c3.6-0.8,6.3,2.1,8.8,5.7c1.7,2.4,3.2,5.2,4.7,7.9c0.6,1.1,1.2,2.2,1.7,3.3    c1.2,2.2,2.5,4.7,4.1,6.6C348,205.6,346.2,206.1,344.5,206.5z" name="Layer %{number}" zoom="1" data-layer-id="9199289225305" style="fill: rgb(251, 255, 244); fill-opacity: 0.4"/>
        <path fill="#D3E3AD" d="M301.5,209.4c1-0.3,1.9-0.3,2.8-0.2c1.1,0.1,2.2,0.5,3.1,1.2c-1.7,0.4-3.3,1.3-4.8,2.8    c-0.8,0.8-3.3,3.4-6.5,9.5c0,0.1-3.6,6.7-5.6,12.8c-0.2,0.6,0.1,1.2,0.5,1.4c0.4,0.2,0.8-0.1,0.9-0.6c2.1-6.1,6.1-14.4,9.2-18.4    c0.8-1.1,2.4-2.6,4-3.3c1.7-0.7,3-1.2,4.4-1c1.2,3.7,2.3,9.8,1.7,14.5c-0.5,4.2-2.7,7-6.6,8.8c-1.3,0.6-2.7,1.2-4.1,1.7    c-4.8,1.9-9.7,3.6-14,6.7c0.6-3.2,0.7-6.5,0.7-9.6c0-1.4,0-2.8,0-4.2c0.1-4.7,0.9-8.7,2.8-12.1    C292.7,214.7,297.3,210.5,301.5,209.4z" name="Layer %{number}" zoom="1" data-layer-id="1263788425305" style="fill: rgb(251, 255, 244); fill-opacity: 0.4"/>
        <path fill="#D3E3AD" d="M279.9,158.1c1,0.4,2,0.7,3,0.9c0,0-0.1,0.1-0.1,0.1c-0.4,0.3-0.4,0.9-0.1,1.3c3.8,5.2,8.5,10.2,14.5,15.7    c2.4,2.2,4.9,4.2,7.8,6.2c0.5,0.3,0.7,0.5,1.1,0.8c2.1,1.4,4.2,2.9,6.1,4.8c-1.1-0.3-2.2-0.6-3.2-0.8c-6.7-1.6-13.7-3.2-19.2-8.2    c-4-3.6-5.6-9.1-7.4-14.4C281.8,162.3,280.9,160.1,279.9,158.1z M306.8,181.1c-2.6-1.8-5.4-3.6-7.8-5.8c-6-5.3-11-10.6-15-16    c0,0,0,0-0.1-0.1c0.8,0.1,1.7,0.2,2.5,0.3c4.7,0.5,9.2,3.3,13.3,6.4c4.1,3.2,7.6,7,10.2,11.1c1.3,2.1,2.3,4.4,3.1,7.5    c0.1,0.6,0.3,1.1,0.4,1.7C311.3,184.2,309,182.6,306.8,181.1z" name="Layer %{number}" zoom="1" data-layer-id="9471070425305" style="fill: rgb(251, 255, 244); fill-opacity: 0.4"/>
        <path fill="#6C8092" d="M298.4,123.2c-0.1,0.2-0.4,0.3-0.6,0.5c-0.1,0.1-0.3,0.2-0.5,0.3c0-0.1,0-0.2,0-0.4c0.5,0,1.1-0.6,1.6-1.6    c0,0.1,0.1,0.2,0.1,0.2c0.1,0.1,0.2,0.2,0.2,0.3C299,122.8,298.6,123,298.4,123.2z" name="Layer %{number}" zoom="1" data-layer-id="7839719125305" style="fill: rgb(108, 128, 146); fill-opacity: 0.4"/>
        <path fill="#6C8092" d="M276.8,106.1c0.2,0.2,0.4,0.4,0.6,0.5c-1.1-2.6-0.7-6.2,0.2-9c0.7-2.4-0.3-4.5-1.1-5.6    c1.5-0.7,4.6-2.3,6.3-3.8c0.5-0.5,1.4-0.5,2.5-0.1c2,0.7,4.3,2.8,5.9,5.5c0,0,0.1,0,0.1,0c0.5,0,1,0.1,1.6,0.2    c-2.1-3.9-5.2-6.5-7.4-7.3c-1.5-0.6-2.8-0.4-3.6,0.3c-2.1,1.9-6.7,4-6.8,4.1c-0.1,0.1-0.2,0.1-0.3,0.1c-0.1,0.1-0.2,0.2-0.2,0.4    c0,0.2,0.1,0.4,0.2,0.5c0.1,0.1,0.2,0.2,0.3,0.3c0.1,0.1,2.1,2.1,1.3,4.6c-1.2,3.8-1.1,6.6-0.6,8.6    C276.1,105.7,276.5,105.8,276.8,106.1z" name="Layer %{number}" zoom="1" data-layer-id="0755533425305" style="fill: rgb(108, 128, 146); fill-opacity: 0.4"/>
        <path fill="#6C8092" d="M326.1,118c-0.5-0.9-1.2-1.9-1.8-3c-2.5-4.1-5.4-6.4-8.2-6.7c-0.1,0-0.3,0-0.4,0c0.2-0.2,0.3-0.4,0.4-0.5    c1.2-2,1.4-7.5-0.7-10.9c-0.9-1.4-1.1-2.4-1.4-3.6c-0.3-1.1-0.6-2.5-1.5-4.3c-1.4-2.8-3.5-4.4-5.1-5.6c-0.6-0.5-1.2-0.9-1.7-1.3    c-0.5-0.5-1-0.7-1.6-0.6c-1,0.1-1.7,1.2-2.1,1.9c-1.5-0.6-5.7-1.8-7.3,2.1c-1.2,2.9-1.7,5.2-1.3,8.6c0.5,0.2,1,0.4,1.4,0.6    c-0.5-3.3,0-5.4,1.1-8.2c1.5-3.6,6.1-1.4,6.3-1.3c0.1,0,0.1,0,0.2,0.1c0.2,0.1,0.4,0,0.5-0.2c0-0.1,0-0.1,0.1-0.2    c0.3-0.6,0.9-1.6,1.5-1.7c0.2,0,0.3,0,0.5,0.2c0.5,0.5,1.2,1,1.9,1.5c0.8,0.6,1.7,1.3,2.5,2.1c0.8,0.9,1.5,1.7,2,2.7    c0.8,1.5,1,2.6,1.3,3.7c0.3,1.3,0.6,2.7,1.8,4.5c1.6,2.6,1.3,7.2,0.5,8.6c-0.8,1.3-4.8,4.7-7.5,5.9c0.5,0.4,0.9,0.9,1.2,1.4    c0.1,0,0.1,0,0.2-0.1c-0.1,0.1-0.1,0.2-0.2,0.2c0.1,0.1,0.1,0.3,0.2,0.4c0.3,0.7,0.3,1.4,0.2,2c0.5-0.8,1.2-1.7,1.9-3    c1.3-2.2,3.2-3.4,5.3-3.1c2.4,0.3,4.9,2.3,7.1,5.9c0.7,1.1,1.3,2.1,1.8,3c3.4,5.5,4.3,7.4,3.3,11.5c-0.1,0.4-0.1,0.6-0.2,0.9    c-1.2,5-2.4,9.2-5.5,8.6c-0.7-0.2-1.5-0.2-2.2-0.3c-2.3-0.3-4.2-0.5-6.4-2.7c-0.9-1.5-2-3.2-3.1-4.9c0.1,0.8,0,1.7-0.1,2.5    c1,1.4,1.9,2.9,2.3,3.6c0.7,1.2,1.2,2.3,1.4,2.9c0.8,2.6,1,5.1,0.5,5.7c-0.2,0.2-0.7,0.1-1.4-0.5c-3.2-2.4-3.7-2.4-5.5-0.4    c-0.1,0.2-0.2,0.2-0.3,0.4c-0.4,0.4-0.7,0.8-0.9,1.1c-1,1.3-1.5,2-4.1,0.9c-0.7-0.3-1.4-0.6-2.2-0.8c-0.2,0.6-0.7,1.1-1.2,1.3    c0.2,0.1,0.5,0.2,0.7,0.3c0.7,0.3,1.5,0.5,2.3,0.9c3.3,1.4,4.2,0.3,5.4-1.2c0.3-0.3,0.5-0.7,0.8-1c0.1-0.2,0.2-0.2,0.3-0.4    c1.3-1.5,1.3-1.5,4,0.6c1.3,1,2.2,1.1,2.9,0.4c1.1-1.3,0.6-4.8-0.2-7.7c0-0.1-0.1-0.2-0.1-0.3c1.7,1,3.3,1.2,4.8,1.4    c0.7,0.1,1.4,0.2,2.1,0.3c4,0.9,5.6-4.6,6.7-9.5c0.1-0.4,0.1-0.6,0.2-0.9C331,126.3,329.6,123.7,326.1,118z" name="Layer %{number}" zoom="1" data-layer-id="4387286925305" style="fill: rgb(108, 128, 146); fill-opacity: 0.4"/>
        <path fill="#6C8092" d="M300.1,87.2c-0.2-0.1-0.6,0-0.8,0.3c-0.4,0.5-0.7,1.8,0.3,6.8c0.5,2.5,1,4.2,1.3,5.6    c0.4,1.4,0.6,2.4,0.7,3.5c0.4,1.3,0.7,2.6,0.9,3.9c0.2,0,0.3-0.1,0.3-0.3c0.5-3,0-4.8-0.6-7.2c-0.4-1.4-0.8-3-1.3-5.4    c-0.8-4.2-0.6-5.2-0.6-5.3c0.1-0.1,0.2-0.2,0.2-0.5c0-0.2,0-0.3,0-0.5C300.6,87.6,300.4,87.3,300.1,87.2z" name="Layer %{number}" zoom="1" data-layer-id="8905198825305" style="fill: rgb(108, 128, 146); fill-opacity: 0.4"/>
        <path fill="#6C8092" d="M305.8,107.8c0.1,0.1,0.1,0.1,0.2,0.2c0.2,0.1,0.2,0.1,0.4,0.2c0.1,0.1,0.3,0,0.4,0    c0.1-0.1,0.2-0.2,0.2-0.4c0.4-3.6,4.6-7.4,4.7-7.4c0.2-0.2,0.2-0.6,0-0.9c-0.1-0.2-0.2-0.3-0.3-0.5c-0.2-0.3-0.5-0.4-0.7-0.2    c-0.2,0.2-4.6,4.1-5.1,8.4C305.6,107.4,305.7,107.7,305.8,107.8z" name="Layer %{number}" zoom="1" data-layer-id="4003314725305" style="fill: rgb(108, 128, 146); fill-opacity: 0.4"/>
        <path fill="#6C8092" d="M316.9,117.8c0.1,0.1,0.3,0.1,0.4,0c0.1-0.1,0.2-0.2,0.2-0.4c0-0.2,0-0.3,0.1-0.5c0.1-0.3-0.1-0.7-0.4-0.8    c-3.9-2-9.4,2.6-9.6,2.8c-0.2,0.2-0.2,0.5-0.1,0.8c0.1,0.2,0.1,0.3,0.2,0.5c0,0,0,0.1,0.1,0.1c0.1,0.1,0.2,0.2,0.2,0.2    c0.1,0,0.2,0,0.3-0.1C308.5,120.3,313.7,116.1,316.9,117.8z" name="Layer %{number}" zoom="1" data-layer-id="2716343225305" style="fill: rgb(108, 128, 146); fill-opacity: 0.4"/>
        <path fill="#6C8092" d="M324.2,133.6c0.2-0.1,0.3-0.5,0.2-0.9c-0.1-0.2-1.7-4.2-7.5-5.6c-4.8-1.2-5.5-3.6-5.5-3.6    c-0.1-0.3-0.3-0.6-0.6-0.5c-0.2,0-0.2,0-0.4,0.1c-0.2,0.1-0.4,0.4-0.3,0.7c0,0.1,0.2,0.8,0.8,1.6c0.8,1.1,2.5,2.7,6,3.5    c4.9,1.2,6.4,4.5,6.4,4.6c0.1,0.2,0.2,0.3,0.3,0.4c0.1,0.1,0.2,0.1,0.4,0C324,133.7,324,133.7,324.2,133.6z" name="Layer %{number}" zoom="1" data-layer-id="1620662625305" style="fill: rgb(108, 128, 146); fill-opacity: 0.4"/>
        <path fill="#6C8092" d="M330.1,254.3c0.1,1.3,1.4,0.5,1.5-0.7c0.3,0,0.6-0.1,0.8-0.6c4.1-9.3,3.8-32.1-5.1-31.5    c-1.6,0.1-2.9,0.8-4,1.8c-0.3,0.3-4.4-8.1-3.9-2.2c0,0.2,2.8,3.5,2.7,3.7c-1.8,2.8-2.5,6.8-1.8,10.7c0.6,3.6,2.5,6.4,4.6,8.5    C327.7,246.7,329.7,248.4,330.1,254.3z M326.7,223.5c4.5-1.5,6.3,6.6,6.8,11.6c0.3,4,0.1,8.7-1,13c0-2.3-0.4-4.5-0.7-6.5    c-0.8-5.2-2-9.8-5-12.8c-0.7-0.7-1.7,1-0.9,1.8c2.4,2.5,3.7,6.3,4.3,10.7c0.3,2.4,1,5.5,0.8,8.4c-0.8-3.2-2.3-5.1-4.5-7    C321.8,238.5,318,226.5,326.7,223.5z" name="Layer %{number}" zoom="1" data-layer-id="2753929425305" style="fill: rgb(108, 128, 146); fill-opacity: 0.4"/>
        <path fill="#6C8092" d="M322.7,166c1.8,0.7,3.7,0.9,5.5,1.2c0.8,0.1,1.5,0.2,2.3,0.4c2.5,0.5,5.2,1.3,7.6,3.1     c0.1,0.1,0.4,0.3,0.7,0.2c0.1,0,0.2-0.1,0.3-0.1c0.1,0,0.1,0.1,0.1,0.1c0-0.1,0-0.1,0-0.2c0.1-0.1,0.3-0.5,0.2-1.2     c-0.7-2.8-1.3-5.9-1.8-9.4c0-0.3-0.1-0.4-0.1-0.7c-0.3-2-0.6-4.2-1.2-6.2c-1.2-4.2-3.1-7.5-5.4-9.4c-2.8-2.2-6.9-3.9-10.2-2.4     c-1.9,0.9-3.2,2.6-4,5.1c0,0.1,0,0.2,0,0.2c-0.1,0.1-0.2,0.2-0.4,0.3c-0.8,0.8-1.6,1.7-2.5,2.7c-0.1,0.1-0.1,0.1-0.2,0.2     c0,0.2,0,0.2,0.1,0.4c0,0.2,0.1,0.4,0.1,0.6c0.1,0.9,0.2,1.4,0.2,2.3c0.3-0.3,0.4-0.5,0.7-0.8c0.7-0.7,1.3-1.4,1.9-2     C317,157,318.4,164.4,322.7,166z M318.1,149.3c0.7-0.6,1.6-0.8,2.8-0.9c1.1-0.1,2.4,0.4,3.2,1c2.8,1.9,6.9,7.4,9.1,12.1     c0.2,0.5,0.6,0.6,0.9,0.4c0.3-0.3,0.4-1.1,0.2-1.6c-1.7-3.8-4.6-7.7-5.8-9.2c-3.3-3.8-5.5-4.7-6.3-5c-1.2-0.5-2.3-0.6-3.3-0.3     c0.7-1.3,1.7-2.1,3.1-2.5c2.8-0.9,6.8,0.5,9.5,3.5c1.9,2.1,3.4,5.3,4.2,9.4c0.2,1.2,0.4,2.5,0.6,3.7c0.4,2.6,0.8,5.3,1.3,8     c-3.1-2-6.5-2.5-9.8-2.9c-1-0.1-2-0.3-2.9-0.4c-2.7-0.5-4.4-1.9-5.3-4.7C318.6,156.7,318.2,152.2,318.1,149.3z" name="Layer %{number}" zoom="1" data-layer-id="2910755325305" style="fill: rgb(108, 128, 146); fill-opacity: 0.4"/>
        <path fill="#6C8092" d="M353.9,203L353.9,203c-3.2-1-5.2-5.4-7.3-9.5c-0.4-0.7-0.5-1-0.9-1.7c-2.1-3.8-4.3-7.6-6.8-10.8     c-2.7-3.3-5.1-4.3-8.1-3.7c-1.4,0.3-2.8,0.6-3.9,2c-1.5,1.8-2.8,2.6-5.2,3.6c-0.6,0.3-1.2,0.8-1.8,1.5c-0.1,0.1-0.2,0.2-0.3,0.4     c0.1,0.2,0.1,0.3,0.2,0.5c0.1,0.2,0.2,0.5,0.3,0.7c0.1,0.2,0.1,0.3,0.2,0.5c0.1,0.2,0.1,0.4,0.2,0.7c0.1,0.4,0.2,0.6,0.3,1     c0.2-0.3,0.3-0.4,0.6-0.7c0.3-0.4,0.6-0.7,0.9-1c0.8,0.3,1.9,1.9,3.1,4.5c0.7,1.6,1.4,3.3,2.2,4.9c1.9,4.1,3.6,6.8,5.7,8.5     c2.2,1.8,4.4,2.8,6.6,3.1c0.7,0.1,1.4,0.1,2.2,0c1.5-0.2,3-0.5,4.5-0.8c2.3-0.5,4.7-1.1,7.1-1.1c0,0,0.1,0,0.1,0     c0.4,0.1,0.9-0.4,1-1.1C354.6,203.8,354.4,203.2,353.9,203z M345,204.4c-0.5,0.1-0.7,0.2-1.2,0.3c-4.1,0.9-7.4-0.1-10.7-2.9     c-2.4-2.1-3.9-5.7-5.4-9.1c-0.2-0.4-0.3-0.6-0.4-1c-0.2-0.4-0.4-0.9-0.6-1.4c-0.7-1.6-1.5-3.4-2.6-4.6c1.9-0.2,3.9,1.4,5,2.5     c0.4,0.4,0.7,0.9,1.1,1.3c0.1,0.2,0.2,0.2,0.3,0.4c0.2,0.3,0.4,0.5,0.5,0.8c0.4,0.7,0.9,1.5,1.3,2.3c1.3,2.3,2.5,4.7,4.3,6.5     c2,1.9,4.4,2.3,6.7,2.7c1.6,0.3,2.6,0.3,3.9,1c0.3,0.1,1-0.1,1.3-0.4c0.2-0.3,0.4-0.4,0.3-0.8c0-0.4-0.2-0.8-0.5-0.9     c-1.5-0.8-3.1-1-4.7-1.3c-2.8-0.5-5.5-0.9-7.4-3.8c-0.8-1.2-1.7-2.8-2.6-4.4c-0.7-1.1-1.3-2.3-2.1-3.4c0,0,0,0,0,0     c0-0.1-0.1-0.1-0.1-0.1c-0.6-0.9-1.1-1.5-1.6-2.1c-0.3-0.4-0.7-0.7-1-0.9c-1-1-1.9-1.6-2.7-2c0,0,0.1,0,0.1-0.1     c0.4-0.3,0.8-0.8,1.2-1.2c0.2-0.3,0.5-0.5,0.7-0.8c0.7-0.7,1.7-0.9,2.8-1.2c3.6-0.8,6.3,2.1,8.8,5.7c1.7,2.4,3.2,5.2,4.7,7.9     c0.6,1.1,1.2,2.2,1.7,3.3c1.2,2.2,2.5,4.7,4.1,6.6C348.5,203.6,346.7,204,345,204.4z" name="Layer %{number}" zoom="1" data-layer-id="4781612925305" style="fill: rgb(108, 128, 146); fill-opacity: 0.4"/>
        <path fill="#6C8092" d="M316.7,213.7c-0.1-0.5-0.2-0.8-0.3-1.3c0,0,0-0.1,0-0.1c0,0,0,0,0,0c-0.1-0.8-0.2-1.3-0.4-2.1     c-0.1-0.2-0.1-0.3-0.2-0.4c-0.1,0-0.2-0.1-0.3-0.1c-1.4-0.5-2.9-1.1-4.4-1.4c-0.2,0-0.5-0.1-0.7-0.1c0-0.1-0.1-0.2-0.2-0.3     c-2.1-2.4-4.7-3.3-7.5-2.8c-5,0.9-9.6,5.5-12.4,9.4c-2.4,3.3-3.7,7.5-4.1,12.3c-0.2,2.3-0.1,4.6-0.1,6.8c0,0.3,0,0.5,0,0.8     c0,3.9-0.4,7.5-1.2,10.7c-0.1,0.6,0.2,0.9,0.3,0.9c0.1,0,0.1,0.1,0.2,0.1c0.5,0.2,1-0.2,1.2-0.3c3.4-2.6,7.2-4.3,10.8-5.7     c1.1-0.4,2.2-0.8,3.3-1.2c2.6-0.9,5.3-2,7.7-3.6c5.9-4,6-15.1,3.6-23.3c1,0.2,2.4,0.7,3.8,1.2     C316.1,213.4,316.3,213.5,316.7,213.7z M302,207.3c1-0.3,1.9-0.3,2.8-0.2c1.1,0.1,2.2,0.5,3.1,1.2c-1.7,0.4-3.3,1.3-4.8,2.8     c-0.8,0.8-3.3,3.4-6.5,9.5c0,0.1-3.6,6.7-5.6,12.8c-0.2,0.6,0.1,1.2,0.5,1.4c0.4,0.2,0.8-0.1,0.9-0.6c2.1-6.1,6.1-14.4,9.2-18.4     c0.8-1.1,2.4-2.6,4-3.3c1.7-0.7,3-1.2,4.4-1c1.2,3.7,2.3,9.8,1.7,14.5c-0.5,4.2-2.7,7-6.6,8.8c-1.3,0.6-2.7,1.2-4.1,1.7     c-4.8,1.9-9.7,3.6-14,6.7c0.6-3.2,0.7-6.5,0.7-9.6c0-1.4,0-2.8,0-4.2c0.1-4.7,0.9-8.7,2.8-12.1     C293.2,212.6,297.8,208.4,302,207.3z" name="Layer %{number}" zoom="1" data-layer-id="4522806525305" style="fill: rgb(108, 128, 146); fill-opacity: 0.4"/>
        <path fill="#6C8092" d="M307.8,189.4c2,0.5,4,1,6,1.7c0.1,0.2,0.2,0.5,0.3,0.7c0,0.1,0.1,0.1,0.1,0.2c0.5,1.2,1,2.4,1.5,4     c0.1,0.2,0.7,1.8,0.7,2c0.3-0.1-0.2-1.7,0.1-1.8c0.1-0.1,0.3-0.1,0.4-0.2c0.3-0.1,0.4-0.1,0.6-0.2c-0.1-0.3-0.2-0.5-0.3-0.8     c-0.5-1.4-1.1-3-2.1-5c-0.1-0.2-0.1-0.2-0.2-0.4c0,0,0,0,0,0c-0.6-1.7-1.1-3.5-1.5-5.3c-0.1-0.5-0.2-0.8-0.4-1.4     c-0.6-2.4-1.6-4.6-3-6.9c-2.5-4-5.7-7.6-10.1-11.1c-4.6-3.6-8.5-5.6-12.4-6.6c-1.1-0.3-2.3-0.4-3.4-0.5c-0.6-0.1-1.3-0.1-1.9-0.2     c-1.9-0.3-3.6-1.1-5.3-2.5c-0.2-0.2-0.5-0.2-0.8-0.1c-0.3,0.1-0.5,0.4-0.5,0.7c0,0.3,0.1,0.6,0.3,0.8c0,0.1,0.1,0.3,0.1,0.4     c1.7,2.6,2.9,5.7,4,8.7c1.8,5.2,3.4,10.6,7.4,14.7c3.6,3.6,8.4,5.6,12.3,6.9C302.5,188,305.2,188.7,307.8,189.4z M278.9,158.3     c1,0.4,2,0.7,3,0.9c0,0-0.1,0.1-0.1,0.1c-0.4,0.3-0.4,0.9-0.1,1.3c3.8,5.2,8.5,10.2,14.5,15.7c2.4,2.2,4.9,4.2,7.8,6.2     c0.5,0.3,0.7,0.5,1.1,0.8c2.1,1.4,4.2,2.9,6.1,4.8c-1.1-0.3-2.2-0.6-3.2-0.8c-6.7-1.6-13.7-3.2-19.2-8.2c-4-3.6-5.6-9.1-7.4-14.4     C280.8,162.6,279.9,160.4,278.9,158.3z M305.8,181.3c-2.6-1.8-5.4-3.6-7.8-5.8c-6-5.3-11-10.6-15-16c0,0,0,0-0.1-0.1     c0.8,0.1,1.7,0.2,2.5,0.3c4.7,0.5,9.2,3.3,13.3,6.4c4.1,3.2,7.6,7,10.2,11.1c1.3,2.1,2.3,4.4,3.1,7.5c0.1,0.6,0.3,1.1,0.4,1.7     C310.3,184.5,308,182.9,305.8,181.3z" name="Layer %{number}" zoom="1" data-layer-id="0178604225305" style="fill: rgb(108, 128, 146); fill-opacity: 0.4"/>
        <path fill="#6C8092" d="M306.1,149.4c-0.6,0.6-1.3,0.8-2.1,0.6c5.8,11.3,13.1,30.7,12,53.4c-1.1,22.2-5.3,45.6-18.5,65.3    c-2,3-4,6-6,9.1c-3.6,5.4-7.6,11.2-11.8,16.6c-4.6,5.9-9.4,11.2-13.1,14.7c0.7,0.2,1.3,0.7,1.8,1.2c3.7-3.6,8.2-8.6,12.8-14.5    c4.2-5.4,8.3-11.3,11.9-16.7c2-3,4.2-6,6-9c12.7-21.8,17.8-41.4,19-66.9C319.2,180.6,312,161,306.1,149.4z" name="Layer %{number}" zoom="1" data-layer-id="1820369325305" style="fill: rgb(108, 128, 146); fill-opacity: 0.4"/>
        <path fill="#6C8092" d="M320.8,189.4c-0.2-3.7-1-7.6-1.4-11.4c-0.9-6.8-2-14.4-3.5-21.6c-0.7-3.6-1.5-7-2.4-10.1    c-0.1,0.1-0.2,0.2-0.4,0.2c-0.6,0.1-1.3-0.1-1.8-0.6c0.9,3.4,1.8,7.2,2.6,11c1.5,7.1,2.6,14.6,3.4,21.4c0.5,3.9,1.2,7.8,1.4,11.5    c1.6,25-2.3,45.1-12,68.5c-7.8,18.8-24.2,37.6-43.3,47.4c0,1.3,0.1,2-1.2,2.4c0,0.2,0,0.5-0.1,0.7c20.9-9.5,38-29,46.4-49.2    C318.5,235.5,322.4,215,320.8,189.4z" name="Layer %{number}" zoom="1" data-layer-id="0261523625305" style="fill: rgb(108, 128, 146); fill-opacity: 0.4"/>
        <path fill="#6C8092" d="M303,106.2c-0.1-0.9-0.2-1.8-0.2-2.7c-0.3-5.3-4.8-7.7-8.6-9.6c-0.3-0.1-0.4-0.2-0.7-0.4    c-4-1.9-5.3-0.3-8.7,3.1c-0.5,0.5-1.1,1.1-1.8,1.8c-2.5,2.4-3.7,5.4-3.7,8.5c0,0.2,0,0.3,0,0.5c-0.2-0.2-0.3-0.4-0.4-0.5    c-1.6-1.8-5.6-3.2-7.9-1.6c-1,0.7-1.6,0.7-2.5,0.7c-0.8,0-1.8,0-3,0.6c-1.9,0.8-3.1,2.6-4,3.9c-0.4,0.5-0.7,1-1,1.3    c-0.4,0.4-0.5,0.9-0.5,1.4c0,1,0.8,2.1,1.2,2.7c-0.5,1.3-1.8,5.1,0.8,8c2.2,2.4,4,3.8,7.2,4.4c-3.8,0.7-6.7,3.1-7.9,5.2    c-0.7,1.3-1,2.5-0.6,3.6c0.9,2.8,1.1,8,1.1,8c0,0.1,0,0.2,0,0.3c0,0.2,0.1,0.3,0.2,0.4c0.1,0.1,0.3,0.1,0.4,0    c0.1-0.1,0.2-0.1,0.3-0.1c0.1,0,2.2-1.2,3.9,0.6c5.4,5.7,9.3,4.1,10.1,3.7c0.1-0.1,0.3-0.2,0.4-0.2c2-1.3,2.8-3.2,3.5-5.1    c0.4-1.1,0.9-2.3,1.6-3.4c1.2-2,2-5.1,2.1-7.6c0,0.1,0.1,0.1,0.1,0.2c-0.1,0.4-0.1,0.8-0.2,1.3c-0.2,1.3-0.4,2.9-1.2,4.6    c-1.8,3.4-3.1,6.5-1.8,13c0.5,2.7,1.2,4.1,2.2,4.6c1.3,0.6,2.8-0.5,4.8-2.2c0.2-0.2,0.3-0.3,0.6-0.5c2.4-2,2.8-3.8,2.8-5    c1,0.2,2.8,0.3,4.9-0.1c0.7-0.1,1.3-0.2,1.9-0.2c0.9-0.1,1.8-0.1,2.5-0.6c0.9-0.6,1.3-1.8,1.4-3.7c0.1-1.3-0.2-2.5-0.6-3.5    c1.1,0,4.3,0.1,6.3-0.6c0.3-0.1,0.6-0.3,0.9-0.5c1.4-1.1,1.9-3.5,2.5-6.4c0.2-1,0.4-1.9,0.6-3c0.9-4.2-0.1-5.7-1.5-7.5    c-0.3-0.4-0.6-0.8-0.9-1.3c-0.1-0.2-0.2-0.3-0.3-0.5c-1.3-1.9-1.3-1.9-0.1-5.4c0.5-1.6,0.4-3-0.3-3.9c-1.2-1.7-3.7-1.3-5.7-0.5    c-0.1,0-0.2,0.1-0.2,0.1C303.4,110.3,303.2,108.2,303,106.2z M308.3,123.1c0.1,0.2,0.2,0.3,0.3,0.5c0.3,0.5,0.7,1,1,1.4    c1.1,1.6,1.7,2.4,1,5.6c-0.2,1-0.4,2-0.6,3.1c-0.6,3-1.1,5.3-2.5,5.8c-1.8,0.6-5.2,0.6-6.1,0.6c-0.9-1-3.8-4.2-6.5-5.6    c0,0,0,0,0,0c-0.3-0.2-0.7-0.4-1-0.6c-1-0.8-1.3-1.5-1.5-2.2c-0.1-0.4-0.3-0.8-0.5-1.2c-0.2-0.3-0.3-1.5-0.3-2.7    c0.1,0.1,0.1,0.2,0.2,0.4c0.1,0.3,0.4,0.4,0.6,0.3c0.1,0,1.9-1,4.5,2.2c3.1,3.6,4.9,4.3,7.8,4.4c0.1,0,0.2,0,0.2-0.1    c0,0,0.1-0.1,0.1-0.1c0.1-0.1,0.1-0.3,0.1-0.4c0-0.2,0-0.3,0-0.5c0-0.3-0.3-0.6-0.5-0.6c-2.6,0-4-0.4-6.9-3.8    c-3.3-3.9-5.7-2.6-6-2.5c-0.1,0-0.1,0.1-0.1,0.1c0-0.4,0-0.9,0-1.3c1.6-1.6,3.6-3.7,5.6-5.8c1.3-1.3,3.7-3.7,4.5-4.5    c0.8-0.8,1.5-1.3,2-1.5c1.8-0.8,3.7-0.8,4.2-0.1c0.2,0.3,0.2,1-0.1,1.9C306.6,119.9,306.6,120.5,308.3,123.1z M290,148.1    c-0.1,0-0.1,0.1-0.1,0.2c-0.1,0.2-0.1,0.4,0,0.6c0.1,0.2,0.1,0.3,0.2,0.4c0,0,0.7,1.8-2.2,4.3c-0.3,0.2-0.4,0.3-0.6,0.5    c-1.5,1.3-2.8,2.3-3.5,2c-0.4-0.2-0.9-0.9-1.4-3.5c-1.2-5.9,0-8.7,1.6-11.9c1-1.9,1.2-3.8,1.4-5.1c0.1-0.6,0.1-1.1,0.2-1.5    c0.1-0.1,0.2-0.3,0.3-0.4c0.4-0.3,1.1-0.3,1.6-0.3c0.2,0.1,0.5,0.2,0.7,0.2c-0.1,0.1-0.2,0.1-0.3,0.2c-0.2,0.2-0.2,0.5-0.1,0.7    c1.7,2.8,2.7,4.6,5.7,5.4c2,0.5,2.4,1.1,3.4,2.8c0.2,0.4,0.5,0.8,0.8,1.3c0.1,0.1,0.2,0.2,0.3,0.2c0.1,0,0.2,0,0.3-0.1    c0,0,0,0,0,0c0.1-0.1,0.2-0.2,0.3-0.3c0.1-0.1,0.2-0.2,0.2-0.4c0-0.2,0-0.3-0.1-0.4c-0.3-0.5-0.5-0.9-0.7-1.2    c-1.1-1.8-1.7-2.8-4.3-3.5c-2.5-0.6-3.2-1.9-4.9-4.7c0,0,0,0,0,0c0.2,0,0.5,0,0.7,0c1,0.2,2.4,0.7,3.8,1.5    c0.3,0.2,0.6,0.4,1.1,0.7c2.5,1.8,6.7,4.9,6.5,9.1c-0.2,2.8-0.9,2.8-2.8,2.9c-0.6,0-1.3,0.1-2.1,0.2c-2.8,0.6-5.2,0-5.3,0    c-0.2,0-0.3-0.1-0.4-0.1C290.2,148,290.1,148,290,148.1z M269.7,129.6c4.2-0.6,9-1.4,10.7-1.8c0.3,1,0.9,2.5,2.1,3.2    c0,0,0.2,0.1,0.3,0.5c0.5,2-0.3,6.4-1.8,8.8c-0.7,1.3-1.2,2.5-1.7,3.6c-0.8,2-1.4,3.6-3.3,4.7c-2.7,1.5-6.3-0.9-8.6-3.3    c-1.6-1.7-3.5-1.5-4.5-1.2c-0.1-1.7-0.4-5.3-1.2-7.5c-0.2-0.7-0.1-1.6,0.5-2.5C263.6,132,266.6,130.1,269.7,129.6z M262.3,115.4    c-0.4-0.4-1.1-1.4-1.1-2.1c0-0.2,0-0.3,0.2-0.4c0.4-0.4,0.8-0.9,1.2-1.5c0.5-0.7,1-1.4,1.6-2.1c0.6-0.7,1.2-1.1,1.9-1.4    c1.1-0.5,1.8-0.5,2.6-0.5c0.9,0,1.9,0,3.1-0.9c1.8-1.2,5.2,0.1,6.2,1.3c1.2,1.4,5,8.9,5,11.8c0.1,2.8-0.9,4.1-0.9,4.1    c-0.4,0.4-0.6,0.6-1.1,1c0,0-4,2.3-8.8,2.3c-5,0-6.8-1.2-9.5-4.1c-2.4-2.6-0.4-6.6-0.4-6.8c0-0.1,0-0.1,0.1-0.1    c0.1-0.2,0.1-0.4-0.1-0.6C262.4,115.5,262.4,115.4,262.3,115.4z M291.2,132.1c0.1,0.2,0.1,0.4,0.2,0.7c-0.1,0-0.2-0.1-0.3-0.1    c0-0.6-0.4-1.5-1.2-2.4c0.1,0,0.1,0,0.2-0.1c0.1-0.1,0.2-0.1,0.3-0.2c0.1,0.5,0.2,0.9,0.4,1.2C291,131.5,291.1,131.8,291.2,132.1z     M288.3,132c-0.1,0-0.3,0-0.5-0.1c0,0-0.1-0.1-0.1-0.1c-0.2-0.8-0.5-1.8-0.7-2.4c0.1-0.1,0.1-0.1,0.2-0.1c0.4,0.3,0.4,0.4,0.7,0.7    c0.2,0.2,0.4,0.5,0.8,0.9c0.6,0.6,0.9,1.1,1,1.4c0,0-0.1,0-0.1,0c0,0,0,0,0,0C289,132.1,288.5,132,288.3,132z M281.6,126.3    C281.6,126.3,281.6,126.3,281.6,126.3c0.2-0.2,0.7-0.4,1.2-0.5c0.1,0,0.2-0.1,0.3-0.1c0.5,0.9,0.8,1.8,0.4,2.1    c-0.2,0.2-0.5,0.4-0.5,0.4c-0.1-0.1-0.4-0.5-0.8-0.9c-0.1-0.2-0.2-0.3-0.4-0.5C281.7,126.5,281.7,126.3,281.6,126.3z M286.7,125.8    C286.7,125.8,286.7,125.8,286.7,125.8C286.7,125.8,286.7,125.8,286.7,125.8c0.1,0.1,0.1,0.1,0.2,0.2c0.3,0.5,0.3,1.2-0.1,1.6    c-0.3,0.3-0.7,0.3-1,0c-0.1-0.2-0.3-0.3-0.4-0.4c-0.3-0.5-0.3-1.2,0.1-1.5C285.8,125.3,286.3,125.4,286.7,125.8z M288.4,127.6    c0-0.1,0-0.3,0.2-0.5c0.1,0.1,0.2,0.1,0.3,0.3c0.2,0.2,0.7-0.2,1,0c0.2,0.2,0.1,1,0.2,1.1c0,0.1,0,0.7-0.1,0.8    c-0.2-0.1-0.8-0.8-1.3-1.2C288.5,127.9,288.4,127.7,288.4,127.6z M290.6,124.3c-0.5,0.8-0.6,1.1-1.2,1.1c-0.5,0.1-1-0.1-1.4-0.4    c0.1-0.1,0.1-0.2,0.2-0.4c0.2-0.3,0.3-0.6,0.4-0.9c0.1,0,0.6-0.1,0.6-0.1c0.6,0,1.2-0.1,1.8-0.2    C290.9,123.8,290.8,124.1,290.6,124.3z M286.3,120.2c0,0.1,0,0.2,0,0.4c0,0.8,0,1.3,0.1,1.7c0,0.6,0,0.6-0.5,1.3    c-0.1,0.2-0.3,0.2-0.3,0.2c-0.1,0-0.4-0.4-0.5-0.7c-0.1-0.2-0.1-0.3-0.1-0.5c-0.3-1.1-0.5-1.9-0.5-2.2c0.4,0,0.8-0.1,1.2-0.1    c0.2,0,0.5-0.1,0.6-0.2C286.2,120.1,286.2,120.2,286.3,120.2z M284.4,124.6c-0.1,0.1-0.1,0.2-0.2,0.3c-0.1-0.2-0.5-0.4-0.5-0.4    c0-0.1-0.4-0.4-0.4-0.4c0.1-0.1-0.2-1.3,0.5-1.4C284.4,122.5,284.7,124.1,284.4,124.6z M292.8,122.3c-0.3-0.4-0.6-0.5-1.1-0.5    c0.4-0.2,1-0.3,1.6-0.5c0.2,0,0.3-0.1,0.5-0.1C293.5,121.6,293.1,121.9,292.8,122.3z M284.8,132c-0.2-0.5-0.4-0.9-0.7-1.2    c0.1-0.2,0.2-0.5,0.3-0.6c0.2-0.3,0.4-0.7,0.6-1.1c0.2,0.3,0.4,0.6,0.6,1.1c0.2,0.6,0.1,0.7-0.2,1.3c-0.1,0.3-0.3,0.6-0.5,1    C284.9,132.3,284.9,132.2,284.8,132z M285.2,118.7C285.2,118.7,285.1,118.7,285.2,118.7c-0.4,0.1-0.7,0.2-1,0.1c0,0,0,0,0,0    c-0.1-0.7-0.3-1.4-0.5-2.2C284.3,117.4,284.8,118.1,285.2,118.7z M296.5,118.4c-1.3,0.7-2.6,1-3.6,1.3c-1,0.2-1.8,0.4-2.4,0.9    c-0.7,0.6-1.2,1-1.6,1.3c-0.4-0.6-0.6-1-1.1-1.6c0-0.1-0.2-0.3-0.5-0.8c-0.1-0.3-0.2-0.5-0.4-0.7c0,0,0,0-0.1,0    c-0.7-1-1.8-2.6-3.7-4.9c-1.7-2.1-2.7-4.5-2.7-6.9c0-2.7,1.1-5.3,3.3-7.4c0.7-0.6,1.3-1.2,1.8-1.8c3.3-3.3,4.3-4.5,7.5-2.9    c0.3,0.1,0.4,0.2,0.7,0.4c3.9,1.9,7.3,3.8,7.6,7.8c0.1,1,0.2,1.9,0.3,2.8c0.3,3,0.5,5.6-0.9,8.1    C299.5,115.3,298,116.9,296.5,118.4z" name="Layer %{number}" zoom="1" data-layer-id="7170469825305" style="fill: rgb(108, 128, 146); fill-opacity: 0.4"/>
        <path fill="#6C8092" d="M264.6,140.9c-0.2,0.2-0.2,0.5,0,0.7c0.1,0.1,0.2,0.2,0.3,0.3c0.1,0.1,0.2,0.1,0.3,0.1    c0.1,0,0.2,0,0.3-0.1c0.7-0.7,1.6-1.1,2.7-1.6c1-0.4,2.1-0.9,3.2-1.7c0.3-0.2,0.6-0.5,0.9-0.8c2.7-2.5,4.4-4.3,4.4-4.3    c0.2-0.2,0.2-0.5,0-0.7c-0.1-0.1-0.2-0.2-0.3-0.3c-0.1-0.1-0.2-0.2-0.3-0.2c-0.1,0-0.2,0-0.3,0.1c0,0-1.8,1.8-4.4,4.3    c-1.3,1.2-2.6,1.8-3.8,2.3C266.5,139.6,265.5,140,264.6,140.9z" name="Layer %{number}" zoom="1" data-layer-id="0891462925305" style="fill: rgb(108, 128, 146); fill-opacity: 0.4"/>
        <path fill="#6C8092" d="M264.7,118.9c-0.1-0.1-0.2-0.1-0.3-0.1c-0.2-0.1-0.5,0-0.6,0.3c-0.1,0.2-0.1,0.6,0.1,1    c0.3,0.6,1.2,1.3,5,1.7c1.9,0.2,3.2,0.2,4.2,0.2c1.8,0,2.8,0,4.8,1.2c0.1,0.1,0.2,0.1,0.4,0c0.1,0,0.1,0,0.1-0.1    c0,0,0.1-0.1,0.1-0.2c0.1-0.2,0.1-0.2,0.2-0.4c0.1-0.3,0-0.6-0.2-0.7c-2.3-1.4-3.6-1.3-5.4-1.3c-1,0-2.3,0-4.1-0.2    c-3.1-0.3-3.8-0.9-4-1C265,119.1,264.9,119,264.7,118.9z" name="Layer %{number}" zoom="1" data-layer-id="5164765525305" style="fill: rgb(108, 128, 146); fill-opacity: 0.4"/>
        <path fill="#6C8092" d="M279.3,118.7c0.1-0.1,0.1-0.1,0.1-0.2c0.1-0.2,0.1-0.2,0.1-0.4c0-0.1,0-0.3,0-0.4    c-0.1-0.1-0.2-0.2-0.3-0.3c-2.7-1.4-5.5-7-5.6-7.1c-0.1-0.3-0.4-0.4-0.6-0.2c-0.1,0.1-0.2,0.1-0.3,0.2c-0.2,0.1-0.3,0.4-0.2,0.7    c0.1,0.3,3.1,6.2,6.3,7.8C279,118.8,279.2,118.8,279.3,118.7z" name="Layer %{number}" zoom="1" data-layer-id="0224017325305" style="fill: rgb(108, 128, 146); fill-opacity: 0.4"/>
        <path fill="#6C8092" d="M286.1,107.7c0-0.1,0-0.3,0-0.4c-0.1-0.1-0.2-0.2-0.3-0.3c-0.2-0.1-0.2-0.1-0.4-0.2    c-0.3-0.1-0.5,0-0.6,0.3c-1,4.3,2.6,11.7,2.8,12.1c0.1,0.3,0.4,0.4,0.6,0.3c0.1-0.1,0.2-0.1,0.3-0.2c0,0,0.1,0,0.1-0.1    c0.1-0.1,0.1-0.2,0.1-0.3c0-0.1,0-0.3-0.1-0.4C288.6,118.4,285.2,111.3,286.1,107.7z" name="Layer %{number}" zoom="1" data-layer-id="6930204525305" style="fill: rgb(108, 128, 146); fill-opacity: 0.4"/>
        <path fill="#6C8092" d="M296.4,100.9c-0.1-0.3-0.4-0.4-0.7-0.3c-0.1,0.1-2.5,1.8-2.8,8.8c-0.2,5.8-2.1,6.2-2.1,6.2    c-0.2,0-0.4,0.3-0.3,0.6c0,0.2,0.1,0.3,0.1,0.5c0.1,0.3,0.3,0.5,0.6,0.5c0.1,0,0.6-0.1,1.2-0.7c0.8-0.8,1.9-2.6,2-6.9    c0.2-6.1,2.2-7.6,2.2-7.6c0.1-0.1,0.2-0.2,0.2-0.3c0-0.1,0-0.3-0.1-0.5C296.6,101.2,296.5,101.1,296.4,100.9z" name="Layer %{number}" zoom="1" data-layer-id="2110235525305" style="fill: rgb(108, 128, 146); fill-opacity: 0.4"/>
        <path fill="#6C8092" d="M303.5,118.1c-0.1,0-0.1,0.1-0.2,0.1c0,0,0,0,0,0c-0.2,0-0.3,0.2-0.4,0.4c0,0.1-0.5,1.1-3.5,3    c-3.7,2.3-4.7,2.1-4.7,2.1c-0.2-0.1-0.5,0.1-0.5,0.3c0,0.2-0.1,0.3-0.1,0.5c-0.1,0.3,0.1,0.6,0.3,0.7c0.4,0.2,1.7,0.4,5.7-2.1    c1.3-0.8,2.3-1.5,3-2.2c0.7-0.7,1-1.2,1.1-1.7c0-0.3,0-0.6-0.1-0.8c-0.1-0.1-0.2-0.3-0.3-0.3C303.7,118,303.6,118,303.5,118.1z" name="Layer %{number}" zoom="1" data-layer-id="2080609325305" style="fill: rgb(108, 128, 146); fill-opacity: 0.4"/>
        <path fill="#6C8092" d="M286.6,138c-0.1-0.1-0.2-0.2-0.3-0.3c-0.1-0.1-0.2-0.1-0.3-0.1c-0.1,0-0.2,0.1-0.3,0.2    c-2.5,4.1-1.9,8.8-1.9,9c0,0.1,0.1,0.3,0.2,0.4c0.1,0.1,0.2,0.1,0.3,0.1c0.2,0,0.2,0,0.4,0c0.1,0,0.1,0,0.2-0.1    c0.1-0.1,0.2-0.3,0.2-0.5c0,0-0.5-4.3,1.6-7.9C286.8,138.5,286.8,138.2,286.6,138z" name="Layer %{number}" zoom="1" data-layer-id="3368956525305" style="fill: rgb(108, 128, 146); fill-opacity: 0.4"/>
        <path fill="#6C8092" d="M287.1,269.2c-24.9,39-70,65.3-114.9,66.8c-8.1,0.3-16.2-0.3-23.9-1.6c-40.4-7.1-78.4-30.3-99.3-60.5  c-24.8-35.9-25.8-70.7-26.2-85.5c0-0.9-0.1-1.8-0.1-2.6C21.2,141,41.3,103.5,82.4,74.3c18.2-12.9,40.8-20.9,65.5-23.1  c3.5-0.3,5.8-1.1,7.9-1.8c1.3-0.4,2.5-0.9,3.7-1.1c2.5-0.4,5.7-0.3,8.3-0.3l1,0c24.2,0.5,48.2,7,69.3,18.8  c11.7,6.5,22.5,14.7,32.2,24.2c0.5,0.5,1.4,0.5,1.9-0.1c0,0,0,0,0,0c0.5-0.5,0.5-1.4,0-1.9c-10.1-9.9-21.3-18.3-33.5-25  c-21.9-12.1-46.6-18.5-71.6-18.8c-0.6,0-1.1,0-1.7,0c-1.1,0-2.1,0-3.2,0c-1.4,0-2.7,0.2-4,0.6c-2.5,0.7-8.5,2.5-11.2,2.7  c-24.8,2.2-47.7,10.3-66.4,23.5c-41.9,29.7-62.3,68-60.7,113.7c0,0.8,0.1,1.6,0.1,2.6c0.4,15.1,1.4,50.5,26.7,87  c21.3,30.8,60,54.4,101,61.7c7.9,1.4,16.1,2,24.4,1.7l0,0.3l0-0.3c45.1-1.6,90.5-27.6,116-66.5c8.7-14.4,12.9-22.2,16.9-30.2  c0.3-0.6,0.4-1.4-0.1-1.7s-1.2,0.1-1.7,0.9C299.9,247.2,287.8,268.1,287.1,269.2z" name="Layer %{number}" zoom="1" data-layer-id="9825006725305" style="fill: rgb(108, 128, 146); fill-opacity: 0.4"/>
        <path fill="#6C8092" d="M41,162.9c9.6-39.8,35.2-76.3,66.7-95.3c37.4-22.5,72.1-21.2,87-20.7c0.9,0,1.8,0.1,2.6,0.1  c31.2,0.9,58.2,12.1,80.6,33.2c1.2,1.1,3.2,3.1,4.4,4.3c0.5,0.5,1.4,0.6,2,0.3l0,0c1.1-0.6,0.7-1.7-0.3-2.6  c-0.9-0.8-1.7-1.6-2.3-2.2c-23.3-22.8-51.5-34.8-84.3-35.7c-0.8,0-1.6-0.1-2.6-0.1c-15.1-0.5-50.4-1.8-88.5,21.1  c-32.1,19.3-58.1,56.4-67.9,96.9c-1.9,7.8-3,16-3.2,24.3l-0.3,0l0.3,0c-1.3,45.8,22.5,93.3,60.6,121.2c21.9,16,50.7,27.3,75.2,29.6  c3.4,0.3,7,0.5,10.7,0.5c24.9,0.1,51.9-6.1,68.8-15.8c7.4-4.2,11.4-6.4,17.9-11.7c2.1-2.6,4.9-7.5,4.6-7.7c-6,4.7-17.2,13.2-23.9,17  c-16.6,9.5-43,15.6-67.4,15.5c-3.7,0-7.2-0.2-10.5-0.5c-24-2.2-52.4-13.4-73.9-29.1c-37.4-27.3-60.7-74-59.5-118.9  C38.1,178.5,39.1,170.6,41,162.9z" name="Layer %{number}" zoom="1" data-layer-id="4641712925305" style="fill: rgb(108, 128, 146); fill-opacity: 0.4"/>
        <path fill="#6C8092" d="M107.7,60.9c0.8-0.5,1.5-0.9,2.2-1.3c38.2-23.4,80.7-24.4,126.3-3c15,7,28.8,17.5,40.7,30.8  c0.6,0.6,1.5,0.7,2.1,0.3l0,0c0.9-0.6,0.2-1.8-0.6-2.6c-0.7-0.6-1.3-1.6-1.9-2.2c-11.5-12.2-24.8-22-39.2-28.8  c-46.5-21.8-89.9-20.7-128.9,3.2c-0.7,0.4-1.4,0.9-2.2,1.3c-12.9,7.8-43.2,26.1-62.6,66c-16.3,33.7-17.8,79-3.9,118.3  c2.7,7.6,6.2,15,10.6,22.1l-0.3,0.2l0.3-0.2c23.9,39.1,69.8,65.9,116.9,68.4c27.1,1.4,57.4-4.8,79.2-16.3c3-1.6,23.1-11.9,26.4-14.4  c-0.4-1-2.1-0.3-1.9-1.4c-3.6,2.8-22.8,11.9-25.8,13.4c-21.4,11.3-51.2,17.4-77.8,16c-46.2-2.4-91.3-28.8-114.8-67.1  c-4.2-6.9-7.7-14.2-10.3-21.6c-13.7-38.6-12.2-83.2,3.8-116.2C65.2,86.6,95,68.6,107.7,60.9z" name="Layer %{number}" zoom="1" data-layer-id="0467625925305" style="fill: rgb(108, 128, 146); fill-opacity: 0.4"/>
      </svg>
      <svg xmlns="http://www.w3.org/2000/svg" viewboxsize="575" data-root-id="3685140525305" y="49.6585" viewBox="1.5399999618530273 12.15999984741211 145.8000030517578 35.130001068115234" x="0" height="35.130001068115234" width="145.8000030517578" fonturl="https://fonts.gstatic.com/s/pacifico/v22/FwZY7-Qmy14u9lezJ96A4sijpFu_.ttf" zoom="1" editortype="buyer" data-layer-role="brandName" style="position: absolute; top: 49.6585px; width: 145.8px; height: 35.13px; left: 0px">
        <g data-horizontal-grow="center" zoom="1" root="[object Object]" style="fill: rgb(124, 130, 236); fill-opacity: 1">
          <path d="M27.56 23.68Q27.56 26.53 26.09 28.90Q24.62 31.28 21.80 32.79Q18.99 34.30 15.11 34.56L15.11 34.56L13.67 42.64Q12.83 47.29 9.11 47.29L9.11 47.29Q7.07 47.29 5.34 46.09Q3.62 44.88 2.58 42.40Q1.54 39.92 1.54 36.31L1.54 36.31Q1.54 29.51 3.73 24.77Q5.93 20.03 9.63 17.67Q13.33 15.31 17.78 15.31L17.78 15.31Q20.93 15.31 23.13 16.41Q25.32 17.52 26.44 19.41Q27.56 21.30 27.56 23.68L27.56 23.68ZM15.71 31.12Q22.57 30.24 22.57 23.98L22.57 23.98Q22.57 21.77 21.12 20.38Q19.66 18.99 16.61 18.99L16.61 18.99Q13.16 18.99 10.60 21.17Q8.04 23.34 6.65 27.21Q5.26 31.08 5.26 36.04L5.26 36.04Q5.26 38.12 5.68 39.72Q6.10 41.33 6.75 42.22Q7.40 43.11 8.00 43.11L8.00 43.11Q8.84 43.11 9.28 40.79L9.28 40.79L10.38 34.46Q9.08 34.26 9.24 34.30L9.24 34.30Q8.24 34.13 7.94 33.68Q7.64 33.23 7.64 32.52L7.64 32.52Q7.64 31.78 8.06 31.35Q8.47 30.91 9.21 30.91L9.21 30.91Q9.55 30.91 9.71 30.95L9.71 30.95Q10.52 31.08 10.95 31.12L10.95 31.12Q11.39 28.50 12.19 24.12L12.19 24.12Q12.39 22.98 13.11 22.49Q13.83 22.00 14.80 22.00L14.80 22.00Q15.91 22.00 16.39 22.42Q16.88 22.84 16.88 23.75L16.88 23.75Q16.88 24.28 16.81 24.62L16.81 24.62L15.71 31.12ZM29.98 43.81Q28.47 43.81 27.51 42.42Q26.56 41.03 26.56 38.95L26.56 38.95Q26.56 36.44 26.89 34.35Q27.23 32.25 28.00 29.91L28.00 29.91Q28.34 28.90 28.94 28.47Q29.54 28.03 30.85 28.03L30.85 28.03Q31.58 28.03 31.87 28.27Q32.15 28.50 32.15 28.97L32.15 28.97Q32.15 29.24 31.78 30.78L31.78 30.78Q31.45 32.02 31.25 33.02L31.25 33.02Q30.58 36.54 30.58 37.71L30.58 37.71Q30.58 38.42 30.75 38.70Q30.91 38.99 31.28 38.99L31.28 38.99Q31.78 38.99 32.54 37.98Q33.29 36.98 34.15 34.93Q35.00 32.89 35.80 29.91L35.80 29.91Q36.07 28.90 36.62 28.47Q37.18 28.03 38.28 28.03L38.28 28.03Q39.05 28.03 39.35 28.22Q39.66 28.40 39.66 28.90L39.66 28.90Q39.66 29.74 38.82 33.49L38.82 33.49Q37.88 37.78 37.88 38.79L37.88 38.79Q37.88 39.42 38.15 39.77Q38.42 40.12 38.85 40.12L38.85 40.12Q39.52 40.12 40.44 39.30Q41.36 38.48 42.90 36.64L42.90 36.64Q43.31 36.17 43.81 36.17L43.81 36.17Q44.24 36.17 44.50 36.57Q44.75 36.98 44.75 37.68L44.75 37.68Q44.75 39.02 44.11 39.76L44.11 39.76Q42.67 41.53 41.01 42.67Q39.35 43.81 37.24 43.81L37.24 43.81Q35.64 43.81 34.88 42.57Q34.13 41.33 34.13 39.09L34.13 39.09Q33.56 41.36 32.42 42.59Q31.28 43.81 29.98 43.81L29.98 43.81ZM44.41 43.81Q43.14 43.81 42.62 42.47Q42.10 41.13 42.10 38.18L42.10 38.18Q42.10 33.83 43.34 29.91L43.34 29.91Q43.64 28.94 44.33 28.49Q45.01 28.03 46.25 28.03L46.25 28.03Q46.92 28.03 47.19 28.20Q47.46 28.37 47.46 28.84L47.46 28.84Q47.46 29.37 46.96 31.25L46.96 31.25Q46.62 32.59 46.42 33.59Q46.22 34.60 46.09 36.07L46.09 36.07Q47.19 33.19 48.56 31.38Q49.94 29.57 51.26 28.80Q52.58 28.03 53.69 28.03L53.69 28.03Q55.87 28.03 55.87 30.21L55.87 30.21Q55.87 30.65 55.57 32.32L55.57 32.32Q55.30 33.66 55.30 34.00L55.30 34.00Q55.30 35.17 56.13 35.17L56.13 35.17Q57.07 35.17 58.55 33.69L58.55 33.69Q58.98 33.26 59.45 33.26L59.45 33.26Q59.89 33.26 60.14 33.64Q60.39 34.03 60.39 34.67L60.39 34.67Q60.39 35.90 59.72 36.61L59.72 36.61Q58.78 37.58 57.52 38.27Q56.27 38.95 54.86 38.95L54.86 38.95Q53.09 38.95 52.17 38.05Q51.24 37.14 51.24 35.60L51.24 35.60Q51.24 35.10 51.34 34.60L51.34 34.60Q51.41 33.93 51.41 33.69L51.41 33.69Q51.41 33.16 51.04 33.16L51.04 33.16Q50.54 33.16 49.72 34.28Q48.90 35.40 48.10 37.24Q47.29 39.09 46.79 41.13L46.79 41.13Q46.42 42.70 45.94 43.26Q45.45 43.81 44.41 43.81L44.41 43.81ZM72.21 36.17Q72.65 36.17 72.90 36.57Q73.15 36.98 73.15 37.68L73.15 37.68Q73.15 39.02 72.51 39.76L72.51 39.76Q71.27 41.26 69.01 42.54Q66.75 43.81 64.17 43.81L64.17 43.81Q60.66 43.81 58.71 41.90Q56.77 39.99 56.77 36.67L56.77 36.67Q56.77 34.36 57.74 32.37Q58.71 30.38 60.44 29.21Q62.16 28.03 64.34 28.03L64.34 28.03Q66.28 28.03 67.46 29.19Q68.63 30.34 68.63 32.32L68.63 32.32Q68.63 34.63 66.97 36.29Q65.31 37.95 61.36 38.92L61.36 38.92Q62.20 40.46 64.54 40.46L64.54 40.46Q66.05 40.46 67.97 39.40Q69.90 38.35 71.31 36.64L71.31 36.64Q71.71 36.17 72.21 36.17L72.21 36.17ZM63.77 31.32Q62.53 31.32 61.68 32.76Q60.82 34.20 60.82 36.24L60.82 36.24L60.82 36.31Q62.80 35.84 63.94 34.90Q65.08 33.96 65.08 32.72L65.08 32.72Q65.08 32.09 64.73 31.70Q64.37 31.32 63.77 31.32L63.77 31.32ZM88.66 43.91Q84.20 43.91 81.52 42.22Q78.84 40.53 78.84 37.04L78.84 37.04Q78.84 35.20 79.48 34.23Q80.12 33.26 81.35 33.26L81.35 33.26Q82.26 33.26 82.83 33.73Q83.40 34.20 83.40 34.93L83.40 34.93Q83.40 35.60 83.30 36.11L83.30 36.11Q83.30 36.24 83.25 36.57Q83.20 36.91 83.20 37.28L83.20 37.28Q83.20 38.79 84.72 39.52Q86.24 40.26 88.99 40.26L88.99 40.26Q91.84 40.26 93.45 39.24Q95.05 38.22 95.05 36.37L95.05 36.37Q95.05 35.23 94.32 34.41Q93.58 33.59 92.47 33.04Q91.37 32.49 89.36 31.68L89.36 31.68Q86.78 30.68 85.16 29.78Q83.53 28.87 82.38 27.31Q81.22 25.76 81.22 23.45L81.22 23.45Q81.22 21.03 82.51 19.16Q83.80 17.28 86.23 16.24Q88.66 15.21 91.94 15.21L91.94 15.21Q94.38 15.21 96.43 15.93Q98.47 16.65 99.69 18.12Q100.91 19.59 100.91 21.74L100.91 21.74Q100.91 23.85 100.28 24.92Q99.64 25.99 98.40 25.99L98.40 25.99Q97.53 25.99 96.95 25.45Q96.36 24.92 96.36 24.18L96.36 24.18Q96.36 23.55 96.46 23.01L96.46 23.01Q96.56 22.00 96.56 21.74L96.56 21.74Q96.56 20.33 95.19 19.59Q93.81 18.86 91.77 18.86L91.77 18.86Q88.89 18.86 87.37 19.91Q85.84 20.97 85.84 22.88L85.84 22.88Q85.84 24.15 86.63 25.05Q87.42 25.96 88.59 26.56Q89.76 27.16 91.87 28.00L91.87 28.00Q94.42 29.04 95.96 29.88Q97.50 30.71 98.59 32.15Q99.68 33.59 99.68 35.70L99.68 35.70Q99.68 39.66 96.68 41.78Q93.68 43.91 88.66 43.91L88.66 43.91ZM121.55 36.17Q121.98 36.17 122.23 36.57Q122.48 36.98 122.48 37.68L122.48 37.68Q122.48 39.02 121.85 39.76L121.85 39.76Q120.34 41.60 118.80 42.70Q117.26 43.81 115.15 43.81L115.15 43.81Q112.57 43.81 111.00 42.34Q109.42 40.86 109.42 38.42L109.42 38.42Q109.42 37.11 110.76 36.54L110.76 36.54Q112.24 35.90 112.87 35.18Q113.51 34.46 113.51 33.43L113.51 33.43Q113.51 32.82 113.26 32.52Q113.01 32.22 112.64 32.22L112.64 32.22Q111.73 32.22 110.64 33.53Q109.56 34.83 108.62 36.89Q107.68 38.95 107.14 41.13L107.14 41.13Q106.78 42.70 106.29 43.26Q105.80 43.81 104.77 43.81L104.77 43.81Q103.73 43.81 103.24 43.06Q102.76 42.30 102.59 40.73Q102.42 39.15 102.42 36.11L102.42 36.11Q102.42 30.95 103.48 25.35Q104.53 19.76 106.59 15.96Q108.65 12.16 111.53 12.16L111.53 12.16Q113.07 12.16 114.03 13.48Q114.98 14.80 114.98 16.91L114.98 16.91Q114.98 20.30 113.01 23.93Q111.03 27.56 106.58 32.42L106.58 32.42Q106.47 34.16 106.47 36.01L106.47 36.01Q108.08 31.82 110.16 29.93Q112.24 28.03 114.04 28.03L114.04 28.03Q115.72 28.03 116.74 29.17Q117.76 30.31 117.76 31.99L117.76 31.99Q117.76 33.83 116.82 35.37Q115.89 36.91 113.61 38.12L113.61 38.12Q113.74 39.02 114.43 39.57Q115.12 40.12 116.09 40.12L116.09 40.12Q117.13 40.12 118.10 39.32Q119.07 38.52 120.64 36.64L120.64 36.64Q121.04 36.17 121.55 36.17L121.55 36.17ZM110.83 15.47Q110.23 15.47 109.49 17.20Q108.75 18.92 108.07 21.85Q107.38 24.78 106.94 28.23L106.94 28.23Q109.02 25.79 110.38 22.91Q111.73 20.03 111.73 17.68L111.73 17.68Q111.73 16.61 111.50 16.04Q111.26 15.47 110.83 15.47L110.83 15.47ZM124.16 25.82Q122.75 25.82 122.05 25.17Q121.35 24.52 121.35 23.34L121.35 23.34Q121.35 22.17 122.27 21.39Q123.19 20.60 124.56 20.60L124.56 20.60Q125.80 20.60 126.57 21.20Q127.34 21.80 127.34 22.91L127.34 22.91Q127.34 24.25 126.47 25.04Q125.60 25.82 124.16 25.82L124.16 25.82ZM123.89 43.81Q121.71 43.81 120.73 42.27Q119.74 40.73 119.74 38.18L119.74 38.18Q119.74 36.67 120.12 34.31Q120.51 31.95 121.11 29.91L121.11 29.91Q121.41 28.84 121.91 28.44Q122.42 28.03 123.52 28.03L123.52 28.03Q125.23 28.03 125.23 29.17L125.23 29.17Q125.23 30.01 124.59 33.06L124.59 33.06Q123.79 36.74 123.79 38.05L123.79 38.05Q123.79 39.05 124.06 39.59Q124.33 40.12 124.96 40.12L124.96 40.12Q125.57 40.12 126.47 39.29Q127.37 38.45 128.88 36.64L128.88 36.64Q129.28 36.17 129.79 36.17L129.79 36.17Q130.22 36.17 130.47 36.57Q130.72 36.98 130.72 37.68L130.72 37.68Q130.72 39.02 130.09 39.76L130.09 39.76Q126.77 43.81 123.89 43.81L123.89 43.81ZM130.39 43.81Q129.12 43.81 128.60 42.47Q128.08 41.13 128.08 38.18L128.08 38.18Q128.08 33.83 129.32 29.91L129.32 29.91Q129.62 28.94 130.30 28.49Q130.99 28.03 132.23 28.03L132.23 28.03Q132.90 28.03 133.17 28.20Q133.44 28.37 133.44 28.84L133.44 28.84Q133.44 29.37 132.93 31.25L132.93 31.25Q132.60 32.59 132.40 33.59Q132.20 34.60 132.06 36.07L132.06 36.07Q133.17 33.19 134.54 31.38Q135.91 29.57 137.24 28.80Q138.56 28.03 139.67 28.03L139.67 28.03Q141.84 28.03 141.84 30.21L141.84 30.21Q141.84 31.52 141.11 34.93L141.11 34.93Q140.47 37.85 140.47 38.79L140.47 38.79Q140.47 40.12 141.44 40.12L141.44 40.12Q142.11 40.12 143.03 39.30Q143.95 38.48 145.49 36.64L145.49 36.64Q145.90 36.17 146.40 36.17L146.40 36.17Q146.83 36.17 147.08 36.57Q147.34 36.98 147.34 37.68L147.34 37.68Q147.34 39.02 146.70 39.76L146.70 39.76Q145.26 41.53 143.60 42.67Q141.94 43.81 139.83 43.81L139.83 43.81Q138.13 43.81 137.25 42.82Q136.38 41.83 136.38 39.96L136.38 39.96Q136.38 39.02 136.85 36.61L136.85 36.61Q137.29 34.50 137.29 33.69L137.29 33.69Q137.29 33.16 136.92 33.16L136.92 33.16Q136.48 33.16 135.70 34.28Q134.91 35.40 134.09 37.24Q133.27 39.09 132.77 41.13L132.77 41.13Q132.40 42.70 131.91 43.26Q131.43 43.81 130.39 43.81L130.39 43.81Z" transform="translate(0, 0)"/>
        </g>
      </svg>
    </svg>