<svg xmlns="http://www.w3.org/2000/svg" id="mySvg" class="roots-wrapper" width="200" height="60">
      <g transform="rotate(0 0 0)">
        <svg data-root-id="5120445639611" xmlns="http://www.w3.org/2000/svg" xmlns:xlink="http://www.w3.org/1999/xlink" version="1.1" id="Layer_1" x="0" y="0" viewBox="252.21902465820312 134.5 564.9810791015625 811.199951171875" xml:space="preserve" height="130" width="42" preserveAspectRatio="xMinYMin" zoom="1" editortype="buyer" data-layer-role="icon" style="&#10;            position: absolute;&#10;            height: 107.384px;&#10;            width: 74.7902px;&#10;            top: 233.808px;&#10;            left: 166.19px;&#10;          ">
          <path class="st0" d="M475.9,478.4c-1.1,0.1-2.2,0.3-3.3,0.3l-3.2,0.2c-0.5,0-1.1,0.1-1.6,0.1l-1.6,0.1c-1.1,0-2.1,0.1-3.1,0.2   c-1,0-2.1,0-3.1,0c-2,0.1-4.1-0.1-6.1-0.1c-1,0-2-0.2-3-0.2l-1.5-0.1c-0.5,0-1-0.1-1.5-0.2c-3.9-0.4-7.6-1.2-11.3-2.2   c-3.7-1-7.3-2.3-10.8-3.9c-3.5-1.6-7-3.5-10.5-5.6c-3.5-2.1-6.8-4.6-10.2-7.2c-3.4-2.6-6.7-5.5-10.3-8.6c0.3,2.4,0.9,4.6,1.7,6.8   c0.8,2.2,1.7,4.4,2.8,6.5c2.2,4.2,5,8.1,8.3,11.6c3.3,3.5,7.1,6.7,11.3,9.2c4.2,2.6,8.8,4.6,13.6,5.9c4.8,1.3,9.8,2,14.7,1.9   c0.6,0,1.2,0,1.8,0l1.8-0.1c1.2-0.1,2.4-0.2,3.6-0.4c2.4-0.4,4.8-0.8,7.1-1.5c9.2-2.6,17.6-7.1,24.3-13.7c-2.4,0.1-4.6,0.3-6.9,0.6   C478.1,478.2,477,478.3,475.9,478.4z" name="Layer %{number}" zoom="1" data-layer-id="4670143239611" style="fill: rgb(99, 106, 232); fill-opacity: 1"/>
          <path class="st0" d="M734.7,254.3c-26.1-37.4-56.6-66.8-90.6-87.4c-35.4-21.5-73.1-32.4-112-32.4c-34.1,0-67.5,8.5-99.2,25.1   c-30.4,16-58.6,39.2-83.6,68.9c-49.9,59.2-84.3,141.6-97,231.8c-0.6,4,2.2,7.6,6.2,8.2c4,0.5,7.6-2.2,8.2-6.2   c12.3-87.6,45.6-167.3,93.7-224.5c23.8-28.3,50.5-50.3,79.2-65.4c24.6-12.9,50.3-20.6,76.5-22.8c2.6,10.4,10.3,37,29.5,75.6   c22.5,45.2,65.7,116.1,144.1,196.8c34.5,35.5,59.3,75.3,73.8,118.5c11.6,34.5,16.7,71.2,15.1,109.1c-2.7,64.7-24.3,111-24.5,111.4   c-0.6,1.2-0.6,2.5-0.2,3.6c-4.1,8.5-8.4,16.7-13,24.6c5-17.6,7.5-35.8,7.4-54.1c-0.6-62.6-32-123.3-90.8-175.6   c-101.3-90-158.7-171.9-189.1-224.8c-32.9-57.2-42-93.7-42-94c-0.6-2.6-2.7-4.7-5.3-5.3c-2.6-0.7-5.4,0.2-7.2,2.2   c-1.9,2.1-46.4,52.8-49.9,117.6c-0.2,3.4-0.2,7.6-0.2,12.4c0.1,23.9,0.1,64-21.9,91.5c-12.7,15.8-26.5,24.4-37.5,31.3   c-7.2,4.5-13.5,8.3-17.5,13.2c-5.2,6.3-6.2,13.6-2.9,21.8c7.1,17.9,21.4,28.5,35.3,38.7c1.2,0.9,2.5,1.8,3.7,2.8   c1.4,2.6,0.6,14-4.9,21c-1.1,1.4-3.2,2.7-5.3,4c-4.8,3-13.8,8.6-10.4,20.1c3.8,12.5,12.1,23.6,23.5,31.3c4,2.7,8.2,4.9,12.7,6.6   c-11.6,2.8-20.9,9.7-25.3,18.8c-3.4,7.2-3.3,15.2,0.3,21.8c0.7,1.3,1.4,2.5,2,3.7c0.3,1.3,1,2.5,2,3.5c0.6,1,1.1,1.9,1.6,2.6   c-2.8,3.9-6.6,10.1-9,17.6c-4,12.6-5,31.5,12.9,50.1c9.5,9.8,30.5,14.5,62.4,13.8c14.7-0.3,30.9-1.7,47.9-4.1   c-16.6,35.6-31.6,57-41.5,68.9c-11.3,13.6-18.5,17.9-18.5,17.9c-2,1.1-3.3,3.1-3.6,5.4c-0.3,2.3,0.5,4.5,2.1,6.1   c29,28,61,47.8,94.7,59c0.9,1,2.2,1.5,3.5,1.5c0.3,0,0.6,0,0.9-0.1c19.8,6.1,40.2,9.3,60.9,9.3c38.9,0,76.5-10.9,112-32.4   c9.6-5.8,18.9-12.3,27.9-19.5c1.3-0.2,2.5-0.8,3.6-1.8c3.4-3.1,6.6-6.3,9.8-9.6c17.8-16.1,34.3-35,49.3-56.5   c53.4-76.5,82.7-178,82.7-285.9S788.1,330.8,734.7,254.3z M449.9,776.9c0.2-0.6,0.4-1.1,0.5-1.7c18-3.1,36.7-7.3,55.2-12.3   c1.2,0.6,2.6,0.8,4,0.6c13.2-2,24.9-2.1,35.2-0.4c-0.3,0.6-0.5,1.2-0.6,1.9c-4.6,60.3-25.1,101.4-41.6,125.2   c-11,15.9-21.7,26.5-28.3,32.3c-30.4-9.6-59.5-26.7-86.1-50.9C400,861.4,423.6,835.5,449.9,776.9z M485.3,925.6   c6.8-6.5,15.7-16.2,25-29.5c17.3-24.9,38.9-67.7,43.6-130.4c0-0.2,0-0.4,0-0.6c10.6,3.2,19.3,8.6,26.1,16.4   c19,21.7,20.6,58,18.7,84.6c-2.2,29.8-9.2,54.5-9.3,54.7c-0.2,0.6-0.3,1.2-0.3,1.8c-18.4,5.7-37.4,8.7-57,8.7   C516.4,931.4,500.7,929.4,485.3,925.6z M605.4,916.9c6.1-25.4,21.3-104.1-14.5-144.9c-10.5-12-24.3-19.6-41.2-22.8   c73.2-25.9,110.3-55.3,128.6-75.8c2.7-3,2.4-7.6-0.6-10.2s-7.6-2.4-10.2,0.6c-25.2,28.3-71.8,54.8-131.1,74.8   c-51.5,17.3-107.9,28.2-151.1,29c-38.7,0.8-49.3-7-51.7-9.4c-10.3-10.6-13.5-22.5-9.6-35.2c2.6-8.6,7.8-15.1,9.3-16.8   c0.3-0.2,0.5-0.5,0.7-0.8c2,0.3,3.9,0.3,5.8,0.2c2.4-0.2,4.8-0.6,7-1.4c4.4-1.4,8.2-3.7,11.6-6.3c3.4-2.6,6.3-5.6,8.9-8.8   c-3.4,2.3-7,4.2-10.7,5.5c-3.7,1.4-7.5,2.2-11.1,2.2c-1.8,0-3.5-0.2-5.1-0.6c-1.6-0.4-3.1-1-4.4-1.8c-0.3-0.2-0.7-0.4-1-0.6   c-0.3-0.2-0.6-0.4-0.9-0.7c-0.6-0.5-1.2-1-1.7-1.5c-1.1-1-2.1-2.3-3-3.6c-0.3-0.4-0.7-0.8-1.1-1.1c-0.5-1-1.1-2-1.8-3.2   c-1.8-3.2-0.9-6.4,0.1-8.6c2.7-5.6,9.2-9.8,17.4-11.3c13.3-2.4,28.4-10.4,29-10.7c3.1-1.6,4.6-5.2,3.5-8.5c-1-3.3-4.2-5.5-7.7-5.1   c-20.1,2.1-45.1-6.8-52.5-31.5c-0.1-0.3-0.1-0.4-0.1-0.5c0.6-0.8,2.8-2.1,4.2-3c2.9-1.8,6.5-4,9.2-7.5c6.1-7.8,9.6-20.5,8.3-30   c-0.9-6.4-3.6-9.6-5.8-11.3c-1.4-1-2.7-2-4.1-3c-13.3-9.9-24.8-18.4-30.4-32.4c-2.3-5.7-1.4-7.5,14.6-17.4   c11.4-7.1,27-16.7,41.2-34.5c25.2-31.5,25.1-74.8,25.1-100.6c0-4.6,0-8.6,0.1-11.6c2.3-43.2,25.3-80.6,37.9-98.1   c5.4,15.9,16.9,45,39,83.4c30.9,54,89.4,137.5,192.4,229.1c55.6,49.5,85.3,106.5,85.9,164.9c0.5,49.3-20.2,97.5-58.5,137   C653.8,891.6,630.4,906.8,605.4,916.9z M772.7,537.6c-15-44.6-40.6-85.8-76.1-122.4c-77.3-79.6-119.9-149.4-142.1-193.9   c-17.8-35.7-25.6-61.3-28.5-72.3c2.1-0.1,4.1-0.1,6.2-0.1C681.5,149,803,324.5,803,540.2c0,47.8-6,93.6-16.9,136   c1-8.2,1.7-16.8,2.1-25.8C789.9,611.2,784.7,573.3,772.7,537.6z" name="Layer %{number}" zoom="1" data-layer-id="2421421439611" style="fill: rgb(99, 106, 232); fill-opacity: 1"/>
        </svg>
      </g>
      <g transform="rotate(0 0 0)">
        <svg viewboxsize="0" data-root-id="5620650339611" xmlns="http://www.w3.org/2000/svg" x="50" y="40" viewBox="1.2999999523162842 3.759999990463257 146.25 13.619998931884766" height="13.619998931884766" width="146.25" fonturl="https://fonts.gstatic.com/s/lato/v24/S6uyw4BMUTPHvxk6XweuBCY.ttf" zoom="1" editortype="buyer" data-layer-role="slogan" style="position: absolute; top: 0; left: 262.56px; width: 146.25px; height: 13.62px">
          <g data-horizontal-grow="left" data-vertical-center="false" zoom="1" root="[object Object]" style="fill: rgb(99, 106, 232); fill-opacity: 1">
            <path d="M1.30 4.06L7.93 4.06L7.93 5.24L2.77 5.24L2.77 8.81L6.94 8.81L6.94 9.95L2.77 9.95L2.77 13.62L7.93 13.62L7.93 14.80L1.30 14.80L1.30 4.06ZM15.34 8.08L14.99 8.56Q14.93 8.64 14.87 8.68Q14.81 8.73 14.70 8.73L14.70 8.73Q14.59 8.73 14.46 8.64Q14.32 8.54 14.12 8.43Q13.92 8.32 13.63 8.22Q13.34 8.13 12.92 8.13L12.92 8.13Q12.37 8.13 11.94 8.33Q11.51 8.53 11.22 8.90Q10.93 9.28 10.79 9.81Q10.64 10.34 10.64 11.00L10.64 11.00Q10.64 11.69 10.80 12.23Q10.96 12.77 11.24 13.13Q11.53 13.49 11.94 13.68Q12.34 13.88 12.86 13.88L12.86 13.88Q13.34 13.88 13.66 13.76Q13.97 13.64 14.18 13.50Q14.39 13.36 14.53 13.24Q14.66 13.13 14.80 13.13L14.80 13.13Q14.97 13.13 15.05 13.25L15.05 13.25L15.43 13.74Q14.93 14.35 14.19 14.63Q13.45 14.91 12.62 14.91L12.62 14.91Q11.91 14.91 11.30 14.65Q10.69 14.38 10.24 13.89Q9.79 13.39 9.53 12.66Q9.27 11.93 9.27 11.00L9.27 11.00Q9.27 10.16 9.51 9.43Q9.74 8.71 10.20 8.19Q10.65 7.67 11.32 7.38Q11.98 7.09 12.85 7.09L12.85 7.09Q13.64 7.09 14.26 7.35Q14.87 7.61 15.34 8.08L15.34 8.08ZM19.89 7.09L19.89 7.09Q20.72 7.09 21.39 7.37Q22.06 7.64 22.53 8.15Q23.00 8.66 23.25 9.39Q23.50 10.11 23.50 11.00L23.50 11.00Q23.50 11.90 23.25 12.62Q23.00 13.34 22.53 13.85Q22.06 14.36 21.39 14.64Q20.72 14.91 19.89 14.91L19.89 14.91Q19.06 14.91 18.39 14.64Q17.71 14.36 17.24 13.85Q16.77 13.34 16.52 12.62Q16.26 11.90 16.26 11.00L16.26 11.00Q16.26 10.11 16.52 9.39Q16.77 8.66 17.24 8.15Q17.71 7.64 18.39 7.37Q19.06 7.09 19.89 7.09ZM19.89 13.87L19.89 13.87Q21.02 13.87 21.57 13.11Q22.13 12.36 22.13 11.01L22.13 11.01Q22.13 9.65 21.57 8.89Q21.02 8.14 19.89 8.14L19.89 8.14Q19.32 8.14 18.90 8.33Q18.48 8.53 18.20 8.89Q17.92 9.26 17.78 9.80Q17.64 10.34 17.64 11.01L17.64 11.01Q17.64 11.68 17.78 12.22Q17.92 12.75 18.20 13.11Q18.48 13.48 18.90 13.67Q19.32 13.87 19.89 13.87ZM24.81 10.88L24.81 9.74L28.52 9.74L28.52 10.88L24.81 10.88ZM32.00 14.80L30.66 14.80L30.66 8.35L29.82 8.25Q29.66 8.21 29.56 8.13Q29.46 8.05 29.46 7.91L29.46 7.91L29.46 7.36L30.66 7.36L30.66 6.62Q30.66 5.97 30.84 5.46Q31.03 4.96 31.37 4.61Q31.71 4.26 32.19 4.08Q32.67 3.90 33.27 3.90L33.27 3.90Q33.78 3.90 34.22 4.05L34.22 4.05L34.19 4.72Q34.18 4.87 34.06 4.90Q33.94 4.93 33.72 4.93L33.72 4.93L33.49 4.93Q33.14 4.93 32.86 5.02Q32.58 5.11 32.38 5.31Q32.17 5.51 32.07 5.84Q31.96 6.17 31.96 6.66L31.96 6.66L31.96 7.36L34.16 7.36L34.16 8.32L32.00 8.32L32.00 14.80ZM36.75 14.80L35.41 14.80L35.41 7.21L36.18 7.21Q36.40 7.21 36.48 7.29Q36.56 7.37 36.59 7.58L36.59 7.58L36.68 8.76Q37.07 7.96 37.65 7.52Q38.22 7.07 38.99 7.07L38.99 7.07Q39.31 7.07 39.56 7.14Q39.82 7.21 40.03 7.34L40.03 7.34L39.86 8.34Q39.81 8.53 39.63 8.53L39.63 8.53Q39.52 8.53 39.31 8.46Q39.09 8.38 38.70 8.38L38.70 8.38Q38.00 8.38 37.53 8.79Q37.06 9.20 36.75 9.97L36.75 9.97L36.75 14.80ZM41.61 7.21L42.95 7.21L42.95 14.80L41.61 14.80L41.61 7.21ZM43.25 4.82L43.25 4.82Q43.25 5.02 43.17 5.19Q43.09 5.36 42.96 5.49Q42.83 5.62 42.65 5.69Q42.48 5.77 42.29 5.77L42.29 5.77Q42.09 5.77 41.92 5.69Q41.75 5.62 41.62 5.49Q41.49 5.36 41.41 5.19Q41.34 5.02 41.34 4.82L41.34 4.82Q41.34 4.63 41.41 4.45Q41.49 4.28 41.62 4.14Q41.75 4.01 41.92 3.94Q42.09 3.86 42.29 3.86L42.29 3.86Q42.48 3.86 42.65 3.94Q42.83 4.01 42.96 4.14Q43.09 4.28 43.17 4.45Q43.25 4.63 43.25 4.82ZM48.31 7.09L48.31 7.09Q48.99 7.09 49.57 7.32Q50.14 7.54 50.56 7.98Q50.98 8.41 51.22 9.04Q51.46 9.68 51.46 10.48L51.46 10.48Q51.46 10.80 51.39 10.90Q51.32 11.01 51.13 11.01L51.13 11.01L46.08 11.01Q46.09 11.73 46.27 12.26Q46.45 12.79 46.77 13.15Q47.09 13.51 47.52 13.68Q47.95 13.86 48.49 13.86L48.49 13.86Q49.00 13.86 49.36 13.74Q49.72 13.63 49.99 13.49Q50.25 13.36 50.43 13.24Q50.60 13.13 50.73 13.13L50.73 13.13Q50.89 13.13 50.98 13.25L50.98 13.25L51.36 13.74Q51.11 14.04 50.77 14.26Q50.42 14.48 50.03 14.63Q49.63 14.77 49.21 14.84Q48.80 14.91 48.38 14.91L48.38 14.91Q47.59 14.91 46.93 14.64Q46.27 14.38 45.78 13.86Q45.30 13.35 45.03 12.59Q44.76 11.84 44.76 10.85L44.76 10.85Q44.76 10.06 45.00 9.37Q45.25 8.68 45.70 8.17Q46.16 7.67 46.82 7.38Q47.48 7.09 48.31 7.09ZM48.34 8.07L48.34 8.07Q47.37 8.07 46.81 8.63Q46.26 9.19 46.13 10.18L46.13 10.18L50.26 10.18Q50.26 9.71 50.13 9.33Q50.00 8.94 49.75 8.66Q49.51 8.38 49.15 8.22Q48.80 8.07 48.34 8.07ZM54.49 14.80L53.16 14.80L53.16 7.21L53.95 7.21Q54.24 7.21 54.31 7.49L54.31 7.49L54.42 8.31Q54.91 7.76 55.53 7.42Q56.14 7.09 56.94 7.09L56.94 7.09Q57.56 7.09 58.04 7.29Q58.52 7.50 58.83 7.88Q59.15 8.26 59.32 8.79Q59.48 9.32 59.48 9.97L59.48 9.97L59.48 14.80L58.15 14.80L58.15 9.97Q58.15 9.11 57.75 8.63Q57.36 8.15 56.55 8.15L56.55 8.15Q55.96 8.15 55.44 8.44Q54.93 8.72 54.49 9.21L54.49 9.21L54.49 14.80ZM67.64 14.80L66.85 14.80Q66.56 14.80 66.49 14.53L66.49 14.53L66.37 13.61Q65.88 14.20 65.25 14.55Q64.63 14.91 63.82 14.91L63.82 14.91Q63.16 14.91 62.63 14.66Q62.10 14.41 61.73 13.92Q61.35 13.43 61.15 12.71Q60.95 11.98 60.95 11.03L60.95 11.03Q60.95 10.19 61.17 9.47Q61.40 8.75 61.82 8.21Q62.24 7.68 62.85 7.38Q63.46 7.07 64.23 7.07L64.23 7.07Q64.93 7.07 65.42 7.31Q65.92 7.54 66.31 7.97L66.31 7.97L66.31 3.76L67.64 3.76L67.64 14.80ZM64.26 13.83L64.26 13.83Q64.91 13.83 65.40 13.53Q65.89 13.23 66.31 12.68L66.31 12.68L66.31 9.01Q65.94 8.51 65.50 8.31Q65.06 8.12 64.53 8.12L64.53 8.12Q63.47 8.12 62.90 8.87Q62.33 9.63 62.33 11.03L62.33 11.03Q62.33 11.78 62.45 12.30Q62.58 12.83 62.83 13.17Q63.08 13.52 63.44 13.67Q63.80 13.83 64.26 13.83ZM70.04 3.76L71.37 3.76L71.37 14.80L70.04 14.80L70.04 3.76ZM80.19 7.21L75.95 17.05Q75.89 17.20 75.78 17.29Q75.68 17.38 75.47 17.38L75.47 17.38L74.48 17.38L75.87 14.36L72.74 7.21L73.89 7.21Q74.06 7.21 74.16 7.29Q74.26 7.38 74.30 7.49L74.30 7.49L76.34 12.27Q76.40 12.43 76.45 12.60Q76.50 12.77 76.54 12.94L76.54 12.94Q76.59 12.77 76.64 12.60Q76.70 12.43 76.76 12.26L76.76 12.26L78.74 7.49Q78.78 7.37 78.89 7.29Q79.00 7.21 79.13 7.21L79.13 7.21L80.19 7.21ZM89.83 8.08L89.48 8.56Q89.42 8.64 89.36 8.68Q89.30 8.73 89.19 8.73L89.19 8.73Q89.08 8.73 88.95 8.64Q88.81 8.54 88.61 8.43Q88.41 8.32 88.12 8.22Q87.83 8.13 87.41 8.13L87.41 8.13Q86.86 8.13 86.43 8.33Q86.00 8.53 85.71 8.90Q85.42 9.28 85.28 9.81Q85.13 10.34 85.13 11.00L85.13 11.00Q85.13 11.69 85.29 12.23Q85.45 12.77 85.73 13.13Q86.02 13.49 86.43 13.68Q86.83 13.88 87.34 13.88L87.34 13.88Q87.83 13.88 88.15 13.76Q88.46 13.64 88.67 13.50Q88.88 13.36 89.02 13.24Q89.15 13.13 89.29 13.13L89.29 13.13Q89.46 13.13 89.54 13.25L89.54 13.25L89.92 13.74Q89.42 14.35 88.68 14.63Q87.94 14.91 87.11 14.91L87.11 14.91Q86.40 14.91 85.79 14.65Q85.18 14.38 84.73 13.89Q84.28 13.39 84.02 12.66Q83.76 11.93 83.76 11.00L83.76 11.00Q83.76 10.16 84.00 9.43Q84.23 8.71 84.69 8.19Q85.14 7.67 85.81 7.38Q86.47 7.09 87.34 7.09L87.34 7.09Q88.13 7.09 88.75 7.35Q89.36 7.61 89.83 8.08L89.83 8.08ZM94.38 7.09L94.38 7.09Q95.21 7.09 95.88 7.37Q96.55 7.64 97.02 8.15Q97.49 8.66 97.74 9.39Q97.99 10.11 97.99 11.00L97.99 11.00Q97.99 11.90 97.74 12.62Q97.49 13.34 97.02 13.85Q96.55 14.36 95.88 14.64Q95.21 14.91 94.38 14.91L94.38 14.91Q93.55 14.91 92.88 14.64Q92.20 14.36 91.73 13.85Q91.26 13.34 91.00 12.62Q90.75 11.90 90.75 11.00L90.75 11.00Q90.75 10.11 91.00 9.39Q91.26 8.66 91.73 8.15Q92.20 7.64 92.88 7.37Q93.55 7.09 94.38 7.09ZM94.38 13.87L94.38 13.87Q95.50 13.87 96.06 13.11Q96.61 12.36 96.61 11.01L96.61 11.01Q96.61 9.65 96.06 8.89Q95.50 8.14 94.38 8.14L94.38 8.14Q93.81 8.14 93.39 8.33Q92.97 8.53 92.69 8.89Q92.41 9.26 92.27 9.80Q92.13 10.34 92.13 11.01L92.13 11.01Q92.13 11.68 92.27 12.22Q92.41 12.75 92.69 13.11Q92.97 13.48 93.39 13.67Q93.81 13.87 94.38 13.87ZM104.30 7.97L103.99 8.46Q103.91 8.63 103.72 8.63L103.72 8.63Q103.60 8.63 103.46 8.54Q103.32 8.46 103.11 8.36Q102.91 8.26 102.62 8.17Q102.34 8.09 101.95 8.09L101.95 8.09Q101.61 8.09 101.34 8.17Q101.07 8.26 100.88 8.41Q100.69 8.56 100.59 8.76Q100.48 8.96 100.48 9.19L100.48 9.19Q100.48 9.48 100.65 9.68Q100.82 9.87 101.10 10.01Q101.38 10.16 101.73 10.26Q102.08 10.37 102.45 10.50Q102.83 10.62 103.18 10.77Q103.53 10.92 103.81 11.14Q104.08 11.37 104.25 11.70Q104.42 12.02 104.42 12.48L104.42 12.48Q104.42 13.00 104.23 13.45Q104.05 13.90 103.68 14.22Q103.31 14.55 102.78 14.74Q102.25 14.92 101.55 14.92L101.55 14.92Q100.75 14.92 100.11 14.67Q99.47 14.41 99.02 14.00L99.02 14.00L99.33 13.49Q99.39 13.39 99.47 13.34Q99.55 13.29 99.69 13.29L99.69 13.29Q99.83 13.29 99.97 13.39Q100.13 13.50 100.34 13.63Q100.55 13.75 100.86 13.86Q101.16 13.96 101.62 13.96L101.62 13.96Q102.01 13.96 102.30 13.86Q102.59 13.76 102.79 13.59Q102.98 13.42 103.08 13.19Q103.17 12.97 103.17 12.71L103.17 12.71Q103.17 12.40 103.00 12.19Q102.83 11.98 102.55 11.84Q102.28 11.69 101.92 11.58Q101.56 11.47 101.19 11.36Q100.82 11.23 100.47 11.08Q100.11 10.93 99.83 10.70Q99.55 10.46 99.39 10.12Q99.22 9.78 99.22 9.29L99.22 9.29Q99.22 8.86 99.40 8.46Q99.58 8.05 99.92 7.75Q100.27 7.45 100.77 7.27Q101.27 7.09 101.92 7.09L101.92 7.09Q102.67 7.09 103.26 7.32Q103.86 7.56 104.30 7.97L104.30 7.97ZM107.49 14.80L106.16 14.80L106.16 7.21L106.95 7.21Q107.23 7.21 107.31 7.49L107.31 7.49L107.41 8.27Q107.83 7.75 108.35 7.42Q108.87 7.09 109.56 7.09L109.56 7.09Q110.33 7.09 110.81 7.51Q111.28 7.94 111.50 8.67L111.50 8.67Q111.65 8.26 111.91 7.96Q112.17 7.66 112.49 7.46Q112.81 7.27 113.18 7.18Q113.54 7.09 113.92 7.09L113.92 7.09Q114.52 7.09 114.99 7.28Q115.45 7.47 115.78 7.84Q116.11 8.21 116.28 8.74Q116.45 9.28 116.45 9.97L116.45 9.97L116.45 14.80L115.12 14.80L115.12 9.97Q115.12 9.07 114.73 8.61Q114.34 8.15 113.59 8.15L113.59 8.15Q113.27 8.15 112.97 8.27Q112.67 8.38 112.45 8.61Q112.22 8.84 112.09 9.18Q111.96 9.52 111.96 9.97L111.96 9.97L111.96 14.80L110.63 14.80L110.63 9.97Q110.63 9.05 110.26 8.60Q109.89 8.15 109.19 8.15L109.19 8.15Q108.69 8.15 108.27 8.42Q107.84 8.68 107.49 9.14L107.49 9.14L107.49 14.80ZM121.48 7.09L121.48 7.09Q122.16 7.09 122.74 7.32Q123.31 7.54 123.73 7.98Q124.16 8.41 124.39 9.04Q124.63 9.68 124.63 10.48L124.63 10.48Q124.63 10.80 124.56 10.90Q124.49 11.01 124.31 11.01L124.31 11.01L119.25 11.01Q119.27 11.73 119.44 12.26Q119.63 12.79 119.94 13.15Q120.25 13.51 120.69 13.68Q121.13 13.86 121.67 13.86L121.67 13.86Q122.17 13.86 122.53 13.74Q122.89 13.63 123.16 13.49Q123.42 13.36 123.60 13.24Q123.77 13.13 123.90 13.13L123.90 13.13Q124.06 13.13 124.16 13.25L124.16 13.25L124.53 13.74Q124.28 14.04 123.94 14.26Q123.59 14.48 123.20 14.63Q122.81 14.77 122.39 14.84Q121.97 14.91 121.55 14.91L121.55 14.91Q120.77 14.91 120.10 14.64Q119.44 14.38 118.95 13.86Q118.47 13.35 118.20 12.59Q117.93 11.84 117.93 10.85L117.93 10.85Q117.93 10.06 118.17 9.37Q118.42 8.68 118.88 8.17Q119.33 7.67 119.99 7.38Q120.65 7.09 121.48 7.09ZM121.51 8.07L121.51 8.07Q120.54 8.07 119.98 8.63Q119.43 9.19 119.30 10.18L119.30 10.18L123.43 10.18Q123.43 9.71 123.30 9.33Q123.17 8.94 122.92 8.66Q122.68 8.38 122.32 8.22Q121.97 8.07 121.51 8.07ZM128.63 14.92L128.63 14.92Q127.73 14.92 127.25 14.42Q126.77 13.92 126.77 12.97L126.77 12.97L126.77 8.32L125.85 8.32Q125.73 8.32 125.65 8.25Q125.56 8.18 125.56 8.03L125.56 8.03L125.56 7.50L126.81 7.34L127.12 4.99Q127.13 4.88 127.22 4.81Q127.30 4.74 127.42 4.74L127.42 4.74L128.10 4.74L128.10 7.36L130.28 7.36L130.28 8.32L128.10 8.32L128.10 12.88Q128.10 13.37 128.33 13.60Q128.56 13.83 128.93 13.83L128.93 13.83Q129.14 13.83 129.30 13.77Q129.45 13.72 129.56 13.65Q129.68 13.58 129.75 13.53Q129.83 13.47 129.89 13.47L129.89 13.47Q130.00 13.47 130.08 13.60L130.08 13.60L130.47 14.23Q130.13 14.56 129.64 14.74Q129.15 14.92 128.63 14.92ZM132.08 7.21L133.41 7.21L133.41 14.80L132.08 14.80L132.08 7.21ZM133.71 4.82L133.71 4.82Q133.71 5.02 133.63 5.19Q133.55 5.36 133.42 5.49Q133.29 5.62 133.12 5.69Q132.95 5.77 132.75 5.77L132.75 5.77Q132.56 5.77 132.39 5.69Q132.22 5.62 132.09 5.49Q131.96 5.36 131.88 5.19Q131.81 5.02 131.81 4.82L131.81 4.82Q131.81 4.63 131.88 4.45Q131.96 4.28 132.09 4.14Q132.22 4.01 132.39 3.94Q132.56 3.86 132.75 3.86L132.75 3.86Q132.95 3.86 133.12 3.94Q133.29 4.01 133.42 4.14Q133.55 4.28 133.63 4.45Q133.71 4.63 133.71 4.82ZM141.30 8.08L140.95 8.56Q140.89 8.64 140.83 8.68Q140.77 8.73 140.66 8.73L140.66 8.73Q140.54 8.73 140.41 8.64Q140.28 8.54 140.08 8.43Q139.88 8.32 139.59 8.22Q139.30 8.13 138.88 8.13L138.88 8.13Q138.32 8.13 137.90 8.33Q137.47 8.53 137.18 8.90Q136.89 9.28 136.74 9.81Q136.60 10.34 136.60 11.00L136.60 11.00Q136.60 11.69 136.76 12.23Q136.91 12.77 137.20 13.13Q137.48 13.49 137.89 13.68Q138.30 13.88 138.81 13.88L138.81 13.88Q139.30 13.88 139.61 13.76Q139.93 13.64 140.14 13.50Q140.35 13.36 140.48 13.24Q140.62 13.13 140.75 13.13L140.75 13.13Q140.93 13.13 141.01 13.25L141.01 13.25L141.38 13.74Q140.89 14.35 140.15 14.63Q139.40 14.91 138.58 14.91L138.58 14.91Q137.87 14.91 137.25 14.65Q136.64 14.38 136.19 13.89Q135.74 13.39 135.48 12.66Q135.23 11.93 135.23 11.00L135.23 11.00Q135.23 10.16 135.46 9.43Q135.70 8.71 136.15 8.19Q136.61 7.67 137.27 7.38Q137.94 7.09 138.80 7.09L138.80 7.09Q139.60 7.09 140.21 7.35Q140.83 7.61 141.30 8.08L141.30 8.08ZM147.42 7.97L147.12 8.46Q147.03 8.63 146.84 8.63L146.84 8.63Q146.73 8.63 146.59 8.54Q146.45 8.46 146.24 8.36Q146.03 8.26 145.75 8.17Q145.46 8.09 145.07 8.09L145.07 8.09Q144.74 8.09 144.47 8.17Q144.20 8.26 144.00 8.41Q143.81 8.56 143.71 8.76Q143.61 8.96 143.61 9.19L143.61 9.19Q143.61 9.48 143.78 9.68Q143.95 9.87 144.23 10.01Q144.50 10.16 144.86 10.26Q145.21 10.37 145.58 10.50Q145.95 10.62 146.30 10.77Q146.66 10.92 146.93 11.14Q147.21 11.37 147.38 11.70Q147.55 12.02 147.55 12.48L147.55 12.48Q147.55 13.00 147.36 13.45Q147.17 13.90 146.81 14.22Q146.44 14.55 145.91 14.74Q145.37 14.92 144.68 14.92L144.68 14.92Q143.88 14.92 143.24 14.67Q142.59 14.41 142.14 14.00L142.14 14.00L142.46 13.49Q142.52 13.39 142.60 13.34Q142.68 13.29 142.81 13.29L142.81 13.29Q142.95 13.29 143.10 13.39Q143.25 13.50 143.46 13.63Q143.68 13.75 143.98 13.86Q144.29 13.96 144.74 13.96L144.74 13.96Q145.13 13.96 145.43 13.86Q145.72 13.76 145.91 13.59Q146.11 13.42 146.20 13.19Q146.30 12.97 146.30 12.71L146.30 12.71Q146.30 12.40 146.13 12.19Q145.96 11.98 145.68 11.84Q145.40 11.69 145.05 11.58Q144.69 11.47 144.32 11.36Q143.95 11.23 143.59 11.08Q143.24 10.93 142.96 10.70Q142.68 10.46 142.51 10.12Q142.34 9.78 142.34 9.29L142.34 9.29Q142.34 8.86 142.52 8.46Q142.70 8.05 143.05 7.75Q143.39 7.45 143.90 7.27Q144.40 7.09 145.04 7.09L145.04 7.09Q145.79 7.09 146.39 7.32Q146.99 7.56 147.42 7.97L147.42 7.97Z" transform="translate(0, 0)"/>
          </g>
        </svg>
      </g>
      <g transform="rotate(0 0 0)">
        <svg viewboxsize="575" data-root-id="5678190439611" xmlns="http://www.w3.org/2000/svg" x="50" y="10" viewBox="3.3399999141693115 15.75 144.54000854492188 25.15999984741211" height="25.15999984741211" width="144.54000854492188" fonturl="https://fonts.gstatic.com/s/baloo2/v21/wXK0E3kTposypRydzVT08TS3JnAmtdgazapv9Fat7WcN.ttf" zoom="1" editortype="buyer" data-layer-role="brandName">
          <g data-horizontal-grow="left" data-vertical-center="false" zoom="1" root="[object Object]" style="fill: rgb(99, 106, 232); fill-opacity: 1">
            <path d="M6.37 20.10L6.37 29.73L10.01 29.73Q13.01 29.73 14.66 28.48Q16.31 27.22 16.31 24.67L16.31 24.67Q16.31 22.12 14.72 20.94Q13.12 19.76 10.16 19.76L10.16 19.76Q9.15 19.76 8.16 19.85Q7.16 19.95 6.37 20.10L6.37 20.10ZM10.20 32.28L10.20 32.28L3.34 32.28L3.34 19.27Q3.34 18.67 3.66 18.35Q3.97 18.04 4.57 17.85L4.57 17.85Q5.66 17.51 7.22 17.36Q8.77 17.21 10.24 17.21L10.24 17.21Q15.00 17.21 17.19 19.22Q19.38 21.22 19.38 24.63L19.38 24.63Q19.38 26.96 18.39 28.68Q17.40 30.41 15.37 31.35Q13.35 32.28 10.20 32.28ZM3.34 39.22L3.34 30.82L6.41 30.82L6.41 40.34Q6.19 40.42 5.81 40.51Q5.44 40.61 4.99 40.61L4.99 40.61Q4.16 40.61 3.75 40.27Q3.34 39.93 3.34 39.22L3.34 39.22ZM24.07 34.08L24.07 34.08L24.07 30.67L27.07 30.67L27.07 33.93Q27.07 36.33 28.35 37.38Q29.62 38.43 31.87 38.43L31.87 38.43Q33.37 38.43 34.42 38.11Q35.47 37.79 36.07 37.46L36.07 37.46L36.07 30.67L39.07 30.67L39.07 37.35Q39.07 38.13 38.86 38.60Q38.66 39.07 37.87 39.52L37.87 39.52Q37.05 40.01 35.51 40.46Q33.97 40.91 31.83 40.91L31.83 40.91Q29.36 40.91 27.62 40.18Q25.87 39.44 24.97 37.93Q24.07 36.41 24.07 34.08ZM39.07 24.30L39.07 32.62L36.07 32.62L36.07 23.17Q36.26 23.10 36.65 23.00Q37.05 22.91 37.46 22.91L37.46 22.91Q38.28 22.91 38.68 23.23Q39.07 23.55 39.07 24.30L39.07 24.30ZM27.07 24.30L27.07 32.62L24.07 32.62L24.07 23.17Q24.26 23.10 24.65 23.00Q25.05 22.91 25.50 22.91L25.50 22.91Q26.28 22.91 26.68 23.23Q27.07 23.55 27.07 24.30L27.07 24.30ZM47.69 26.32L47.69 26.32L47.69 32.25L44.69 32.25L44.69 26.55Q44.69 25.68 45.01 25.18Q45.33 24.67 46.08 24.18L46.08 24.18Q47.06 23.55 48.74 23.08Q50.43 22.61 52.49 22.61L52.49 22.61Q55.49 22.61 55.49 24.11L55.49 24.11Q55.49 24.48 55.38 24.80Q55.27 25.12 55.08 25.35L55.08 25.35Q54.71 25.27 54.11 25.20Q53.51 25.12 52.91 25.12L52.91 25.12Q51.18 25.12 49.87 25.48Q48.56 25.83 47.69 26.32ZM44.69 39.26L44.69 30.52L47.69 30.97L47.69 40.34Q47.51 40.42 47.13 40.51Q46.76 40.61 46.31 40.61L46.31 40.61Q45.52 40.61 45.11 40.29Q44.69 39.97 44.69 39.26L44.69 39.26ZM72.70 31.91L60.10 33.67L59.95 31.31L71.28 29.77Q71.13 27.71 69.85 26.38Q68.58 25.05 66.33 25.05L66.33 25.05Q64.00 25.05 62.49 26.72Q60.97 28.38 60.97 31.50L60.97 31.50L60.97 32.32Q61.23 35.32 62.94 36.88Q64.64 38.43 67.60 38.43L67.60 38.43Q69.18 38.43 70.45 37.91Q71.73 37.38 72.48 36.78L72.48 36.78Q72.89 37.05 73.13 37.40Q73.38 37.76 73.38 38.21L73.38 38.21Q73.38 38.92 72.57 39.54Q71.77 40.16 70.43 40.53Q69.10 40.91 67.45 40.91L67.45 40.91Q64.57 40.91 62.45 39.86Q60.33 38.81 59.19 36.73Q58.04 34.65 58.04 31.65L58.04 31.65Q58.04 29.51 58.66 27.84Q59.28 26.17 60.39 25.01Q61.49 23.85 63.03 23.23Q64.57 22.61 66.37 22.61L66.37 22.61Q68.65 22.61 70.40 23.58Q72.14 24.56 73.13 26.30Q74.13 28.05 74.13 30.30L74.13 30.30Q74.13 31.12 73.75 31.48Q73.38 31.83 72.70 31.91L72.70 31.91ZM92.80 38.36L92.80 38.36Q95.31 38.36 96.61 37.21Q97.90 36.07 97.90 34.27L97.90 34.27Q97.90 32.73 96.91 31.72Q95.91 30.71 93.78 30.11L93.78 30.11L90.51 29.13Q88.94 28.65 87.78 27.88Q86.61 27.11 85.99 25.97Q85.38 24.82 85.38 23.28L85.38 23.28Q85.38 20.40 87.48 18.77Q89.58 17.14 93.06 17.14L93.06 17.14Q95.09 17.14 96.68 17.57Q98.27 18.00 99.19 18.67Q100.11 19.35 100.11 20.10L100.11 20.10Q100.11 20.58 99.85 20.98Q99.59 21.37 99.17 21.60L99.17 21.60Q98.24 20.85 96.64 20.28Q95.05 19.72 93.18 19.72L93.18 19.72Q91.00 19.72 89.73 20.68Q88.45 21.63 88.45 23.28L88.45 23.28Q88.45 24.60 89.37 25.42Q90.29 26.25 92.35 26.85L92.35 26.85L94.64 27.52Q97.60 28.35 99.31 29.92Q101.01 31.50 101.01 34.27L101.01 34.27Q101.01 37.23 98.86 39.07Q96.70 40.91 92.80 40.91L92.80 40.91Q90.51 40.91 88.81 40.40Q87.10 39.89 86.14 39.13Q85.19 38.36 85.19 37.61L85.19 37.61Q85.19 36.97 85.58 36.54Q85.98 36.11 86.50 35.92L86.50 35.92Q87.36 36.75 88.94 37.55Q90.51 38.36 92.80 38.36ZM117.55 26.06L110.20 32.51L108.32 31.05L116.87 22.76Q117.77 22.80 118.28 23.19Q118.78 23.58 118.78 24.22L118.78 24.22Q118.78 24.75 118.47 25.16Q118.15 25.57 117.55 26.06L117.55 26.06ZM116.23 39.56L108.25 31.53L110.35 30.30L119.87 38.84Q119.80 39.67 119.37 40.16Q118.93 40.64 118.22 40.64L118.22 40.64Q117.66 40.64 117.19 40.34Q116.72 40.04 116.23 39.56L116.23 39.56ZM105.66 39.26L105.66 30.37L108.66 30.82L108.66 40.34Q108.47 40.42 108.10 40.51Q107.72 40.61 107.27 40.61L107.27 40.61Q106.49 40.61 106.07 40.29Q105.66 39.97 105.66 39.26L105.66 39.26ZM108.66 17.21L108.66 32.28L105.66 31.83L105.66 16.12Q105.85 16.05 106.24 15.95Q106.64 15.86 107.09 15.86L107.09 15.86Q107.87 15.86 108.27 16.18Q108.66 16.50 108.66 17.21L108.66 17.21ZM123.58 17.62L123.58 17.62Q123.58 16.84 124.15 16.29Q124.71 15.75 125.53 15.75L125.53 15.75Q126.40 15.75 126.92 16.29Q127.45 16.84 127.45 17.62L127.45 17.62Q127.45 18.41 126.92 18.95Q126.40 19.50 125.53 19.50L125.53 19.50Q124.71 19.50 124.15 18.95Q123.58 18.41 123.58 17.62ZM124.03 39.26L124.03 30.52L127.03 30.52L127.03 40.34Q126.85 40.42 126.47 40.51Q126.10 40.61 125.65 40.61L125.65 40.61Q124.86 40.61 124.45 40.29Q124.03 39.97 124.03 39.26L124.03 39.26ZM127.03 24.30L127.03 31.98L124.03 31.98L124.03 23.17Q124.22 23.10 124.61 23.00Q125.01 22.91 125.46 22.91L125.46 22.91Q126.25 22.91 126.64 23.23Q127.03 23.55 127.03 24.30L127.03 24.30ZM147.88 28.98L147.88 28.98L147.88 32.81L144.88 32.81L144.88 29.13Q144.88 27.03 143.70 26.06Q142.52 25.08 140.53 25.08L140.53 25.08Q139.03 25.08 137.87 25.46Q136.71 25.83 135.88 26.32L135.88 26.32L135.88 32.81L132.88 32.81L132.88 26.47Q132.88 25.68 133.20 25.18Q133.52 24.67 134.31 24.18L134.31 24.18Q135.28 23.62 136.89 23.12Q138.51 22.61 140.53 22.61L140.53 22.61Q143.94 22.61 145.91 24.17Q147.88 25.72 147.88 28.98ZM132.88 39.26L132.88 30.75L135.88 30.75L135.88 40.34Q135.69 40.42 135.32 40.51Q134.94 40.61 134.49 40.61L134.49 40.61Q133.71 40.61 133.29 40.29Q132.88 39.97 132.88 39.26L132.88 39.26ZM144.88 39.26L144.88 30.75L147.88 30.75L147.88 40.34Q147.69 40.42 147.30 40.51Q146.91 40.61 146.49 40.61L146.49 40.61Q145.67 40.61 145.27 40.29Q144.88 39.97 144.88 39.26L144.88 39.26Z" transform="translate(0, 0)"/>
          </g>
        </svg>
      </g>
    </svg>